<?xml version="1.0" encoding="utf-8" standalone="no"?>
<!DOCTYPE svg PUBLIC "-//W3C//DTD SVG 1.1//EN"
  "http://www.w3.org/Graphics/SVG/1.1/DTD/svg11.dtd">
<svg xmlns:xlink="http://www.w3.org/1999/xlink" width="720pt" height="288pt" viewBox="0 0 720 288" xmlns="http://www.w3.org/2000/svg" version="1.1">
 <metadata>
  <rdf:RDF xmlns:dc="http://purl.org/dc/elements/1.1/" xmlns:cc="http://creativecommons.org/ns#" xmlns:rdf="http://www.w3.org/1999/02/22-rdf-syntax-ns#">
   <cc:Work>
    <dc:type rdf:resource="http://purl.org/dc/dcmitype/StillImage"/>
    <dc:date>2025-09-13T12:53:03.578602</dc:date>
    <dc:format>image/svg+xml</dc:format>
    <dc:creator>
     <cc:Agent>
      <dc:title>Matplotlib v3.10.6, https://matplotlib.org/</dc:title>
     </cc:Agent>
    </dc:creator>
   </cc:Work>
  </rdf:RDF>
 </metadata>
 <defs>
  <style type="text/css">*{stroke-linejoin: round; stroke-linecap: butt}</style>
 </defs>
 <g id="figure_1">
  <g id="patch_1">
   <path d="M 0 288 
L 720 288 
L 720 0 
L 0 0 
z
" style="fill: #ffffff"/>
  </g>
  <g id="axes_1">
   <g id="patch_2">
    <path d="M 46.71875 248.2 
L 356.146875 248.2 
L 356.146875 25.8 
L 46.71875 25.8 
z
" style="fill: #ffffff"/>
   </g>
   <g id="matplotlib.axis_1">
    <g id="xtick_1">
     <g id="line2d_1">
      <path d="M 59.370105 248.2 
L 59.370105 25.8 
" clip-path="url(#pae12595758)" style="fill: none; stroke: #b0b0b0; stroke-opacity: 0.3; stroke-width: 0.8; stroke-linecap: square"/>
     </g>
     <g id="line2d_2">
      <defs>
       <path id="mac6767546c" d="M 0 0 
L 0 3.5 
" style="stroke: #000000; stroke-width: 0.8"/>
      </defs>
      <g>
       <use xlink:href="#mac6767546c" x="59.370105" y="248.2" style="stroke: #000000; stroke-width: 0.8"/>
      </g>
     </g>
     <g id="text_1">
      <!-- 0 -->
      <g transform="translate(56.188855 262.798438) scale(0.1 -0.1)">
       <defs>
        <path id="DejaVuSans-30" d="M 2034 4250 
Q 1547 4250 1301 3770 
Q 1056 3291 1056 2328 
Q 1056 1369 1301 889 
Q 1547 409 2034 409 
Q 2525 409 2770 889 
Q 3016 1369 3016 2328 
Q 3016 3291 2770 3770 
Q 2525 4250 2034 4250 
z
M 2034 4750 
Q 2819 4750 3233 4129 
Q 3647 3509 3647 2328 
Q 3647 1150 3233 529 
Q 2819 -91 2034 -91 
Q 1250 -91 836 529 
Q 422 1150 422 2328 
Q 422 3509 836 4129 
Q 1250 4750 2034 4750 
z
" transform="scale(0.015625)"/>
       </defs>
       <use xlink:href="#DejaVuSans-30"/>
      </g>
     </g>
    </g>
    <g id="xtick_2">
     <g id="line2d_3">
      <path d="M 94.709087 248.2 
L 94.709087 25.8 
" clip-path="url(#pae12595758)" style="fill: none; stroke: #b0b0b0; stroke-opacity: 0.3; stroke-width: 0.8; stroke-linecap: square"/>
     </g>
     <g id="line2d_4">
      <g>
       <use xlink:href="#mac6767546c" x="94.709087" y="248.2" style="stroke: #000000; stroke-width: 0.8"/>
      </g>
     </g>
     <g id="text_2">
      <!-- 25 -->
      <g transform="translate(88.346587 262.798438) scale(0.1 -0.1)">
       <defs>
        <path id="DejaVuSans-32" d="M 1228 531 
L 3431 531 
L 3431 0 
L 469 0 
L 469 531 
Q 828 903 1448 1529 
Q 2069 2156 2228 2338 
Q 2531 2678 2651 2914 
Q 2772 3150 2772 3378 
Q 2772 3750 2511 3984 
Q 2250 4219 1831 4219 
Q 1534 4219 1204 4116 
Q 875 4013 500 3803 
L 500 4441 
Q 881 4594 1212 4672 
Q 1544 4750 1819 4750 
Q 2544 4750 2975 4387 
Q 3406 4025 3406 3419 
Q 3406 3131 3298 2873 
Q 3191 2616 2906 2266 
Q 2828 2175 2409 1742 
Q 1991 1309 1228 531 
z
" transform="scale(0.015625)"/>
        <path id="DejaVuSans-35" d="M 691 4666 
L 3169 4666 
L 3169 4134 
L 1269 4134 
L 1269 2991 
Q 1406 3038 1543 3061 
Q 1681 3084 1819 3084 
Q 2600 3084 3056 2656 
Q 3513 2228 3513 1497 
Q 3513 744 3044 326 
Q 2575 -91 1722 -91 
Q 1428 -91 1123 -41 
Q 819 9 494 109 
L 494 744 
Q 775 591 1075 516 
Q 1375 441 1709 441 
Q 2250 441 2565 725 
Q 2881 1009 2881 1497 
Q 2881 1984 2565 2268 
Q 2250 2553 1709 2553 
Q 1456 2553 1204 2497 
Q 953 2441 691 2322 
L 691 4666 
z
" transform="scale(0.015625)"/>
       </defs>
       <use xlink:href="#DejaVuSans-32"/>
       <use xlink:href="#DejaVuSans-35" transform="translate(63.623047 0)"/>
      </g>
     </g>
    </g>
    <g id="xtick_3">
     <g id="line2d_5">
      <path d="M 130.048069 248.2 
L 130.048069 25.8 
" clip-path="url(#pae12595758)" style="fill: none; stroke: #b0b0b0; stroke-opacity: 0.3; stroke-width: 0.8; stroke-linecap: square"/>
     </g>
     <g id="line2d_6">
      <g>
       <use xlink:href="#mac6767546c" x="130.048069" y="248.2" style="stroke: #000000; stroke-width: 0.8"/>
      </g>
     </g>
     <g id="text_3">
      <!-- 50 -->
      <g transform="translate(123.685569 262.798438) scale(0.1 -0.1)">
       <use xlink:href="#DejaVuSans-35"/>
       <use xlink:href="#DejaVuSans-30" transform="translate(63.623047 0)"/>
      </g>
     </g>
    </g>
    <g id="xtick_4">
     <g id="line2d_7">
      <path d="M 165.387051 248.2 
L 165.387051 25.8 
" clip-path="url(#pae12595758)" style="fill: none; stroke: #b0b0b0; stroke-opacity: 0.3; stroke-width: 0.8; stroke-linecap: square"/>
     </g>
     <g id="line2d_8">
      <g>
       <use xlink:href="#mac6767546c" x="165.387051" y="248.2" style="stroke: #000000; stroke-width: 0.8"/>
      </g>
     </g>
     <g id="text_4">
      <!-- 75 -->
      <g transform="translate(159.024551 262.798438) scale(0.1 -0.1)">
       <defs>
        <path id="DejaVuSans-37" d="M 525 4666 
L 3525 4666 
L 3525 4397 
L 1831 0 
L 1172 0 
L 2766 4134 
L 525 4134 
L 525 4666 
z
" transform="scale(0.015625)"/>
       </defs>
       <use xlink:href="#DejaVuSans-37"/>
       <use xlink:href="#DejaVuSans-35" transform="translate(63.623047 0)"/>
      </g>
     </g>
    </g>
    <g id="xtick_5">
     <g id="line2d_9">
      <path d="M 200.726033 248.2 
L 200.726033 25.8 
" clip-path="url(#pae12595758)" style="fill: none; stroke: #b0b0b0; stroke-opacity: 0.3; stroke-width: 0.8; stroke-linecap: square"/>
     </g>
     <g id="line2d_10">
      <g>
       <use xlink:href="#mac6767546c" x="200.726033" y="248.2" style="stroke: #000000; stroke-width: 0.8"/>
      </g>
     </g>
     <g id="text_5">
      <!-- 100 -->
      <g transform="translate(191.182283 262.798438) scale(0.1 -0.1)">
       <defs>
        <path id="DejaVuSans-31" d="M 794 531 
L 1825 531 
L 1825 4091 
L 703 3866 
L 703 4441 
L 1819 4666 
L 2450 4666 
L 2450 531 
L 3481 531 
L 3481 0 
L 794 0 
L 794 531 
z
" transform="scale(0.015625)"/>
       </defs>
       <use xlink:href="#DejaVuSans-31"/>
       <use xlink:href="#DejaVuSans-30" transform="translate(63.623047 0)"/>
       <use xlink:href="#DejaVuSans-30" transform="translate(127.246094 0)"/>
      </g>
     </g>
    </g>
    <g id="xtick_6">
     <g id="line2d_11">
      <path d="M 236.065015 248.2 
L 236.065015 25.8 
" clip-path="url(#pae12595758)" style="fill: none; stroke: #b0b0b0; stroke-opacity: 0.3; stroke-width: 0.8; stroke-linecap: square"/>
     </g>
     <g id="line2d_12">
      <g>
       <use xlink:href="#mac6767546c" x="236.065015" y="248.2" style="stroke: #000000; stroke-width: 0.8"/>
      </g>
     </g>
     <g id="text_6">
      <!-- 125 -->
      <g transform="translate(226.521265 262.798438) scale(0.1 -0.1)">
       <use xlink:href="#DejaVuSans-31"/>
       <use xlink:href="#DejaVuSans-32" transform="translate(63.623047 0)"/>
       <use xlink:href="#DejaVuSans-35" transform="translate(127.246094 0)"/>
      </g>
     </g>
    </g>
    <g id="xtick_7">
     <g id="line2d_13">
      <path d="M 271.403997 248.2 
L 271.403997 25.8 
" clip-path="url(#pae12595758)" style="fill: none; stroke: #b0b0b0; stroke-opacity: 0.3; stroke-width: 0.8; stroke-linecap: square"/>
     </g>
     <g id="line2d_14">
      <g>
       <use xlink:href="#mac6767546c" x="271.403997" y="248.2" style="stroke: #000000; stroke-width: 0.8"/>
      </g>
     </g>
     <g id="text_7">
      <!-- 150 -->
      <g transform="translate(261.860247 262.798438) scale(0.1 -0.1)">
       <use xlink:href="#DejaVuSans-31"/>
       <use xlink:href="#DejaVuSans-35" transform="translate(63.623047 0)"/>
       <use xlink:href="#DejaVuSans-30" transform="translate(127.246094 0)"/>
      </g>
     </g>
    </g>
    <g id="xtick_8">
     <g id="line2d_15">
      <path d="M 306.742978 248.2 
L 306.742978 25.8 
" clip-path="url(#pae12595758)" style="fill: none; stroke: #b0b0b0; stroke-opacity: 0.3; stroke-width: 0.8; stroke-linecap: square"/>
     </g>
     <g id="line2d_16">
      <g>
       <use xlink:href="#mac6767546c" x="306.742978" y="248.2" style="stroke: #000000; stroke-width: 0.8"/>
      </g>
     </g>
     <g id="text_8">
      <!-- 175 -->
      <g transform="translate(297.199228 262.798438) scale(0.1 -0.1)">
       <use xlink:href="#DejaVuSans-31"/>
       <use xlink:href="#DejaVuSans-37" transform="translate(63.623047 0)"/>
       <use xlink:href="#DejaVuSans-35" transform="translate(127.246094 0)"/>
      </g>
     </g>
    </g>
    <g id="xtick_9">
     <g id="line2d_17">
      <path d="M 342.08196 248.2 
L 342.08196 25.8 
" clip-path="url(#pae12595758)" style="fill: none; stroke: #b0b0b0; stroke-opacity: 0.3; stroke-width: 0.8; stroke-linecap: square"/>
     </g>
     <g id="line2d_18">
      <g>
       <use xlink:href="#mac6767546c" x="342.08196" y="248.2" style="stroke: #000000; stroke-width: 0.8"/>
      </g>
     </g>
     <g id="text_9">
      <!-- 200 -->
      <g transform="translate(332.53821 262.798438) scale(0.1 -0.1)">
       <use xlink:href="#DejaVuSans-32"/>
       <use xlink:href="#DejaVuSans-30" transform="translate(63.623047 0)"/>
       <use xlink:href="#DejaVuSans-30" transform="translate(127.246094 0)"/>
      </g>
     </g>
    </g>
    <g id="text_10">
     <!-- step -->
     <g transform="translate(190.617187 276.476562) scale(0.1 -0.1)">
      <defs>
       <path id="DejaVuSans-73" d="M 2834 3397 
L 2834 2853 
Q 2591 2978 2328 3040 
Q 2066 3103 1784 3103 
Q 1356 3103 1142 2972 
Q 928 2841 928 2578 
Q 928 2378 1081 2264 
Q 1234 2150 1697 2047 
L 1894 2003 
Q 2506 1872 2764 1633 
Q 3022 1394 3022 966 
Q 3022 478 2636 193 
Q 2250 -91 1575 -91 
Q 1294 -91 989 -36 
Q 684 19 347 128 
L 347 722 
Q 666 556 975 473 
Q 1284 391 1588 391 
Q 1994 391 2212 530 
Q 2431 669 2431 922 
Q 2431 1156 2273 1281 
Q 2116 1406 1581 1522 
L 1381 1569 
Q 847 1681 609 1914 
Q 372 2147 372 2553 
Q 372 3047 722 3315 
Q 1072 3584 1716 3584 
Q 2034 3584 2315 3537 
Q 2597 3491 2834 3397 
z
" transform="scale(0.015625)"/>
       <path id="DejaVuSans-74" d="M 1172 4494 
L 1172 3500 
L 2356 3500 
L 2356 3053 
L 1172 3053 
L 1172 1153 
Q 1172 725 1289 603 
Q 1406 481 1766 481 
L 2356 481 
L 2356 0 
L 1766 0 
Q 1100 0 847 248 
Q 594 497 594 1153 
L 594 3053 
L 172 3053 
L 172 3500 
L 594 3500 
L 594 4494 
L 1172 4494 
z
" transform="scale(0.015625)"/>
       <path id="DejaVuSans-65" d="M 3597 1894 
L 3597 1613 
L 953 1613 
Q 991 1019 1311 708 
Q 1631 397 2203 397 
Q 2534 397 2845 478 
Q 3156 559 3463 722 
L 3463 178 
Q 3153 47 2828 -22 
Q 2503 -91 2169 -91 
Q 1331 -91 842 396 
Q 353 884 353 1716 
Q 353 2575 817 3079 
Q 1281 3584 2069 3584 
Q 2775 3584 3186 3129 
Q 3597 2675 3597 1894 
z
M 3022 2063 
Q 3016 2534 2758 2815 
Q 2500 3097 2075 3097 
Q 1594 3097 1305 2825 
Q 1016 2553 972 2059 
L 3022 2063 
z
" transform="scale(0.015625)"/>
       <path id="DejaVuSans-70" d="M 1159 525 
L 1159 -1331 
L 581 -1331 
L 581 3500 
L 1159 3500 
L 1159 2969 
Q 1341 3281 1617 3432 
Q 1894 3584 2278 3584 
Q 2916 3584 3314 3078 
Q 3713 2572 3713 1747 
Q 3713 922 3314 415 
Q 2916 -91 2278 -91 
Q 1894 -91 1617 61 
Q 1341 213 1159 525 
z
M 3116 1747 
Q 3116 2381 2855 2742 
Q 2594 3103 2138 3103 
Q 1681 3103 1420 2742 
Q 1159 2381 1159 1747 
Q 1159 1113 1420 752 
Q 1681 391 2138 391 
Q 2594 391 2855 752 
Q 3116 1113 3116 1747 
z
" transform="scale(0.015625)"/>
      </defs>
      <use xlink:href="#DejaVuSans-73"/>
      <use xlink:href="#DejaVuSans-74" transform="translate(52.099609 0)"/>
      <use xlink:href="#DejaVuSans-65" transform="translate(91.308594 0)"/>
      <use xlink:href="#DejaVuSans-70" transform="translate(152.832031 0)"/>
     </g>
    </g>
   </g>
   <g id="matplotlib.axis_2">
    <g id="ytick_1">
     <g id="line2d_19">
      <path d="M 46.71875 237.73429 
L 356.146875 237.73429 
" clip-path="url(#pae12595758)" style="fill: none; stroke: #b0b0b0; stroke-opacity: 0.3; stroke-width: 0.8; stroke-linecap: square"/>
     </g>
     <g id="line2d_20">
      <defs>
       <path id="m8d8b699866" d="M 0 0 
L -3.5 0 
" style="stroke: #000000; stroke-width: 0.8"/>
      </defs>
      <g>
       <use xlink:href="#m8d8b699866" x="46.71875" y="237.73429" style="stroke: #000000; stroke-width: 0.8"/>
      </g>
     </g>
     <g id="text_11">
      <!-- 1.5 -->
      <g transform="translate(23.815625 241.533508) scale(0.1 -0.1)">
       <defs>
        <path id="DejaVuSans-2e" d="M 684 794 
L 1344 794 
L 1344 0 
L 684 0 
L 684 794 
z
" transform="scale(0.015625)"/>
       </defs>
       <use xlink:href="#DejaVuSans-31"/>
       <use xlink:href="#DejaVuSans-2e" transform="translate(63.623047 0)"/>
       <use xlink:href="#DejaVuSans-35" transform="translate(95.410156 0)"/>
      </g>
     </g>
    </g>
    <g id="ytick_2">
     <g id="line2d_21">
      <path d="M 46.71875 200.099802 
L 356.146875 200.099802 
" clip-path="url(#pae12595758)" style="fill: none; stroke: #b0b0b0; stroke-opacity: 0.3; stroke-width: 0.8; stroke-linecap: square"/>
     </g>
     <g id="line2d_22">
      <g>
       <use xlink:href="#m8d8b699866" x="46.71875" y="200.099802" style="stroke: #000000; stroke-width: 0.8"/>
      </g>
     </g>
     <g id="text_12">
      <!-- 2.0 -->
      <g transform="translate(23.815625 203.899021) scale(0.1 -0.1)">
       <use xlink:href="#DejaVuSans-32"/>
       <use xlink:href="#DejaVuSans-2e" transform="translate(63.623047 0)"/>
       <use xlink:href="#DejaVuSans-30" transform="translate(95.410156 0)"/>
      </g>
     </g>
    </g>
    <g id="ytick_3">
     <g id="line2d_23">
      <path d="M 46.71875 162.465315 
L 356.146875 162.465315 
" clip-path="url(#pae12595758)" style="fill: none; stroke: #b0b0b0; stroke-opacity: 0.3; stroke-width: 0.8; stroke-linecap: square"/>
     </g>
     <g id="line2d_24">
      <g>
       <use xlink:href="#m8d8b699866" x="46.71875" y="162.465315" style="stroke: #000000; stroke-width: 0.8"/>
      </g>
     </g>
     <g id="text_13">
      <!-- 2.5 -->
      <g transform="translate(23.815625 166.264534) scale(0.1 -0.1)">
       <use xlink:href="#DejaVuSans-32"/>
       <use xlink:href="#DejaVuSans-2e" transform="translate(63.623047 0)"/>
       <use xlink:href="#DejaVuSans-35" transform="translate(95.410156 0)"/>
      </g>
     </g>
    </g>
    <g id="ytick_4">
     <g id="line2d_25">
      <path d="M 46.71875 124.830827 
L 356.146875 124.830827 
" clip-path="url(#pae12595758)" style="fill: none; stroke: #b0b0b0; stroke-opacity: 0.3; stroke-width: 0.8; stroke-linecap: square"/>
     </g>
     <g id="line2d_26">
      <g>
       <use xlink:href="#m8d8b699866" x="46.71875" y="124.830827" style="stroke: #000000; stroke-width: 0.8"/>
      </g>
     </g>
     <g id="text_14">
      <!-- 3.0 -->
      <g transform="translate(23.815625 128.630046) scale(0.1 -0.1)">
       <defs>
        <path id="DejaVuSans-33" d="M 2597 2516 
Q 3050 2419 3304 2112 
Q 3559 1806 3559 1356 
Q 3559 666 3084 287 
Q 2609 -91 1734 -91 
Q 1441 -91 1130 -33 
Q 819 25 488 141 
L 488 750 
Q 750 597 1062 519 
Q 1375 441 1716 441 
Q 2309 441 2620 675 
Q 2931 909 2931 1356 
Q 2931 1769 2642 2001 
Q 2353 2234 1838 2234 
L 1294 2234 
L 1294 2753 
L 1863 2753 
Q 2328 2753 2575 2939 
Q 2822 3125 2822 3475 
Q 2822 3834 2567 4026 
Q 2313 4219 1838 4219 
Q 1578 4219 1281 4162 
Q 984 4106 628 3988 
L 628 4550 
Q 988 4650 1302 4700 
Q 1616 4750 1894 4750 
Q 2613 4750 3031 4423 
Q 3450 4097 3450 3541 
Q 3450 3153 3228 2886 
Q 3006 2619 2597 2516 
z
" transform="scale(0.015625)"/>
       </defs>
       <use xlink:href="#DejaVuSans-33"/>
       <use xlink:href="#DejaVuSans-2e" transform="translate(63.623047 0)"/>
       <use xlink:href="#DejaVuSans-30" transform="translate(95.410156 0)"/>
      </g>
     </g>
    </g>
    <g id="ytick_5">
     <g id="line2d_27">
      <path d="M 46.71875 87.19634 
L 356.146875 87.19634 
" clip-path="url(#pae12595758)" style="fill: none; stroke: #b0b0b0; stroke-opacity: 0.3; stroke-width: 0.8; stroke-linecap: square"/>
     </g>
     <g id="line2d_28">
      <g>
       <use xlink:href="#m8d8b699866" x="46.71875" y="87.19634" style="stroke: #000000; stroke-width: 0.8"/>
      </g>
     </g>
     <g id="text_15">
      <!-- 3.5 -->
      <g transform="translate(23.815625 90.995559) scale(0.1 -0.1)">
       <use xlink:href="#DejaVuSans-33"/>
       <use xlink:href="#DejaVuSans-2e" transform="translate(63.623047 0)"/>
       <use xlink:href="#DejaVuSans-35" transform="translate(95.410156 0)"/>
      </g>
     </g>
    </g>
    <g id="ytick_6">
     <g id="line2d_29">
      <path d="M 46.71875 49.561853 
L 356.146875 49.561853 
" clip-path="url(#pae12595758)" style="fill: none; stroke: #b0b0b0; stroke-opacity: 0.3; stroke-width: 0.8; stroke-linecap: square"/>
     </g>
     <g id="line2d_30">
      <g>
       <use xlink:href="#m8d8b699866" x="46.71875" y="49.561853" style="stroke: #000000; stroke-width: 0.8"/>
      </g>
     </g>
     <g id="text_16">
      <!-- 4.0 -->
      <g transform="translate(23.815625 53.361071) scale(0.1 -0.1)">
       <defs>
        <path id="DejaVuSans-34" d="M 2419 4116 
L 825 1625 
L 2419 1625 
L 2419 4116 
z
M 2253 4666 
L 3047 4666 
L 3047 1625 
L 3713 1625 
L 3713 1100 
L 3047 1100 
L 3047 0 
L 2419 0 
L 2419 1100 
L 313 1100 
L 313 1709 
L 2253 4666 
z
" transform="scale(0.015625)"/>
       </defs>
       <use xlink:href="#DejaVuSans-34"/>
       <use xlink:href="#DejaVuSans-2e" transform="translate(63.623047 0)"/>
       <use xlink:href="#DejaVuSans-30" transform="translate(95.410156 0)"/>
      </g>
     </g>
    </g>
    <g id="text_17">
     <!-- loss -->
     <g transform="translate(17.735937 146.657813) rotate(-90) scale(0.1 -0.1)">
      <defs>
       <path id="DejaVuSans-6c" d="M 603 4863 
L 1178 4863 
L 1178 0 
L 603 0 
L 603 4863 
z
" transform="scale(0.015625)"/>
       <path id="DejaVuSans-6f" d="M 1959 3097 
Q 1497 3097 1228 2736 
Q 959 2375 959 1747 
Q 959 1119 1226 758 
Q 1494 397 1959 397 
Q 2419 397 2687 759 
Q 2956 1122 2956 1747 
Q 2956 2369 2687 2733 
Q 2419 3097 1959 3097 
z
M 1959 3584 
Q 2709 3584 3137 3096 
Q 3566 2609 3566 1747 
Q 3566 888 3137 398 
Q 2709 -91 1959 -91 
Q 1206 -91 779 398 
Q 353 888 353 1747 
Q 353 2609 779 3096 
Q 1206 3584 1959 3584 
z
" transform="scale(0.015625)"/>
      </defs>
      <use xlink:href="#DejaVuSans-6c"/>
      <use xlink:href="#DejaVuSans-6f" transform="translate(27.783203 0)"/>
      <use xlink:href="#DejaVuSans-73" transform="translate(88.964844 0)"/>
      <use xlink:href="#DejaVuSans-73" transform="translate(141.064453 0)"/>
     </g>
    </g>
   </g>
   <g id="line2d_31">
    <path d="M 60.783665 35.909091 
L 62.197224 64.688438 
L 63.610783 60.397628 
L 65.024343 81.562948 
L 66.437902 85.584108 
L 67.851461 93.04399 
L 69.26502 112.445773 
L 70.67858 117.98223 
L 73.505698 133.48408 
L 74.919258 137.83097 
L 79.159935 154.507463 
L 80.573495 157.452335 
L 81.987054 161.240892 
L 84.814172 167.245153 
L 86.227732 168.387887 
L 87.641291 171.724582 
L 89.05485 173.02769 
L 90.46841 176.455608 
L 91.881969 177.690332 
L 93.295528 179.988579 
L 94.709087 181.014913 
L 96.122647 184.13753 
L 97.536206 183.658707 
L 98.949765 186.294869 
L 100.363324 186.006945 
L 101.776884 188.897932 
L 103.190443 191.07467 
L 104.604002 190.917563 
L 106.017562 192.786362 
L 107.431121 193.769065 
L 108.84468 195.316112 
L 110.258239 196.691565 
L 111.671799 195.901429 
L 113.085358 197.223757 
L 114.498917 199.78511 
L 115.912476 198.642339 
L 117.326036 201.291466 
L 118.739595 201.354819 
L 120.153154 202.8991 
L 121.566714 203.054365 
L 122.980273 204.719557 
L 124.393832 202.839563 
L 125.807391 204.505999 
L 127.220951 207.874873 
L 128.63451 206.465061 
L 130.048069 207.107986 
L 131.461628 207.594528 
L 132.875188 208.551007 
L 134.288747 209.673756 
L 135.702306 209.986532 
L 137.115866 211.974582 
L 138.529425 210.40725 
L 141.356543 213.140044 
L 142.770103 213.909261 
L 144.183662 212.619466 
L 145.597221 213.692886 
L 147.01078 214.101476 
L 148.42434 213.933966 
L 149.837899 215.282958 
L 151.251458 217.282526 
L 152.665018 215.249379 
L 154.078577 216.947055 
L 155.492136 216.288042 
L 156.905695 216.826925 
L 158.319255 217.636244 
L 159.732814 217.644607 
L 161.146373 218.739945 
L 162.559932 218.234982 
L 163.973492 218.667534 
L 165.387051 218.872975 
L 166.80061 219.629486 
L 168.21417 218.539858 
L 169.627729 220.207218 
L 171.041288 221.542395 
L 172.454847 221.456131 
L 173.868407 219.571205 
L 175.281966 222.133108 
L 176.695525 222.176031 
L 178.109084 222.962819 
L 179.522644 222.492392 
L 180.936203 221.740053 
L 182.349762 224.649522 
L 183.763322 224.792081 
L 185.176881 223.904259 
L 186.59044 223.948474 
L 188.003999 222.831808 
L 189.417559 224.241767 
L 190.831118 224.348297 
L 192.244677 225.610477 
L 193.658236 225.780314 
L 195.071796 225.248531 
L 196.485355 224.592377 
L 197.898914 226.595376 
L 199.312474 226.184878 
L 200.726033 225.475521 
L 202.139592 225.497454 
L 203.553151 226.214835 
L 204.966711 225.30546 
L 206.38027 226.397131 
L 207.793829 226.993033 
L 209.207389 226.921604 
L 210.620948 226.110332 
L 212.034507 226.227107 
L 213.448066 227.879312 
L 216.275185 227.33713 
L 217.688744 225.995062 
L 219.102303 227.717638 
L 220.515863 229.696691 
L 221.929422 228.45577 
L 223.342981 229.260417 
L 224.756541 227.021908 
L 226.1701 229.110898 
L 227.583659 227.4188 
L 228.997218 230.315449 
L 230.410778 229.050526 
L 231.824337 230.77851 
L 233.237896 229.059765 
L 234.651455 230.144408 
L 236.065015 231.705052 
L 237.478574 228.636816 
L 238.892133 231.283305 
L 240.305693 229.883587 
L 241.719252 230.18812 
L 243.132811 230.148909 
L 244.54637 230.346672 
L 245.95993 231.135593 
L 247.373489 230.399787 
L 248.787048 230.559491 
L 250.200607 229.970378 
L 251.614167 232.044294 
L 254.441285 233.071711 
L 257.268404 232.118358 
L 258.681963 233.619713 
L 260.095522 230.146884 
L 261.509082 231.248054 
L 262.922641 231.919731 
L 264.3362 232.839475 
L 265.749759 232.845804 
L 267.163319 231.831936 
L 268.576878 232.818129 
L 269.990437 232.219484 
L 271.403997 231.02643 
L 272.817556 232.140276 
L 274.231115 230.926575 
L 275.644674 233.666809 
L 277.058234 231.469936 
L 278.471793 234.151221 
L 279.885352 233.785282 
L 281.298911 231.692798 
L 282.712471 232.356244 
L 284.12603 233.615867 
L 285.539589 233.877333 
L 286.953149 233.171949 
L 288.366708 233.300131 
L 289.780267 235.73943 
L 291.193826 233.311149 
L 292.607386 232.286909 
L 294.020945 234.579793 
L 295.434504 235.064944 
L 296.848063 233.588064 
L 298.261623 233.796961 
L 299.675182 237.347393 
L 301.088741 235.055565 
L 302.502301 235.193969 
L 303.91586 234.019274 
L 305.329419 234.988951 
L 306.742978 232.837531 
L 308.156538 235.052983 
L 309.570097 234.488782 
L 310.983656 234.793246 
L 312.397215 236.755257 
L 313.810775 234.316233 
L 315.224334 233.981008 
L 316.637893 235.3606 
L 318.051453 234.708011 
L 319.465012 235.844931 
L 320.878571 237.207337 
L 322.29213 234.774538 
L 323.70569 234.842847 
L 325.119249 235.315027 
L 326.532808 232.703774 
L 327.946367 236.558263 
L 329.359927 235.83787 
L 330.773486 235.406089 
L 332.187045 238.090909 
L 333.600605 236.848714 
L 335.014164 236.978236 
L 336.427723 236.492376 
L 337.841282 237.191841 
L 339.254842 236.919605 
L 340.668401 235.669879 
L 342.08196 236.299411 
L 342.08196 236.299411 
" clip-path="url(#pae12595758)" style="fill: none; stroke: #1f77b4; stroke-width: 1.5; stroke-linecap: square"/>
   </g>
   <g id="line2d_32">
    <path d="M 60.783665 35.909091 
L 62.197224 64.688193 
L 63.610783 56.884942 
L 65.024343 80.353898 
L 66.437902 72.543779 
L 67.851461 97.237428 
L 70.67858 105.349695 
L 72.092139 110.162128 
L 73.505698 114.466798 
L 74.919258 116.531018 
L 76.332817 122.780994 
L 77.746376 124.688866 
L 79.159935 131.314198 
L 80.573495 133.838582 
L 81.987054 138.13675 
L 83.400613 139.729212 
L 84.814172 143.330465 
L 86.227732 144.793677 
L 87.641291 149.178432 
L 89.05485 150.012666 
L 91.881969 155.776965 
L 93.295528 157.472153 
L 94.709087 158.084053 
L 96.122647 161.482959 
L 97.536206 162.397008 
L 98.949765 164.883911 
L 100.363324 165.047687 
L 101.776884 167.862395 
L 103.190443 169.988383 
L 104.604002 169.998492 
L 106.017562 171.654702 
L 107.431121 173.115486 
L 108.84468 173.717815 
L 110.258239 175.795518 
L 111.671799 175.43062 
L 113.085358 176.459861 
L 114.498917 178.19621 
L 115.912476 178.219126 
L 117.326036 180.396546 
L 118.739595 179.510773 
L 120.153154 181.912303 
L 121.566714 182.426358 
L 122.980273 184.150447 
L 124.393832 182.1058 
L 127.220951 186.5615 
L 128.63451 184.238629 
L 130.048069 185.653047 
L 132.875188 186.944326 
L 135.702306 188.738367 
L 137.115866 190.125702 
L 138.529425 190.626008 
L 139.942984 191.339929 
L 141.356543 191.280918 
L 142.770103 193.05725 
L 144.183662 191.922363 
L 145.597221 193.13673 
L 147.01078 192.616445 
L 148.42434 193.009263 
L 149.837899 194.265061 
L 151.251458 195.01618 
L 152.665018 193.982356 
L 154.078577 196.081229 
L 155.492136 195.486834 
L 156.905695 195.580881 
L 158.319255 195.810212 
L 159.732814 196.652752 
L 161.146373 197.082586 
L 162.559932 196.29857 
L 163.973492 198.010103 
L 165.387051 198.48516 
L 166.80061 198.398627 
L 168.21417 198.099929 
L 169.627729 198.828868 
L 171.041288 200.737431 
L 172.454847 200.453156 
L 173.868407 199.498843 
L 175.281966 201.674857 
L 176.695525 202.020203 
L 178.109084 202.086464 
L 179.522644 201.352017 
L 180.936203 201.195634 
L 182.349762 202.99539 
L 183.763322 203.015031 
L 185.176881 203.662814 
L 186.59044 202.682226 
L 188.003999 202.147844 
L 189.417559 203.720066 
L 190.831118 203.566982 
L 192.244677 204.800075 
L 193.658236 204.702775 
L 196.485355 205.162835 
L 197.898914 206.100982 
L 199.312474 205.895593 
L 200.726033 206.10988 
L 202.139592 205.456995 
L 203.553151 205.970548 
L 204.966711 205.552068 
L 206.38027 206.915428 
L 207.793829 207.39743 
L 209.207389 206.613536 
L 210.620948 206.609774 
L 212.034507 207.110173 
L 213.448066 208.108978 
L 214.861626 207.872821 
L 216.275185 207.777166 
L 217.688744 206.61097 
L 220.515863 209.281503 
L 221.929422 209.70427 
L 223.342981 209.555106 
L 224.756541 208.876096 
L 226.1701 208.844643 
L 227.583659 209.118513 
L 228.997218 211.448876 
L 230.410778 210.055772 
L 231.824337 212.166575 
L 233.237896 210.183092 
L 234.651455 210.232568 
L 236.065015 212.522052 
L 237.478574 209.005531 
L 238.892133 212.093949 
L 241.719252 210.533146 
L 243.132811 211.74204 
L 244.54637 211.518296 
L 247.373489 211.523353 
L 248.787048 211.814331 
L 250.200607 211.78295 
L 251.614167 213.575478 
L 253.027726 213.507051 
L 254.441285 214.540229 
L 255.854845 213.160724 
L 257.268404 213.989239 
L 258.681963 215.403121 
L 260.095522 212.293058 
L 261.509082 213.503002 
L 262.922641 212.909448 
L 264.3362 214.665148 
L 265.749759 214.406047 
L 267.163319 213.74637 
L 268.576878 214.888324 
L 269.990437 213.896616 
L 272.817556 214.42061 
L 274.231115 213.026452 
L 275.644674 215.742387 
L 277.058234 213.684859 
L 278.471793 216.515274 
L 281.298911 214.118222 
L 284.12603 215.867267 
L 285.539589 215.681824 
L 286.953149 216.49033 
L 288.366708 216.610589 
L 289.780267 218.449425 
L 291.193826 215.850007 
L 292.607386 215.305205 
L 294.020945 217.168584 
L 296.848063 216.872605 
L 298.261623 217.001347 
L 299.675182 219.745286 
L 301.088741 217.307016 
L 302.502301 218.561895 
L 303.91586 216.61381 
L 305.329419 217.301112 
L 306.742978 217.363717 
L 308.156538 217.586604 
L 309.570097 217.477241 
L 310.983656 218.059791 
L 312.397215 219.14074 
L 313.810775 217.716188 
L 315.224334 217.301417 
L 316.637893 219.558775 
L 318.051453 217.991778 
L 319.465012 218.372591 
L 320.878571 220.151237 
L 322.29213 218.337923 
L 323.70569 219.175261 
L 325.119249 219.566207 
L 326.532808 216.97767 
L 327.946367 219.260338 
L 330.773486 218.676929 
L 332.187045 221.228863 
L 333.600605 220.248209 
L 335.014164 219.824913 
L 336.427723 220.248628 
L 337.841282 221.05309 
L 339.254842 220.887742 
L 340.668401 219.233823 
L 342.08196 220.09202 
L 342.08196 220.09202 
" clip-path="url(#pae12595758)" style="fill: none; stroke: #ff7f0e; stroke-width: 1.5; stroke-linecap: square"/>
   </g>
   <g id="line2d_33">
    <path d="M 60.783665 35.909091 
L 62.197224 64.688193 
L 63.610783 56.884942 
L 65.024343 80.353898 
L 66.437902 72.543779 
L 67.851461 97.237428 
L 70.67858 105.349695 
L 72.092139 110.162128 
L 73.505698 114.466798 
L 74.919258 116.531018 
L 76.332817 122.780994 
L 77.746376 124.688866 
L 79.159935 131.314198 
L 80.573495 133.838582 
L 81.987054 138.13675 
L 83.400613 139.729212 
L 84.814172 143.330465 
L 86.227732 144.793677 
L 87.641291 149.178432 
L 89.05485 150.012666 
L 91.881969 155.776965 
L 93.295528 157.472153 
L 94.709087 158.084053 
L 96.122647 161.482959 
L 97.536206 162.397008 
L 98.949765 164.883911 
L 100.363324 165.047687 
L 101.776884 167.862395 
L 103.190443 169.988383 
L 104.604002 169.998492 
L 106.017562 171.654702 
L 107.431121 173.115486 
L 108.84468 173.717815 
L 110.258239 175.795518 
L 111.671799 175.43062 
L 113.085358 176.459861 
L 114.498917 178.19621 
L 115.912476 178.219126 
L 117.326036 180.396546 
L 118.739595 179.510773 
L 120.153154 181.912303 
L 121.566714 182.426358 
L 122.980273 184.150447 
L 124.393832 182.1058 
L 127.220951 186.5615 
L 128.63451 184.238629 
L 130.048069 185.653047 
L 132.875188 186.944326 
L 135.702306 188.738367 
L 137.115866 190.125702 
L 138.529425 190.626008 
L 139.942984 191.339929 
L 141.356543 191.280918 
L 142.770103 193.05725 
L 144.183662 191.922363 
L 145.597221 193.13673 
L 147.01078 192.616445 
L 148.42434 193.009263 
L 149.837899 194.265061 
L 151.251458 195.01618 
L 152.665018 193.982356 
L 154.078577 196.081229 
L 155.492136 195.486834 
L 156.905695 195.580881 
L 158.319255 195.810212 
L 159.732814 196.652752 
L 161.146373 197.082586 
L 162.559932 196.29857 
L 163.973492 198.010103 
L 165.387051 198.48516 
L 166.80061 198.398627 
L 168.21417 198.099929 
L 169.627729 198.828868 
L 171.041288 200.737431 
L 172.454847 200.453156 
L 173.868407 199.498843 
L 175.281966 201.674857 
L 176.695525 202.020203 
L 178.109084 202.086464 
L 179.522644 201.352017 
L 180.936203 201.195634 
L 182.349762 202.99539 
L 183.763322 203.015031 
L 185.176881 203.662814 
L 186.59044 202.682226 
L 188.003999 202.147844 
L 189.417559 203.720066 
L 190.831118 203.566982 
L 192.244677 204.800075 
L 193.658236 204.702775 
L 196.485355 205.162835 
L 197.898914 206.100982 
L 199.312474 205.895593 
L 200.726033 206.10988 
L 202.139592 205.456995 
L 203.553151 205.970548 
L 204.966711 205.552068 
L 206.38027 206.915428 
L 207.793829 207.39743 
L 209.207389 206.613536 
L 210.620948 206.609774 
L 212.034507 207.110173 
L 213.448066 208.108978 
L 214.861626 207.872821 
L 216.275185 207.777166 
L 217.688744 206.61097 
L 220.515863 209.281503 
L 221.929422 209.70427 
L 223.342981 209.555106 
L 224.756541 208.876096 
L 226.1701 208.844643 
L 227.583659 209.118513 
L 228.997218 211.448876 
L 230.410778 210.055772 
L 231.824337 212.166575 
L 233.237896 210.183092 
L 234.651455 210.232568 
L 236.065015 212.522052 
L 237.478574 209.005531 
L 238.892133 212.093949 
L 241.719252 210.533146 
L 243.132811 211.74204 
L 244.54637 211.518296 
L 247.373489 211.523353 
L 248.787048 211.814331 
L 250.200607 211.78295 
L 251.614167 213.575478 
L 253.027726 213.507051 
L 254.441285 214.540229 
L 255.854845 213.160724 
L 257.268404 213.989239 
L 258.681963 215.403121 
L 260.095522 212.293058 
L 261.509082 213.503002 
L 262.922641 212.909448 
L 264.3362 214.665148 
L 265.749759 214.406047 
L 267.163319 213.74637 
L 268.576878 214.888324 
L 269.990437 213.896616 
L 272.817556 214.42061 
L 274.231115 213.026452 
L 275.644674 215.742387 
L 277.058234 213.684859 
L 278.471793 216.515274 
L 281.298911 214.118222 
L 284.12603 215.867267 
L 285.539589 215.681824 
L 286.953149 216.49033 
L 288.366708 216.610589 
L 289.780267 218.449425 
L 291.193826 215.850007 
L 292.607386 215.305205 
L 294.020945 217.168584 
L 296.848063 216.872605 
L 298.261623 217.001347 
L 299.675182 219.745286 
L 301.088741 217.307016 
L 302.502301 218.561895 
L 303.91586 216.61381 
L 305.329419 217.301112 
L 306.742978 217.363717 
L 308.156538 217.586604 
L 309.570097 217.477241 
L 310.983656 218.059791 
L 312.397215 219.14074 
L 313.810775 217.716188 
L 315.224334 217.301417 
L 316.637893 219.558775 
L 318.051453 217.991778 
L 319.465012 218.372591 
L 320.878571 220.151237 
L 322.29213 218.337923 
L 323.70569 219.175261 
L 325.119249 219.566207 
L 326.532808 216.97767 
L 327.946367 219.260338 
L 330.773486 218.676929 
L 332.187045 221.228863 
L 333.600605 220.248209 
L 335.014164 219.824913 
L 336.427723 220.248628 
L 337.841282 221.05309 
L 339.254842 220.887742 
L 340.668401 219.233823 
L 342.08196 220.09202 
L 342.08196 220.09202 
" clip-path="url(#pae12595758)" style="fill: none; stroke: #2ca02c; stroke-width: 1.5; stroke-linecap: square"/>
   </g>
   <g id="line2d_34">
    <path d="M 60.783665 35.909091 
L 62.197224 64.688193 
L 63.610783 56.884942 
L 65.024343 80.353898 
L 66.437902 72.543779 
L 67.851461 97.237428 
L 70.67858 105.349695 
L 72.092139 110.162128 
L 73.505698 114.466798 
L 74.919258 116.531018 
L 76.332817 122.780994 
L 77.746376 124.688866 
L 79.159935 131.314198 
L 80.573495 133.838582 
L 81.987054 138.13675 
L 83.400613 139.729212 
L 84.814172 143.330465 
L 86.227732 144.793677 
L 87.641291 149.178432 
L 89.05485 150.012666 
L 91.881969 155.776965 
L 93.295528 157.472153 
L 94.709087 158.084053 
L 96.122647 161.482959 
L 97.536206 162.397008 
L 98.949765 164.883911 
L 100.363324 165.047687 
L 101.776884 167.862395 
L 103.190443 169.988383 
L 104.604002 169.998492 
L 106.017562 171.654702 
L 107.431121 173.115486 
L 108.84468 173.717815 
L 110.258239 175.795518 
L 111.671799 175.43062 
L 113.085358 176.459861 
L 114.498917 178.19621 
L 115.912476 178.219126 
L 117.326036 180.396546 
L 118.739595 179.510773 
L 120.153154 181.912303 
L 121.566714 182.426358 
L 122.980273 184.150447 
L 124.393832 182.1058 
L 127.220951 186.5615 
L 128.63451 184.238629 
L 130.048069 185.653047 
L 132.875188 186.944326 
L 135.702306 188.738367 
L 137.115866 190.125702 
L 138.529425 190.626008 
L 139.942984 191.339929 
L 141.356543 191.280918 
L 142.770103 193.05725 
L 144.183662 191.922363 
L 145.597221 193.13673 
L 147.01078 192.616445 
L 148.42434 193.009263 
L 149.837899 194.265061 
L 151.251458 195.01618 
L 152.665018 193.982356 
L 154.078577 196.081229 
L 155.492136 195.486834 
L 156.905695 195.580881 
L 158.319255 195.810212 
L 159.732814 196.652752 
L 161.146373 197.082586 
L 162.559932 196.29857 
L 163.973492 198.010103 
L 165.387051 198.48516 
L 166.80061 198.398627 
L 168.21417 198.099929 
L 169.627729 198.828868 
L 171.041288 200.737431 
L 172.454847 200.453156 
L 173.868407 199.498843 
L 175.281966 201.674857 
L 176.695525 202.020203 
L 178.109084 202.086464 
L 179.522644 201.352017 
L 180.936203 201.195634 
L 182.349762 202.99539 
L 183.763322 203.015031 
L 185.176881 203.662814 
L 186.59044 202.682226 
L 188.003999 202.147844 
L 189.417559 203.720066 
L 190.831118 203.566982 
L 192.244677 204.800075 
L 193.658236 204.702775 
L 196.485355 205.162835 
L 197.898914 206.100982 
L 199.312474 205.895593 
L 200.726033 206.10988 
L 202.139592 205.456995 
L 203.553151 205.970548 
L 204.966711 205.552068 
L 206.38027 206.915428 
L 207.793829 207.39743 
L 209.207389 206.613536 
L 210.620948 206.609774 
L 212.034507 207.110173 
L 213.448066 208.108978 
L 214.861626 207.872821 
L 216.275185 207.777166 
L 217.688744 206.61097 
L 220.515863 209.281503 
L 221.929422 209.70427 
L 223.342981 209.555106 
L 224.756541 208.876096 
L 226.1701 208.844643 
L 227.583659 209.118513 
L 228.997218 211.448876 
L 230.410778 210.055772 
L 231.824337 212.166575 
L 233.237896 210.183092 
L 234.651455 210.232568 
L 236.065015 212.522052 
L 237.478574 209.005531 
L 238.892133 212.093949 
L 241.719252 210.533146 
L 243.132811 211.74204 
L 244.54637 211.518296 
L 247.373489 211.523353 
L 248.787048 211.814331 
L 250.200607 211.78295 
L 251.614167 213.575478 
L 253.027726 213.507051 
L 254.441285 214.540229 
L 255.854845 213.160724 
L 257.268404 213.989239 
L 258.681963 215.403121 
L 260.095522 212.293058 
L 261.509082 213.503002 
L 262.922641 212.909448 
L 264.3362 214.665148 
L 265.749759 214.406047 
L 267.163319 213.74637 
L 268.576878 214.888324 
L 269.990437 213.896616 
L 272.817556 214.42061 
L 274.231115 213.026452 
L 275.644674 215.742387 
L 277.058234 213.684859 
L 278.471793 216.515274 
L 281.298911 214.118222 
L 284.12603 215.867267 
L 285.539589 215.681824 
L 286.953149 216.49033 
L 288.366708 216.610589 
L 289.780267 218.449425 
L 291.193826 215.850007 
L 292.607386 215.305205 
L 294.020945 217.168584 
L 296.848063 216.872605 
L 298.261623 217.001347 
L 299.675182 219.745286 
L 301.088741 217.307016 
L 302.502301 218.561895 
L 303.91586 216.61381 
L 305.329419 217.301112 
L 306.742978 217.363717 
L 308.156538 217.586604 
L 309.570097 217.477241 
L 310.983656 218.059791 
L 312.397215 219.14074 
L 313.810775 217.716188 
L 315.224334 217.301417 
L 316.637893 219.558775 
L 318.051453 217.991778 
L 319.465012 218.372591 
L 320.878571 220.151237 
L 322.29213 218.337923 
L 323.70569 219.175261 
L 325.119249 219.566207 
L 326.532808 216.97767 
L 327.946367 219.260338 
L 330.773486 218.676929 
L 332.187045 221.228863 
L 333.600605 220.248209 
L 335.014164 219.824913 
L 336.427723 220.248628 
L 337.841282 221.05309 
L 339.254842 220.887742 
L 340.668401 219.233823 
L 342.08196 220.09202 
L 342.08196 220.09202 
" clip-path="url(#pae12595758)" style="fill: none; stroke: #d62728; stroke-width: 1.5; stroke-linecap: square"/>
   </g>
   <g id="patch_3">
    <path d="M 46.71875 248.2 
L 46.71875 25.8 
" style="fill: none; stroke: #000000; stroke-width: 0.8; stroke-linejoin: miter; stroke-linecap: square"/>
   </g>
   <g id="patch_4">
    <path d="M 356.146875 248.2 
L 356.146875 25.8 
" style="fill: none; stroke: #000000; stroke-width: 0.8; stroke-linejoin: miter; stroke-linecap: square"/>
   </g>
   <g id="patch_5">
    <path d="M 46.71875 248.2 
L 356.146875 248.2 
" style="fill: none; stroke: #000000; stroke-width: 0.8; stroke-linejoin: miter; stroke-linecap: square"/>
   </g>
   <g id="patch_6">
    <path d="M 46.71875 25.8 
L 356.146875 25.8 
" style="fill: none; stroke: #000000; stroke-width: 0.8; stroke-linejoin: miter; stroke-linecap: square"/>
   </g>
   <g id="text_18">
    <!-- Loss (pt, charlm) -->
    <g transform="translate(150.952187 19.8) scale(0.12 -0.12)">
     <defs>
      <path id="DejaVuSans-4c" d="M 628 4666 
L 1259 4666 
L 1259 531 
L 3531 531 
L 3531 0 
L 628 0 
L 628 4666 
z
" transform="scale(0.015625)"/>
      <path id="DejaVuSans-20" transform="scale(0.015625)"/>
      <path id="DejaVuSans-28" d="M 1984 4856 
Q 1566 4138 1362 3434 
Q 1159 2731 1159 2009 
Q 1159 1288 1364 580 
Q 1569 -128 1984 -844 
L 1484 -844 
Q 1016 -109 783 600 
Q 550 1309 550 2009 
Q 550 2706 781 3412 
Q 1013 4119 1484 4856 
L 1984 4856 
z
" transform="scale(0.015625)"/>
      <path id="DejaVuSans-2c" d="M 750 794 
L 1409 794 
L 1409 256 
L 897 -744 
L 494 -744 
L 750 256 
L 750 794 
z
" transform="scale(0.015625)"/>
      <path id="DejaVuSans-63" d="M 3122 3366 
L 3122 2828 
Q 2878 2963 2633 3030 
Q 2388 3097 2138 3097 
Q 1578 3097 1268 2742 
Q 959 2388 959 1747 
Q 959 1106 1268 751 
Q 1578 397 2138 397 
Q 2388 397 2633 464 
Q 2878 531 3122 666 
L 3122 134 
Q 2881 22 2623 -34 
Q 2366 -91 2075 -91 
Q 1284 -91 818 406 
Q 353 903 353 1747 
Q 353 2603 823 3093 
Q 1294 3584 2113 3584 
Q 2378 3584 2631 3529 
Q 2884 3475 3122 3366 
z
" transform="scale(0.015625)"/>
      <path id="DejaVuSans-68" d="M 3513 2113 
L 3513 0 
L 2938 0 
L 2938 2094 
Q 2938 2591 2744 2837 
Q 2550 3084 2163 3084 
Q 1697 3084 1428 2787 
Q 1159 2491 1159 1978 
L 1159 0 
L 581 0 
L 581 4863 
L 1159 4863 
L 1159 2956 
Q 1366 3272 1645 3428 
Q 1925 3584 2291 3584 
Q 2894 3584 3203 3211 
Q 3513 2838 3513 2113 
z
" transform="scale(0.015625)"/>
      <path id="DejaVuSans-61" d="M 2194 1759 
Q 1497 1759 1228 1600 
Q 959 1441 959 1056 
Q 959 750 1161 570 
Q 1363 391 1709 391 
Q 2188 391 2477 730 
Q 2766 1069 2766 1631 
L 2766 1759 
L 2194 1759 
z
M 3341 1997 
L 3341 0 
L 2766 0 
L 2766 531 
Q 2569 213 2275 61 
Q 1981 -91 1556 -91 
Q 1019 -91 701 211 
Q 384 513 384 1019 
Q 384 1609 779 1909 
Q 1175 2209 1959 2209 
L 2766 2209 
L 2766 2266 
Q 2766 2663 2505 2880 
Q 2244 3097 1772 3097 
Q 1472 3097 1187 3025 
Q 903 2953 641 2809 
L 641 3341 
Q 956 3463 1253 3523 
Q 1550 3584 1831 3584 
Q 2591 3584 2966 3190 
Q 3341 2797 3341 1997 
z
" transform="scale(0.015625)"/>
      <path id="DejaVuSans-72" d="M 2631 2963 
Q 2534 3019 2420 3045 
Q 2306 3072 2169 3072 
Q 1681 3072 1420 2755 
Q 1159 2438 1159 1844 
L 1159 0 
L 581 0 
L 581 3500 
L 1159 3500 
L 1159 2956 
Q 1341 3275 1631 3429 
Q 1922 3584 2338 3584 
Q 2397 3584 2469 3576 
Q 2541 3569 2628 3553 
L 2631 2963 
z
" transform="scale(0.015625)"/>
      <path id="DejaVuSans-6d" d="M 3328 2828 
Q 3544 3216 3844 3400 
Q 4144 3584 4550 3584 
Q 5097 3584 5394 3201 
Q 5691 2819 5691 2113 
L 5691 0 
L 5113 0 
L 5113 2094 
Q 5113 2597 4934 2840 
Q 4756 3084 4391 3084 
Q 3944 3084 3684 2787 
Q 3425 2491 3425 1978 
L 3425 0 
L 2847 0 
L 2847 2094 
Q 2847 2600 2669 2842 
Q 2491 3084 2119 3084 
Q 1678 3084 1418 2786 
Q 1159 2488 1159 1978 
L 1159 0 
L 581 0 
L 581 3500 
L 1159 3500 
L 1159 2956 
Q 1356 3278 1631 3431 
Q 1906 3584 2284 3584 
Q 2666 3584 2933 3390 
Q 3200 3197 3328 2828 
z
" transform="scale(0.015625)"/>
      <path id="DejaVuSans-29" d="M 513 4856 
L 1013 4856 
Q 1481 4119 1714 3412 
Q 1947 2706 1947 2009 
Q 1947 1309 1714 600 
Q 1481 -109 1013 -844 
L 513 -844 
Q 928 -128 1133 580 
Q 1338 1288 1338 2009 
Q 1338 2731 1133 3434 
Q 928 4138 513 4856 
z
" transform="scale(0.015625)"/>
     </defs>
     <use xlink:href="#DejaVuSans-4c"/>
     <use xlink:href="#DejaVuSans-6f" transform="translate(53.962891 0)"/>
     <use xlink:href="#DejaVuSans-73" transform="translate(115.144531 0)"/>
     <use xlink:href="#DejaVuSans-73" transform="translate(167.244141 0)"/>
     <use xlink:href="#DejaVuSans-20" transform="translate(219.34375 0)"/>
     <use xlink:href="#DejaVuSans-28" transform="translate(251.130859 0)"/>
     <use xlink:href="#DejaVuSans-70" transform="translate(290.144531 0)"/>
     <use xlink:href="#DejaVuSans-74" transform="translate(353.621094 0)"/>
     <use xlink:href="#DejaVuSans-2c" transform="translate(392.830078 0)"/>
     <use xlink:href="#DejaVuSans-20" transform="translate(424.617188 0)"/>
     <use xlink:href="#DejaVuSans-63" transform="translate(456.404297 0)"/>
     <use xlink:href="#DejaVuSans-68" transform="translate(511.384766 0)"/>
     <use xlink:href="#DejaVuSans-61" transform="translate(574.763672 0)"/>
     <use xlink:href="#DejaVuSans-72" transform="translate(636.042969 0)"/>
     <use xlink:href="#DejaVuSans-6c" transform="translate(677.15625 0)"/>
     <use xlink:href="#DejaVuSans-6d" transform="translate(704.939453 0)"/>
     <use xlink:href="#DejaVuSans-29" transform="translate(802.351562 0)"/>
    </g>
   </g>
   <g id="legend_1">
    <g id="patch_7">
     <path d="M 277.239062 92.5125 
L 349.146875 92.5125 
Q 351.146875 92.5125 351.146875 90.5125 
L 351.146875 32.8 
Q 351.146875 30.8 349.146875 30.8 
L 277.239062 30.8 
Q 275.239062 30.8 275.239062 32.8 
L 275.239062 90.5125 
Q 275.239062 92.5125 277.239062 92.5125 
z
" style="fill: #ffffff; opacity: 0.8; stroke: #cccccc; stroke-linejoin: miter"/>
    </g>
    <g id="line2d_35">
     <path d="M 279.239062 38.898438 
L 289.239062 38.898438 
L 299.239062 38.898438 
" style="fill: none; stroke: #1f77b4; stroke-width: 1.5; stroke-linecap: square"/>
    </g>
    <g id="text_19">
     <!-- agc -->
     <g transform="translate(307.239062 42.398438) scale(0.1 -0.1)">
      <defs>
       <path id="DejaVuSans-67" d="M 2906 1791 
Q 2906 2416 2648 2759 
Q 2391 3103 1925 3103 
Q 1463 3103 1205 2759 
Q 947 2416 947 1791 
Q 947 1169 1205 825 
Q 1463 481 1925 481 
Q 2391 481 2648 825 
Q 2906 1169 2906 1791 
z
M 3481 434 
Q 3481 -459 3084 -895 
Q 2688 -1331 1869 -1331 
Q 1566 -1331 1297 -1286 
Q 1028 -1241 775 -1147 
L 775 -588 
Q 1028 -725 1275 -790 
Q 1522 -856 1778 -856 
Q 2344 -856 2625 -561 
Q 2906 -266 2906 331 
L 2906 616 
Q 2728 306 2450 153 
Q 2172 0 1784 0 
Q 1141 0 747 490 
Q 353 981 353 1791 
Q 353 2603 747 3093 
Q 1141 3584 1784 3584 
Q 2172 3584 2450 3431 
Q 2728 3278 2906 2969 
L 2906 3500 
L 3481 3500 
L 3481 434 
z
" transform="scale(0.015625)"/>
      </defs>
      <use xlink:href="#DejaVuSans-61"/>
      <use xlink:href="#DejaVuSans-67" transform="translate(61.279297 0)"/>
      <use xlink:href="#DejaVuSans-63" transform="translate(124.755859 0)"/>
     </g>
    </g>
    <g id="line2d_36">
     <path d="M 279.239062 53.576562 
L 289.239062 53.576562 
L 299.239062 53.576562 
" style="fill: none; stroke: #ff7f0e; stroke-width: 1.5; stroke-linecap: square"/>
    </g>
    <g id="text_20">
     <!-- autoclip -->
     <g transform="translate(307.239062 57.076562) scale(0.1 -0.1)">
      <defs>
       <path id="DejaVuSans-75" d="M 544 1381 
L 544 3500 
L 1119 3500 
L 1119 1403 
Q 1119 906 1312 657 
Q 1506 409 1894 409 
Q 2359 409 2629 706 
Q 2900 1003 2900 1516 
L 2900 3500 
L 3475 3500 
L 3475 0 
L 2900 0 
L 2900 538 
Q 2691 219 2414 64 
Q 2138 -91 1772 -91 
Q 1169 -91 856 284 
Q 544 659 544 1381 
z
M 1991 3584 
L 1991 3584 
z
" transform="scale(0.015625)"/>
       <path id="DejaVuSans-69" d="M 603 3500 
L 1178 3500 
L 1178 0 
L 603 0 
L 603 3500 
z
M 603 4863 
L 1178 4863 
L 1178 4134 
L 603 4134 
L 603 4863 
z
" transform="scale(0.015625)"/>
      </defs>
      <use xlink:href="#DejaVuSans-61"/>
      <use xlink:href="#DejaVuSans-75" transform="translate(61.279297 0)"/>
      <use xlink:href="#DejaVuSans-74" transform="translate(124.658203 0)"/>
      <use xlink:href="#DejaVuSans-6f" transform="translate(163.867188 0)"/>
      <use xlink:href="#DejaVuSans-63" transform="translate(225.048828 0)"/>
      <use xlink:href="#DejaVuSans-6c" transform="translate(280.029297 0)"/>
      <use xlink:href="#DejaVuSans-69" transform="translate(307.8125 0)"/>
      <use xlink:href="#DejaVuSans-70" transform="translate(335.595703 0)"/>
     </g>
    </g>
    <g id="line2d_37">
     <path d="M 279.239062 68.254687 
L 289.239062 68.254687 
L 299.239062 68.254687 
" style="fill: none; stroke: #2ca02c; stroke-width: 1.5; stroke-linecap: square"/>
    </g>
    <g id="text_21">
     <!-- none -->
     <g transform="translate(307.239062 71.754687) scale(0.1 -0.1)">
      <defs>
       <path id="DejaVuSans-6e" d="M 3513 2113 
L 3513 0 
L 2938 0 
L 2938 2094 
Q 2938 2591 2744 2837 
Q 2550 3084 2163 3084 
Q 1697 3084 1428 2787 
Q 1159 2491 1159 1978 
L 1159 0 
L 581 0 
L 581 3500 
L 1159 3500 
L 1159 2956 
Q 1366 3272 1645 3428 
Q 1925 3584 2291 3584 
Q 2894 3584 3203 3211 
Q 3513 2838 3513 2113 
z
" transform="scale(0.015625)"/>
      </defs>
      <use xlink:href="#DejaVuSans-6e"/>
      <use xlink:href="#DejaVuSans-6f" transform="translate(63.378906 0)"/>
      <use xlink:href="#DejaVuSans-6e" transform="translate(124.560547 0)"/>
      <use xlink:href="#DejaVuSans-65" transform="translate(187.939453 0)"/>
     </g>
    </g>
    <g id="line2d_38">
     <path d="M 279.239062 82.932813 
L 289.239062 82.932813 
L 299.239062 82.932813 
" style="fill: none; stroke: #d62728; stroke-width: 1.5; stroke-linecap: square"/>
    </g>
    <g id="text_22">
     <!-- zscore -->
     <g transform="translate(307.239062 86.432813) scale(0.1 -0.1)">
      <defs>
       <path id="DejaVuSans-7a" d="M 353 3500 
L 3084 3500 
L 3084 2975 
L 922 459 
L 3084 459 
L 3084 0 
L 275 0 
L 275 525 
L 2438 3041 
L 353 3041 
L 353 3500 
z
" transform="scale(0.015625)"/>
      </defs>
      <use xlink:href="#DejaVuSans-7a"/>
      <use xlink:href="#DejaVuSans-73" transform="translate(52.490234 0)"/>
      <use xlink:href="#DejaVuSans-63" transform="translate(104.589844 0)"/>
      <use xlink:href="#DejaVuSans-6f" transform="translate(159.570312 0)"/>
      <use xlink:href="#DejaVuSans-72" transform="translate(220.751953 0)"/>
      <use xlink:href="#DejaVuSans-65" transform="translate(259.615234 0)"/>
     </g>
    </g>
   </g>
  </g>
  <g id="axes_2">
   <g id="patch_8">
    <path d="M 399.771875 248.2 
L 709.2 248.2 
L 709.2 25.8 
L 399.771875 25.8 
z
" style="fill: #ffffff"/>
   </g>
   <g id="matplotlib.axis_3">
    <g id="xtick_10">
     <g id="line2d_39">
      <path d="M 412.42323 248.2 
L 412.42323 25.8 
" clip-path="url(#p648a00ecdc)" style="fill: none; stroke: #b0b0b0; stroke-opacity: 0.3; stroke-width: 0.8; stroke-linecap: square"/>
     </g>
     <g id="line2d_40">
      <g>
       <use xlink:href="#mac6767546c" x="412.42323" y="248.2" style="stroke: #000000; stroke-width: 0.8"/>
      </g>
     </g>
     <g id="text_23">
      <!-- 0 -->
      <g transform="translate(409.24198 262.798438) scale(0.1 -0.1)">
       <use xlink:href="#DejaVuSans-30"/>
      </g>
     </g>
    </g>
    <g id="xtick_11">
     <g id="line2d_41">
      <path d="M 447.762212 248.2 
L 447.762212 25.8 
" clip-path="url(#p648a00ecdc)" style="fill: none; stroke: #b0b0b0; stroke-opacity: 0.3; stroke-width: 0.8; stroke-linecap: square"/>
     </g>
     <g id="line2d_42">
      <g>
       <use xlink:href="#mac6767546c" x="447.762212" y="248.2" style="stroke: #000000; stroke-width: 0.8"/>
      </g>
     </g>
     <g id="text_24">
      <!-- 25 -->
      <g transform="translate(441.399712 262.798438) scale(0.1 -0.1)">
       <use xlink:href="#DejaVuSans-32"/>
       <use xlink:href="#DejaVuSans-35" transform="translate(63.623047 0)"/>
      </g>
     </g>
    </g>
    <g id="xtick_12">
     <g id="line2d_43">
      <path d="M 483.101194 248.2 
L 483.101194 25.8 
" clip-path="url(#p648a00ecdc)" style="fill: none; stroke: #b0b0b0; stroke-opacity: 0.3; stroke-width: 0.8; stroke-linecap: square"/>
     </g>
     <g id="line2d_44">
      <g>
       <use xlink:href="#mac6767546c" x="483.101194" y="248.2" style="stroke: #000000; stroke-width: 0.8"/>
      </g>
     </g>
     <g id="text_25">
      <!-- 50 -->
      <g transform="translate(476.738694 262.798438) scale(0.1 -0.1)">
       <use xlink:href="#DejaVuSans-35"/>
       <use xlink:href="#DejaVuSans-30" transform="translate(63.623047 0)"/>
      </g>
     </g>
    </g>
    <g id="xtick_13">
     <g id="line2d_45">
      <path d="M 518.440176 248.2 
L 518.440176 25.8 
" clip-path="url(#p648a00ecdc)" style="fill: none; stroke: #b0b0b0; stroke-opacity: 0.3; stroke-width: 0.8; stroke-linecap: square"/>
     </g>
     <g id="line2d_46">
      <g>
       <use xlink:href="#mac6767546c" x="518.440176" y="248.2" style="stroke: #000000; stroke-width: 0.8"/>
      </g>
     </g>
     <g id="text_26">
      <!-- 75 -->
      <g transform="translate(512.077676 262.798438) scale(0.1 -0.1)">
       <use xlink:href="#DejaVuSans-37"/>
       <use xlink:href="#DejaVuSans-35" transform="translate(63.623047 0)"/>
      </g>
     </g>
    </g>
    <g id="xtick_14">
     <g id="line2d_47">
      <path d="M 553.779158 248.2 
L 553.779158 25.8 
" clip-path="url(#p648a00ecdc)" style="fill: none; stroke: #b0b0b0; stroke-opacity: 0.3; stroke-width: 0.8; stroke-linecap: square"/>
     </g>
     <g id="line2d_48">
      <g>
       <use xlink:href="#mac6767546c" x="553.779158" y="248.2" style="stroke: #000000; stroke-width: 0.8"/>
      </g>
     </g>
     <g id="text_27">
      <!-- 100 -->
      <g transform="translate(544.235408 262.798438) scale(0.1 -0.1)">
       <use xlink:href="#DejaVuSans-31"/>
       <use xlink:href="#DejaVuSans-30" transform="translate(63.623047 0)"/>
       <use xlink:href="#DejaVuSans-30" transform="translate(127.246094 0)"/>
      </g>
     </g>
    </g>
    <g id="xtick_15">
     <g id="line2d_49">
      <path d="M 589.11814 248.2 
L 589.11814 25.8 
" clip-path="url(#p648a00ecdc)" style="fill: none; stroke: #b0b0b0; stroke-opacity: 0.3; stroke-width: 0.8; stroke-linecap: square"/>
     </g>
     <g id="line2d_50">
      <g>
       <use xlink:href="#mac6767546c" x="589.11814" y="248.2" style="stroke: #000000; stroke-width: 0.8"/>
      </g>
     </g>
     <g id="text_28">
      <!-- 125 -->
      <g transform="translate(579.57439 262.798438) scale(0.1 -0.1)">
       <use xlink:href="#DejaVuSans-31"/>
       <use xlink:href="#DejaVuSans-32" transform="translate(63.623047 0)"/>
       <use xlink:href="#DejaVuSans-35" transform="translate(127.246094 0)"/>
      </g>
     </g>
    </g>
    <g id="xtick_16">
     <g id="line2d_51">
      <path d="M 624.457122 248.2 
L 624.457122 25.8 
" clip-path="url(#p648a00ecdc)" style="fill: none; stroke: #b0b0b0; stroke-opacity: 0.3; stroke-width: 0.8; stroke-linecap: square"/>
     </g>
     <g id="line2d_52">
      <g>
       <use xlink:href="#mac6767546c" x="624.457122" y="248.2" style="stroke: #000000; stroke-width: 0.8"/>
      </g>
     </g>
     <g id="text_29">
      <!-- 150 -->
      <g transform="translate(614.913372 262.798438) scale(0.1 -0.1)">
       <use xlink:href="#DejaVuSans-31"/>
       <use xlink:href="#DejaVuSans-35" transform="translate(63.623047 0)"/>
       <use xlink:href="#DejaVuSans-30" transform="translate(127.246094 0)"/>
      </g>
     </g>
    </g>
    <g id="xtick_17">
     <g id="line2d_53">
      <path d="M 659.796103 248.2 
L 659.796103 25.8 
" clip-path="url(#p648a00ecdc)" style="fill: none; stroke: #b0b0b0; stroke-opacity: 0.3; stroke-width: 0.8; stroke-linecap: square"/>
     </g>
     <g id="line2d_54">
      <g>
       <use xlink:href="#mac6767546c" x="659.796103" y="248.2" style="stroke: #000000; stroke-width: 0.8"/>
      </g>
     </g>
     <g id="text_30">
      <!-- 175 -->
      <g transform="translate(650.252353 262.798438) scale(0.1 -0.1)">
       <use xlink:href="#DejaVuSans-31"/>
       <use xlink:href="#DejaVuSans-37" transform="translate(63.623047 0)"/>
       <use xlink:href="#DejaVuSans-35" transform="translate(127.246094 0)"/>
      </g>
     </g>
    </g>
    <g id="xtick_18">
     <g id="line2d_55">
      <path d="M 695.135085 248.2 
L 695.135085 25.8 
" clip-path="url(#p648a00ecdc)" style="fill: none; stroke: #b0b0b0; stroke-opacity: 0.3; stroke-width: 0.8; stroke-linecap: square"/>
     </g>
     <g id="line2d_56">
      <g>
       <use xlink:href="#mac6767546c" x="695.135085" y="248.2" style="stroke: #000000; stroke-width: 0.8"/>
      </g>
     </g>
     <g id="text_31">
      <!-- 200 -->
      <g transform="translate(685.591335 262.798438) scale(0.1 -0.1)">
       <use xlink:href="#DejaVuSans-32"/>
       <use xlink:href="#DejaVuSans-30" transform="translate(63.623047 0)"/>
       <use xlink:href="#DejaVuSans-30" transform="translate(127.246094 0)"/>
      </g>
     </g>
    </g>
    <g id="text_32">
     <!-- step -->
     <g transform="translate(543.670313 276.476562) scale(0.1 -0.1)">
      <use xlink:href="#DejaVuSans-73"/>
      <use xlink:href="#DejaVuSans-74" transform="translate(52.099609 0)"/>
      <use xlink:href="#DejaVuSans-65" transform="translate(91.308594 0)"/>
      <use xlink:href="#DejaVuSans-70" transform="translate(152.832031 0)"/>
     </g>
    </g>
   </g>
   <g id="matplotlib.axis_4">
    <g id="ytick_7">
     <g id="line2d_57">
      <path d="M 399.771875 219.735111 
L 709.2 219.735111 
" clip-path="url(#p648a00ecdc)" style="fill: none; stroke: #b0b0b0; stroke-opacity: 0.3; stroke-width: 0.8; stroke-linecap: square"/>
     </g>
     <g id="line2d_58">
      <g>
       <use xlink:href="#m8d8b699866" x="399.771875" y="219.735111" style="stroke: #000000; stroke-width: 0.8"/>
      </g>
     </g>
     <g id="text_33">
      <!-- 10 -->
      <g transform="translate(380.046875 223.534329) scale(0.1 -0.1)">
       <use xlink:href="#DejaVuSans-31"/>
       <use xlink:href="#DejaVuSans-30" transform="translate(63.623047 0)"/>
      </g>
     </g>
    </g>
    <g id="ytick_8">
     <g id="line2d_59">
      <path d="M 399.771875 186.587882 
L 709.2 186.587882 
" clip-path="url(#p648a00ecdc)" style="fill: none; stroke: #b0b0b0; stroke-opacity: 0.3; stroke-width: 0.8; stroke-linecap: square"/>
     </g>
     <g id="line2d_60">
      <g>
       <use xlink:href="#m8d8b699866" x="399.771875" y="186.587882" style="stroke: #000000; stroke-width: 0.8"/>
      </g>
     </g>
     <g id="text_34">
      <!-- 20 -->
      <g transform="translate(380.046875 190.387101) scale(0.1 -0.1)">
       <use xlink:href="#DejaVuSans-32"/>
       <use xlink:href="#DejaVuSans-30" transform="translate(63.623047 0)"/>
      </g>
     </g>
    </g>
    <g id="ytick_9">
     <g id="line2d_61">
      <path d="M 399.771875 153.440653 
L 709.2 153.440653 
" clip-path="url(#p648a00ecdc)" style="fill: none; stroke: #b0b0b0; stroke-opacity: 0.3; stroke-width: 0.8; stroke-linecap: square"/>
     </g>
     <g id="line2d_62">
      <g>
       <use xlink:href="#m8d8b699866" x="399.771875" y="153.440653" style="stroke: #000000; stroke-width: 0.8"/>
      </g>
     </g>
     <g id="text_35">
      <!-- 30 -->
      <g transform="translate(380.046875 157.239872) scale(0.1 -0.1)">
       <use xlink:href="#DejaVuSans-33"/>
       <use xlink:href="#DejaVuSans-30" transform="translate(63.623047 0)"/>
      </g>
     </g>
    </g>
    <g id="ytick_10">
     <g id="line2d_63">
      <path d="M 399.771875 120.293424 
L 709.2 120.293424 
" clip-path="url(#p648a00ecdc)" style="fill: none; stroke: #b0b0b0; stroke-opacity: 0.3; stroke-width: 0.8; stroke-linecap: square"/>
     </g>
     <g id="line2d_64">
      <g>
       <use xlink:href="#m8d8b699866" x="399.771875" y="120.293424" style="stroke: #000000; stroke-width: 0.8"/>
      </g>
     </g>
     <g id="text_36">
      <!-- 40 -->
      <g transform="translate(380.046875 124.092643) scale(0.1 -0.1)">
       <use xlink:href="#DejaVuSans-34"/>
       <use xlink:href="#DejaVuSans-30" transform="translate(63.623047 0)"/>
      </g>
     </g>
    </g>
    <g id="ytick_11">
     <g id="line2d_65">
      <path d="M 399.771875 87.146195 
L 709.2 87.146195 
" clip-path="url(#p648a00ecdc)" style="fill: none; stroke: #b0b0b0; stroke-opacity: 0.3; stroke-width: 0.8; stroke-linecap: square"/>
     </g>
     <g id="line2d_66">
      <g>
       <use xlink:href="#m8d8b699866" x="399.771875" y="87.146195" style="stroke: #000000; stroke-width: 0.8"/>
      </g>
     </g>
     <g id="text_37">
      <!-- 50 -->
      <g transform="translate(380.046875 90.945414) scale(0.1 -0.1)">
       <use xlink:href="#DejaVuSans-35"/>
       <use xlink:href="#DejaVuSans-30" transform="translate(63.623047 0)"/>
      </g>
     </g>
    </g>
    <g id="ytick_12">
     <g id="line2d_67">
      <path d="M 399.771875 53.998966 
L 709.2 53.998966 
" clip-path="url(#p648a00ecdc)" style="fill: none; stroke: #b0b0b0; stroke-opacity: 0.3; stroke-width: 0.8; stroke-linecap: square"/>
     </g>
     <g id="line2d_68">
      <g>
       <use xlink:href="#m8d8b699866" x="399.771875" y="53.998966" style="stroke: #000000; stroke-width: 0.8"/>
      </g>
     </g>
     <g id="text_38">
      <!-- 60 -->
      <g transform="translate(380.046875 57.798185) scale(0.1 -0.1)">
       <defs>
        <path id="DejaVuSans-36" d="M 2113 2584 
Q 1688 2584 1439 2293 
Q 1191 2003 1191 1497 
Q 1191 994 1439 701 
Q 1688 409 2113 409 
Q 2538 409 2786 701 
Q 3034 994 3034 1497 
Q 3034 2003 2786 2293 
Q 2538 2584 2113 2584 
z
M 3366 4563 
L 3366 3988 
Q 3128 4100 2886 4159 
Q 2644 4219 2406 4219 
Q 1781 4219 1451 3797 
Q 1122 3375 1075 2522 
Q 1259 2794 1537 2939 
Q 1816 3084 2150 3084 
Q 2853 3084 3261 2657 
Q 3669 2231 3669 1497 
Q 3669 778 3244 343 
Q 2819 -91 2113 -91 
Q 1303 -91 875 529 
Q 447 1150 447 2328 
Q 447 3434 972 4092 
Q 1497 4750 2381 4750 
Q 2619 4750 2861 4703 
Q 3103 4656 3366 4563 
z
" transform="scale(0.015625)"/>
       </defs>
       <use xlink:href="#DejaVuSans-36"/>
       <use xlink:href="#DejaVuSans-30" transform="translate(63.623047 0)"/>
      </g>
     </g>
    </g>
    <g id="text_39">
     <!-- perplexity -->
     <g transform="translate(373.967188 162.126563) rotate(-90) scale(0.1 -0.1)">
      <defs>
       <path id="DejaVuSans-78" d="M 3513 3500 
L 2247 1797 
L 3578 0 
L 2900 0 
L 1881 1375 
L 863 0 
L 184 0 
L 1544 1831 
L 300 3500 
L 978 3500 
L 1906 2253 
L 2834 3500 
L 3513 3500 
z
" transform="scale(0.015625)"/>
       <path id="DejaVuSans-79" d="M 2059 -325 
Q 1816 -950 1584 -1140 
Q 1353 -1331 966 -1331 
L 506 -1331 
L 506 -850 
L 844 -850 
Q 1081 -850 1212 -737 
Q 1344 -625 1503 -206 
L 1606 56 
L 191 3500 
L 800 3500 
L 1894 763 
L 2988 3500 
L 3597 3500 
L 2059 -325 
z
" transform="scale(0.015625)"/>
      </defs>
      <use xlink:href="#DejaVuSans-70"/>
      <use xlink:href="#DejaVuSans-65" transform="translate(63.476562 0)"/>
      <use xlink:href="#DejaVuSans-72" transform="translate(125 0)"/>
      <use xlink:href="#DejaVuSans-70" transform="translate(166.113281 0)"/>
      <use xlink:href="#DejaVuSans-6c" transform="translate(229.589844 0)"/>
      <use xlink:href="#DejaVuSans-65" transform="translate(257.373047 0)"/>
      <use xlink:href="#DejaVuSans-78" transform="translate(317.146484 0)"/>
      <use xlink:href="#DejaVuSans-69" transform="translate(376.326172 0)"/>
      <use xlink:href="#DejaVuSans-74" transform="translate(404.109375 0)"/>
      <use xlink:href="#DejaVuSans-79" transform="translate(443.318359 0)"/>
     </g>
    </g>
   </g>
   <g id="line2d_69">
    <path d="M 413.83679 35.909091 
L 415.250349 102.736208 
L 416.663908 95.947406 
L 418.077468 128.232345 
L 419.491027 139.022449 
L 420.904586 150.922105 
L 422.318145 174.36322 
L 423.731705 179.944763 
L 426.558823 193.523973 
L 427.972383 196.820251 
L 430.799501 204.314913 
L 432.21306 207.962896 
L 433.62662 209.687111 
L 435.040179 211.807855 
L 437.867297 214.974239 
L 439.280857 215.533623 
L 440.694416 217.150998 
L 442.107975 217.770819 
L 443.521535 219.349441 
L 444.935094 219.893987 
L 446.348653 220.881663 
L 447.762212 221.312414 
L 449.175772 222.596494 
L 450.589331 222.409336 
L 452.00289 223.451158 
L 453.416449 223.326504 
L 454.830009 224.444353 
L 456.243568 225.254245 
L 457.657127 225.201844 
L 459.070687 225.882893 
L 460.484246 226.224453 
L 463.311364 227.252976 
L 464.724924 226.973805 
L 466.138483 227.428389 
L 467.552042 228.285404 
L 468.965601 227.909157 
L 470.379161 228.763636 
L 471.79272 228.781044 
L 473.206279 229.272891 
L 474.619839 229.306433 
L 476.033398 229.847737 
L 477.446957 229.247179 
L 478.860516 229.761308 
L 480.274076 230.783357 
L 481.687635 230.358638 
L 488.755431 231.391286 
L 490.168991 231.960635 
L 491.58255 231.522971 
L 494.409668 232.281878 
L 495.823228 232.479912 
L 497.236787 232.136062 
L 498.650346 232.434991 
L 500.063905 232.543222 
L 501.477465 232.497242 
L 502.891024 232.862814 
L 504.304583 233.381647 
L 505.718143 232.847601 
L 507.131702 233.299435 
L 508.545261 233.117329 
L 514.199498 233.762442 
L 515.613057 233.630299 
L 519.853735 233.984937 
L 521.267295 233.704608 
L 524.094413 234.447653 
L 525.507972 234.431436 
L 526.921532 233.971697 
L 528.335091 234.585576 
L 529.74865 234.613285 
L 531.162209 234.804747 
L 533.989328 234.507664 
L 535.402887 235.202978 
L 536.816447 235.239148 
L 538.230006 235.028567 
L 539.643565 235.038772 
L 541.057124 234.772177 
L 542.470684 235.106214 
L 543.884243 235.117612 
L 545.297802 235.421731 
L 546.711361 235.449105 
L 549.53848 235.190176 
L 550.952039 235.636171 
L 555.192717 235.401384 
L 556.606276 235.56508 
L 558.019836 235.359066 
L 559.433395 235.610495 
L 560.846954 235.746826 
L 562.260514 235.723558 
L 563.674073 235.53727 
L 565.087632 235.56411 
L 566.501191 235.947744 
L 569.32831 235.820405 
L 570.741869 235.516262 
L 573.568988 236.344914 
L 574.982547 236.074308 
L 576.396106 236.248439 
L 577.809666 235.749344 
L 579.223225 236.219614 
L 580.636784 235.844549 
L 582.050343 236.487344 
L 583.463903 236.204748 
L 584.877462 236.584656 
L 586.291021 236.209583 
L 589.11814 236.784302 
L 590.531699 236.108563 
L 591.945258 236.693107 
L 593.358818 236.388707 
L 599.013055 236.65594 
L 600.426614 236.501316 
L 601.840173 236.540983 
L 603.253732 236.410942 
L 604.667292 236.858184 
L 607.49441 237.075786 
L 610.321529 236.872419 
L 611.735088 237.18032 
L 613.148647 236.449414 
L 615.975766 236.83258 
L 617.389325 237.023768 
L 618.802884 237.026279 
L 620.216444 236.810426 
L 621.630003 237.02039 
L 623.043562 236.892043 
L 624.457122 236.638428 
L 625.870681 236.878379 
L 627.28424 236.620201 
L 628.697799 237.199808 
L 630.111359 236.736068 
L 631.524918 237.298262 
L 632.938477 237.208687 
L 634.352036 236.783405 
L 635.765596 236.926452 
L 637.179155 237.186733 
L 638.592714 237.241853 
L 640.006274 237.097981 
L 641.419833 237.122044 
L 642.833392 237.624887 
L 644.246951 237.125808 
L 645.660511 236.905994 
L 647.07407 237.377755 
L 648.487629 237.487804 
L 649.901188 237.185257 
L 651.314748 237.227689 
L 652.728307 237.947136 
L 654.141866 237.486597 
L 655.555426 237.516614 
L 656.968985 237.261463 
L 658.382544 237.470004 
L 659.796103 237.021633 
L 661.209663 237.487235 
L 662.623222 237.369105 
L 664.036781 237.43377 
L 665.45034 237.82841 
L 666.8639 237.32906 
L 668.277459 237.267053 
L 669.691018 237.545435 
L 671.104578 237.395534 
L 673.931696 237.920387 
L 675.345255 237.425537 
L 678.172374 237.540206 
L 679.585933 236.997372 
L 680.999492 237.787143 
L 683.826611 237.556234 
L 685.24017 238.090909 
L 686.65373 237.845573 
L 688.067289 237.871994 
L 689.480848 237.773995 
L 690.894407 237.912632 
L 692.307967 237.84931 
L 693.721526 237.612301 
L 695.135085 237.737009 
L 695.135085 237.737009 
" clip-path="url(#p648a00ecdc)" style="fill: none; stroke: #1f77b4; stroke-width: 1.5; stroke-linecap: square"/>
   </g>
   <g id="line2d_70">
    <path d="M 413.83679 35.909091 
L 415.250349 102.73569 
L 416.663908 88.440706 
L 418.077468 132.08027 
L 419.491027 116.581987 
L 420.904586 156.816072 
L 425.145264 171.65796 
L 426.558823 176.202344 
L 427.972383 178.095661 
L 429.385942 184.004269 
L 430.799501 185.477659 
L 432.21306 191.323031 
L 433.62662 193.096851 
L 435.040179 196.458507 
L 436.453738 197.551776 
L 437.867297 200.094378 
L 439.280857 201.086137 
L 440.694416 204.000758 
L 442.107975 204.610288 
L 444.935094 208.192044 
L 446.348653 209.083049 
L 447.762212 209.497126 
L 449.175772 211.277179 
L 450.589331 212.000236 
L 452.00289 213.176511 
L 453.416449 213.283614 
L 454.830009 214.668623 
L 456.243568 215.776554 
L 457.657127 215.868582 
L 459.070687 216.693943 
L 460.484246 217.317301 
L 461.897805 217.631662 
L 463.311364 218.604315 
L 464.724924 218.446495 
L 466.138483 218.987572 
L 467.552042 219.682473 
L 468.965601 219.727667 
L 470.379161 220.708536 
L 471.79272 220.252416 
L 473.206279 221.299398 
L 474.619839 221.624433 
L 476.033398 222.207172 
L 477.446957 221.283377 
L 480.274076 223.205176 
L 481.687635 222.225006 
L 483.101194 222.867466 
L 485.928313 223.200464 
L 490.168991 224.54546 
L 494.409668 224.920428 
L 495.823228 225.657591 
L 497.236787 225.277986 
L 498.650346 225.611831 
L 500.063905 225.483876 
L 501.477465 225.63393 
L 504.304583 226.337919 
L 505.718143 225.993444 
L 507.131702 226.69026 
L 509.95882 226.546731 
L 511.37238 226.588213 
L 512.785939 226.894674 
L 514.199498 227.028004 
L 515.613057 226.740036 
L 517.026617 227.444607 
L 518.440176 227.582871 
L 521.267295 227.396523 
L 522.680854 227.735405 
L 524.094413 228.366766 
L 526.921532 227.868595 
L 528.335091 228.547032 
L 531.162209 228.671586 
L 533.989328 228.459305 
L 535.402887 229.005388 
L 536.816447 228.984213 
L 538.230006 229.251154 
L 539.643565 228.922395 
L 541.057124 228.731262 
L 542.470684 229.231836 
L 543.884243 229.169596 
L 545.297802 229.495159 
L 546.711361 229.662065 
L 548.124921 229.575507 
L 549.53848 229.644896 
L 550.952039 229.828839 
L 552.365599 229.807965 
L 553.779158 229.957426 
L 555.192717 229.800039 
L 556.606276 229.930241 
L 558.019836 229.795644 
L 559.433395 230.237321 
L 560.846954 230.392089 
L 562.260514 230.125916 
L 565.087632 230.256521 
L 566.501191 230.547763 
L 569.32831 230.55456 
L 570.741869 230.150067 
L 572.155428 230.504404 
L 573.568988 230.998118 
L 574.982547 231.104473 
L 579.223225 230.799998 
L 580.636784 230.896351 
L 582.050343 231.560324 
L 583.463903 231.18602 
L 584.877462 231.784049 
L 586.291021 231.221358 
L 587.70458 231.312229 
L 589.11814 231.927344 
L 590.531699 230.921099 
L 591.945258 231.793507 
L 593.358818 231.483091 
L 594.772377 231.385169 
L 596.185936 231.710851 
L 599.013055 231.615073 
L 603.253732 231.725463 
L 604.667292 232.122699 
L 606.080851 232.124209 
L 607.49441 232.390354 
L 608.90797 232.021679 
L 610.321529 232.238765 
L 611.735088 232.676687 
L 613.148647 231.818758 
L 614.562207 232.167746 
L 615.975766 231.987534 
L 617.389325 232.523562 
L 620.216444 232.261725 
L 621.630003 232.51391 
L 623.043562 232.346022 
L 625.870681 232.406562 
L 627.28424 232.044116 
L 628.697799 232.723266 
L 630.111359 232.256899 
L 631.524918 233.024119 
L 632.938477 232.613128 
L 634.352036 232.381523 
L 637.179155 232.818699 
L 638.592714 232.767742 
L 640.006274 232.984488 
L 641.419833 233.077677 
L 642.833392 233.445466 
L 644.246951 232.847357 
L 645.660511 232.677994 
L 647.07407 233.10227 
L 648.487629 233.176888 
L 649.901188 233.07791 
L 651.314748 233.117608 
L 652.728307 233.808244 
L 654.141866 233.230469 
L 655.555426 233.535347 
L 656.968985 233.084489 
L 658.382544 233.220856 
L 662.623222 233.225458 
L 664.036781 233.390523 
L 665.45034 233.672325 
L 666.8639 233.358993 
L 668.277459 233.226542 
L 669.691018 233.795231 
L 671.104578 233.483198 
L 672.518137 233.5365 
L 673.931696 233.914233 
L 675.345255 233.518519 
L 676.758815 233.737218 
L 678.172374 233.837435 
L 679.585933 233.146767 
L 680.999492 233.722562 
L 683.826611 233.526524 
L 685.24017 234.233363 
L 686.65373 233.985662 
L 688.067289 233.909869 
L 692.307967 234.19743 
L 693.721526 233.754459 
L 695.135085 233.900027 
L 695.135085 233.900027 
" clip-path="url(#p648a00ecdc)" style="fill: none; stroke: #ff7f0e; stroke-width: 1.5; stroke-linecap: square"/>
   </g>
   <g id="line2d_71">
    <path d="M 413.83679 35.909091 
L 415.250349 102.73569 
L 416.663908 88.440706 
L 418.077468 132.08027 
L 419.491027 116.581987 
L 420.904586 156.816072 
L 425.145264 171.65796 
L 426.558823 176.202344 
L 427.972383 178.095661 
L 429.385942 184.004269 
L 430.799501 185.477659 
L 432.21306 191.323031 
L 433.62662 193.096851 
L 435.040179 196.458507 
L 436.453738 197.551776 
L 437.867297 200.094378 
L 439.280857 201.086137 
L 440.694416 204.000758 
L 442.107975 204.610288 
L 444.935094 208.192044 
L 446.348653 209.083049 
L 447.762212 209.497126 
L 449.175772 211.277179 
L 450.589331 212.000236 
L 452.00289 213.176511 
L 453.416449 213.283614 
L 454.830009 214.668623 
L 456.243568 215.776554 
L 457.657127 215.868582 
L 459.070687 216.693943 
L 460.484246 217.317301 
L 461.897805 217.631662 
L 463.311364 218.604315 
L 464.724924 218.446495 
L 466.138483 218.987572 
L 467.552042 219.682473 
L 468.965601 219.727667 
L 470.379161 220.708536 
L 471.79272 220.252416 
L 473.206279 221.299398 
L 474.619839 221.624433 
L 476.033398 222.207172 
L 477.446957 221.283377 
L 480.274076 223.205176 
L 481.687635 222.225006 
L 483.101194 222.867466 
L 485.928313 223.200464 
L 490.168991 224.54546 
L 494.409668 224.920428 
L 495.823228 225.657591 
L 497.236787 225.277986 
L 498.650346 225.611831 
L 500.063905 225.483876 
L 501.477465 225.63393 
L 504.304583 226.337919 
L 505.718143 225.993444 
L 507.131702 226.69026 
L 509.95882 226.546731 
L 511.37238 226.588213 
L 512.785939 226.894674 
L 514.199498 227.028004 
L 515.613057 226.740036 
L 517.026617 227.444607 
L 518.440176 227.582871 
L 521.267295 227.396523 
L 522.680854 227.735405 
L 524.094413 228.366766 
L 526.921532 227.868595 
L 528.335091 228.547032 
L 531.162209 228.671586 
L 533.989328 228.459305 
L 535.402887 229.005388 
L 536.816447 228.984213 
L 538.230006 229.251154 
L 539.643565 228.922395 
L 541.057124 228.731262 
L 542.470684 229.231836 
L 543.884243 229.169596 
L 545.297802 229.495159 
L 546.711361 229.662065 
L 548.124921 229.575507 
L 549.53848 229.644896 
L 550.952039 229.828839 
L 552.365599 229.807965 
L 553.779158 229.957426 
L 555.192717 229.800039 
L 556.606276 229.930241 
L 558.019836 229.795644 
L 559.433395 230.237321 
L 560.846954 230.392089 
L 562.260514 230.125916 
L 565.087632 230.256521 
L 566.501191 230.547763 
L 569.32831 230.55456 
L 570.741869 230.150067 
L 572.155428 230.504404 
L 573.568988 230.998118 
L 574.982547 231.104473 
L 579.223225 230.799998 
L 580.636784 230.896351 
L 582.050343 231.560324 
L 583.463903 231.18602 
L 584.877462 231.784049 
L 586.291021 231.221358 
L 587.70458 231.312229 
L 589.11814 231.927344 
L 590.531699 230.921099 
L 591.945258 231.793507 
L 593.358818 231.483091 
L 594.772377 231.385169 
L 596.185936 231.710851 
L 599.013055 231.615073 
L 603.253732 231.725463 
L 604.667292 232.122699 
L 606.080851 232.124209 
L 607.49441 232.390354 
L 608.90797 232.021679 
L 610.321529 232.238765 
L 611.735088 232.676687 
L 613.148647 231.818758 
L 614.562207 232.167746 
L 615.975766 231.987534 
L 617.389325 232.523562 
L 620.216444 232.261725 
L 621.630003 232.51391 
L 623.043562 232.346022 
L 625.870681 232.406562 
L 627.28424 232.044116 
L 628.697799 232.723266 
L 630.111359 232.256899 
L 631.524918 233.024119 
L 632.938477 232.613128 
L 634.352036 232.381523 
L 637.179155 232.818699 
L 638.592714 232.767742 
L 640.006274 232.984488 
L 641.419833 233.077677 
L 642.833392 233.445466 
L 644.246951 232.847357 
L 645.660511 232.677994 
L 647.07407 233.10227 
L 648.487629 233.176888 
L 649.901188 233.07791 
L 651.314748 233.117608 
L 652.728307 233.808244 
L 654.141866 233.230469 
L 655.555426 233.535347 
L 656.968985 233.084489 
L 658.382544 233.220856 
L 662.623222 233.225458 
L 664.036781 233.390523 
L 665.45034 233.672325 
L 666.8639 233.358993 
L 668.277459 233.226542 
L 669.691018 233.795231 
L 671.104578 233.483198 
L 672.518137 233.5365 
L 673.931696 233.914233 
L 675.345255 233.518519 
L 676.758815 233.737218 
L 678.172374 233.837435 
L 679.585933 233.146767 
L 680.999492 233.722562 
L 683.826611 233.526524 
L 685.24017 234.233363 
L 686.65373 233.985662 
L 688.067289 233.909869 
L 692.307967 234.19743 
L 693.721526 233.754459 
L 695.135085 233.900027 
L 695.135085 233.900027 
" clip-path="url(#p648a00ecdc)" style="fill: none; stroke: #2ca02c; stroke-width: 1.5; stroke-linecap: square"/>
   </g>
   <g id="line2d_72">
    <path d="M 413.83679 35.909091 
L 415.250349 102.73569 
L 416.663908 88.440706 
L 418.077468 132.08027 
L 419.491027 116.581987 
L 420.904586 156.816072 
L 425.145264 171.65796 
L 426.558823 176.202344 
L 427.972383 178.095661 
L 429.385942 184.004269 
L 430.799501 185.477659 
L 432.21306 191.323031 
L 433.62662 193.096851 
L 435.040179 196.458507 
L 436.453738 197.551776 
L 437.867297 200.094378 
L 439.280857 201.086137 
L 440.694416 204.000758 
L 442.107975 204.610288 
L 444.935094 208.192044 
L 446.348653 209.083049 
L 447.762212 209.497126 
L 449.175772 211.277179 
L 450.589331 212.000236 
L 452.00289 213.176511 
L 453.416449 213.283614 
L 454.830009 214.668623 
L 456.243568 215.776554 
L 457.657127 215.868582 
L 459.070687 216.693943 
L 460.484246 217.317301 
L 461.897805 217.631662 
L 463.311364 218.604315 
L 464.724924 218.446495 
L 466.138483 218.987572 
L 467.552042 219.682473 
L 468.965601 219.727667 
L 470.379161 220.708536 
L 471.79272 220.252416 
L 473.206279 221.299398 
L 474.619839 221.624433 
L 476.033398 222.207172 
L 477.446957 221.283377 
L 480.274076 223.205176 
L 481.687635 222.225006 
L 483.101194 222.867466 
L 485.928313 223.200464 
L 490.168991 224.54546 
L 494.409668 224.920428 
L 495.823228 225.657591 
L 497.236787 225.277986 
L 498.650346 225.611831 
L 500.063905 225.483876 
L 501.477465 225.63393 
L 504.304583 226.337919 
L 505.718143 225.993444 
L 507.131702 226.69026 
L 509.95882 226.546731 
L 511.37238 226.588213 
L 512.785939 226.894674 
L 514.199498 227.028004 
L 515.613057 226.740036 
L 517.026617 227.444607 
L 518.440176 227.582871 
L 521.267295 227.396523 
L 522.680854 227.735405 
L 524.094413 228.366766 
L 526.921532 227.868595 
L 528.335091 228.547032 
L 531.162209 228.671586 
L 533.989328 228.459305 
L 535.402887 229.005388 
L 536.816447 228.984213 
L 538.230006 229.251154 
L 539.643565 228.922395 
L 541.057124 228.731262 
L 542.470684 229.231836 
L 543.884243 229.169596 
L 545.297802 229.495159 
L 546.711361 229.662065 
L 548.124921 229.575507 
L 549.53848 229.644896 
L 550.952039 229.828839 
L 552.365599 229.807965 
L 553.779158 229.957426 
L 555.192717 229.800039 
L 556.606276 229.930241 
L 558.019836 229.795644 
L 559.433395 230.237321 
L 560.846954 230.392089 
L 562.260514 230.125916 
L 565.087632 230.256521 
L 566.501191 230.547763 
L 569.32831 230.55456 
L 570.741869 230.150067 
L 572.155428 230.504404 
L 573.568988 230.998118 
L 574.982547 231.104473 
L 579.223225 230.799998 
L 580.636784 230.896351 
L 582.050343 231.560324 
L 583.463903 231.18602 
L 584.877462 231.784049 
L 586.291021 231.221358 
L 587.70458 231.312229 
L 589.11814 231.927344 
L 590.531699 230.921099 
L 591.945258 231.793507 
L 593.358818 231.483091 
L 594.772377 231.385169 
L 596.185936 231.710851 
L 599.013055 231.615073 
L 603.253732 231.725463 
L 604.667292 232.122699 
L 606.080851 232.124209 
L 607.49441 232.390354 
L 608.90797 232.021679 
L 610.321529 232.238765 
L 611.735088 232.676687 
L 613.148647 231.818758 
L 614.562207 232.167746 
L 615.975766 231.987534 
L 617.389325 232.523562 
L 620.216444 232.261725 
L 621.630003 232.51391 
L 623.043562 232.346022 
L 625.870681 232.406562 
L 627.28424 232.044116 
L 628.697799 232.723266 
L 630.111359 232.256899 
L 631.524918 233.024119 
L 632.938477 232.613128 
L 634.352036 232.381523 
L 637.179155 232.818699 
L 638.592714 232.767742 
L 640.006274 232.984488 
L 641.419833 233.077677 
L 642.833392 233.445466 
L 644.246951 232.847357 
L 645.660511 232.677994 
L 647.07407 233.10227 
L 648.487629 233.176888 
L 649.901188 233.07791 
L 651.314748 233.117608 
L 652.728307 233.808244 
L 654.141866 233.230469 
L 655.555426 233.535347 
L 656.968985 233.084489 
L 658.382544 233.220856 
L 662.623222 233.225458 
L 664.036781 233.390523 
L 665.45034 233.672325 
L 666.8639 233.358993 
L 668.277459 233.226542 
L 669.691018 233.795231 
L 671.104578 233.483198 
L 672.518137 233.5365 
L 673.931696 233.914233 
L 675.345255 233.518519 
L 676.758815 233.737218 
L 678.172374 233.837435 
L 679.585933 233.146767 
L 680.999492 233.722562 
L 683.826611 233.526524 
L 685.24017 234.233363 
L 686.65373 233.985662 
L 688.067289 233.909869 
L 692.307967 234.19743 
L 693.721526 233.754459 
L 695.135085 233.900027 
L 695.135085 233.900027 
" clip-path="url(#p648a00ecdc)" style="fill: none; stroke: #d62728; stroke-width: 1.5; stroke-linecap: square"/>
   </g>
   <g id="patch_9">
    <path d="M 399.771875 248.2 
L 399.771875 25.8 
" style="fill: none; stroke: #000000; stroke-width: 0.8; stroke-linejoin: miter; stroke-linecap: square"/>
   </g>
   <g id="patch_10">
    <path d="M 709.2 248.2 
L 709.2 25.8 
" style="fill: none; stroke: #000000; stroke-width: 0.8; stroke-linejoin: miter; stroke-linecap: square"/>
   </g>
   <g id="patch_11">
    <path d="M 399.771875 248.2 
L 709.2 248.2 
" style="fill: none; stroke: #000000; stroke-width: 0.8; stroke-linejoin: miter; stroke-linecap: square"/>
   </g>
   <g id="patch_12">
    <path d="M 399.771875 25.8 
L 709.2 25.8 
" style="fill: none; stroke: #000000; stroke-width: 0.8; stroke-linejoin: miter; stroke-linecap: square"/>
   </g>
   <g id="text_40">
    <!-- Perplexity (pt, charlm) -->
    <g transform="translate(487.422813 19.8) scale(0.12 -0.12)">
     <defs>
      <path id="DejaVuSans-50" d="M 1259 4147 
L 1259 2394 
L 2053 2394 
Q 2494 2394 2734 2622 
Q 2975 2850 2975 3272 
Q 2975 3691 2734 3919 
Q 2494 4147 2053 4147 
L 1259 4147 
z
M 628 4666 
L 2053 4666 
Q 2838 4666 3239 4311 
Q 3641 3956 3641 3272 
Q 3641 2581 3239 2228 
Q 2838 1875 2053 1875 
L 1259 1875 
L 1259 0 
L 628 0 
L 628 4666 
z
" transform="scale(0.015625)"/>
     </defs>
     <use xlink:href="#DejaVuSans-50"/>
     <use xlink:href="#DejaVuSans-65" transform="translate(56.677734 0)"/>
     <use xlink:href="#DejaVuSans-72" transform="translate(118.201172 0)"/>
     <use xlink:href="#DejaVuSans-70" transform="translate(159.314453 0)"/>
     <use xlink:href="#DejaVuSans-6c" transform="translate(222.791016 0)"/>
     <use xlink:href="#DejaVuSans-65" transform="translate(250.574219 0)"/>
     <use xlink:href="#DejaVuSans-78" transform="translate(310.347656 0)"/>
     <use xlink:href="#DejaVuSans-69" transform="translate(369.527344 0)"/>
     <use xlink:href="#DejaVuSans-74" transform="translate(397.310547 0)"/>
     <use xlink:href="#DejaVuSans-79" transform="translate(436.519531 0)"/>
     <use xlink:href="#DejaVuSans-20" transform="translate(495.699219 0)"/>
     <use xlink:href="#DejaVuSans-28" transform="translate(527.486328 0)"/>
     <use xlink:href="#DejaVuSans-70" transform="translate(566.5 0)"/>
     <use xlink:href="#DejaVuSans-74" transform="translate(629.976562 0)"/>
     <use xlink:href="#DejaVuSans-2c" transform="translate(669.185547 0)"/>
     <use xlink:href="#DejaVuSans-20" transform="translate(700.972656 0)"/>
     <use xlink:href="#DejaVuSans-63" transform="translate(732.759766 0)"/>
     <use xlink:href="#DejaVuSans-68" transform="translate(787.740234 0)"/>
     <use xlink:href="#DejaVuSans-61" transform="translate(851.119141 0)"/>
     <use xlink:href="#DejaVuSans-72" transform="translate(912.398438 0)"/>
     <use xlink:href="#DejaVuSans-6c" transform="translate(953.511719 0)"/>
     <use xlink:href="#DejaVuSans-6d" transform="translate(981.294922 0)"/>
     <use xlink:href="#DejaVuSans-29" transform="translate(1078.707031 0)"/>
    </g>
   </g>
   <g id="legend_2">
    <g id="patch_13">
     <path d="M 630.292188 92.5125 
L 702.2 92.5125 
Q 704.2 92.5125 704.2 90.5125 
L 704.2 32.8 
Q 704.2 30.8 702.2 30.8 
L 630.292188 30.8 
Q 628.292188 30.8 628.292188 32.8 
L 628.292188 90.5125 
Q 628.292188 92.5125 630.292188 92.5125 
z
" style="fill: #ffffff; opacity: 0.8; stroke: #cccccc; stroke-linejoin: miter"/>
    </g>
    <g id="line2d_73">
     <path d="M 632.292188 38.898438 
L 642.292188 38.898438 
L 652.292188 38.898438 
" style="fill: none; stroke: #1f77b4; stroke-width: 1.5; stroke-linecap: square"/>
    </g>
    <g id="text_41">
     <!-- agc -->
     <g transform="translate(660.292188 42.398438) scale(0.1 -0.1)">
      <use xlink:href="#DejaVuSans-61"/>
      <use xlink:href="#DejaVuSans-67" transform="translate(61.279297 0)"/>
      <use xlink:href="#DejaVuSans-63" transform="translate(124.755859 0)"/>
     </g>
    </g>
    <g id="line2d_74">
     <path d="M 632.292188 53.576562 
L 642.292188 53.576562 
L 652.292188 53.576562 
" style="fill: none; stroke: #ff7f0e; stroke-width: 1.5; stroke-linecap: square"/>
    </g>
    <g id="text_42">
     <!-- autoclip -->
     <g transform="translate(660.292188 57.076562) scale(0.1 -0.1)">
      <use xlink:href="#DejaVuSans-61"/>
      <use xlink:href="#DejaVuSans-75" transform="translate(61.279297 0)"/>
      <use xlink:href="#DejaVuSans-74" transform="translate(124.658203 0)"/>
      <use xlink:href="#DejaVuSans-6f" transform="translate(163.867188 0)"/>
      <use xlink:href="#DejaVuSans-63" transform="translate(225.048828 0)"/>
      <use xlink:href="#DejaVuSans-6c" transform="translate(280.029297 0)"/>
      <use xlink:href="#DejaVuSans-69" transform="translate(307.8125 0)"/>
      <use xlink:href="#DejaVuSans-70" transform="translate(335.595703 0)"/>
     </g>
    </g>
    <g id="line2d_75">
     <path d="M 632.292188 68.254687 
L 642.292188 68.254687 
L 652.292188 68.254687 
" style="fill: none; stroke: #2ca02c; stroke-width: 1.5; stroke-linecap: square"/>
    </g>
    <g id="text_43">
     <!-- none -->
     <g transform="translate(660.292188 71.754687) scale(0.1 -0.1)">
      <use xlink:href="#DejaVuSans-6e"/>
      <use xlink:href="#DejaVuSans-6f" transform="translate(63.378906 0)"/>
      <use xlink:href="#DejaVuSans-6e" transform="translate(124.560547 0)"/>
      <use xlink:href="#DejaVuSans-65" transform="translate(187.939453 0)"/>
     </g>
    </g>
    <g id="line2d_76">
     <path d="M 632.292188 82.932813 
L 642.292188 82.932813 
L 652.292188 82.932813 
" style="fill: none; stroke: #d62728; stroke-width: 1.5; stroke-linecap: square"/>
    </g>
    <g id="text_44">
     <!-- zscore -->
     <g transform="translate(660.292188 86.432813) scale(0.1 -0.1)">
      <use xlink:href="#DejaVuSans-7a"/>
      <use xlink:href="#DejaVuSans-73" transform="translate(52.490234 0)"/>
      <use xlink:href="#DejaVuSans-63" transform="translate(104.589844 0)"/>
      <use xlink:href="#DejaVuSans-6f" transform="translate(159.570312 0)"/>
      <use xlink:href="#DejaVuSans-72" transform="translate(220.751953 0)"/>
      <use xlink:href="#DejaVuSans-65" transform="translate(259.615234 0)"/>
     </g>
    </g>
   </g>
  </g>
 </g>
 <defs>
  <clipPath id="pae12595758">
   <rect x="46.71875" y="25.8" width="309.428125" height="222.4"/>
  </clipPath>
  <clipPath id="p648a00ecdc">
   <rect x="399.771875" y="25.8" width="309.428125" height="222.4"/>
  </clipPath>
 </defs>
</svg>
