<?xml version="1.0" encoding="utf-8" standalone="no"?>
<!DOCTYPE svg PUBLIC "-//W3C//DTD SVG 1.1//EN"
  "http://www.w3.org/Graphics/SVG/1.1/DTD/svg11.dtd">
<svg xmlns:xlink="http://www.w3.org/1999/xlink" width="720pt" height="288pt" viewBox="0 0 720 288" xmlns="http://www.w3.org/2000/svg" version="1.1">
 <metadata>
  <rdf:RDF xmlns:dc="http://purl.org/dc/elements/1.1/" xmlns:cc="http://creativecommons.org/ns#" xmlns:rdf="http://www.w3.org/1999/02/22-rdf-syntax-ns#">
   <cc:Work>
    <dc:type rdf:resource="http://purl.org/dc/dcmitype/StillImage"/>
    <dc:date>2025-09-13T12:53:03.778671</dc:date>
    <dc:format>image/svg+xml</dc:format>
    <dc:creator>
     <cc:Agent>
      <dc:title>Matplotlib v3.10.6, https://matplotlib.org/</dc:title>
     </cc:Agent>
    </dc:creator>
   </cc:Work>
  </rdf:RDF>
 </metadata>
 <defs>
  <style type="text/css">*{stroke-linejoin: round; stroke-linecap: butt}</style>
 </defs>
 <g id="figure_1">
  <g id="patch_1">
   <path d="M 0 288 
L 720 288 
L 720 0 
L 0 0 
z
" style="fill: #ffffff"/>
  </g>
  <g id="axes_1">
   <g id="patch_2">
    <path d="M 53.1875 248.2 
L 357.80625 248.2 
L 357.80625 25.8 
L 53.1875 25.8 
z
" style="fill: #ffffff"/>
   </g>
   <g id="matplotlib.axis_1">
    <g id="xtick_1">
     <g id="line2d_1">
      <path d="M 65.642218 248.2 
L 65.642218 25.8 
" clip-path="url(#pbf6d4c5199)" style="fill: none; stroke: #b0b0b0; stroke-opacity: 0.3; stroke-width: 0.8; stroke-linecap: square"/>
     </g>
     <g id="line2d_2">
      <defs>
       <path id="ma63e81f603" d="M 0 0 
L 0 3.5 
" style="stroke: #000000; stroke-width: 0.8"/>
      </defs>
      <g>
       <use xlink:href="#ma63e81f603" x="65.642218" y="248.2" style="stroke: #000000; stroke-width: 0.8"/>
      </g>
     </g>
     <g id="text_1">
      <!-- 0 -->
      <g transform="translate(62.460968 262.798438) scale(0.1 -0.1)">
       <defs>
        <path id="DejaVuSans-30" d="M 2034 4250 
Q 1547 4250 1301 3770 
Q 1056 3291 1056 2328 
Q 1056 1369 1301 889 
Q 1547 409 2034 409 
Q 2525 409 2770 889 
Q 3016 1369 3016 2328 
Q 3016 3291 2770 3770 
Q 2525 4250 2034 4250 
z
M 2034 4750 
Q 2819 4750 3233 4129 
Q 3647 3509 3647 2328 
Q 3647 1150 3233 529 
Q 2819 -91 2034 -91 
Q 1250 -91 836 529 
Q 422 1150 422 2328 
Q 422 3509 836 4129 
Q 1250 4750 2034 4750 
z
" transform="scale(0.015625)"/>
       </defs>
       <use xlink:href="#DejaVuSans-30"/>
      </g>
     </g>
    </g>
    <g id="xtick_2">
     <g id="line2d_3">
      <path d="M 100.431934 248.2 
L 100.431934 25.8 
" clip-path="url(#pbf6d4c5199)" style="fill: none; stroke: #b0b0b0; stroke-opacity: 0.3; stroke-width: 0.8; stroke-linecap: square"/>
     </g>
     <g id="line2d_4">
      <g>
       <use xlink:href="#ma63e81f603" x="100.431934" y="248.2" style="stroke: #000000; stroke-width: 0.8"/>
      </g>
     </g>
     <g id="text_2">
      <!-- 25 -->
      <g transform="translate(94.069434 262.798438) scale(0.1 -0.1)">
       <defs>
        <path id="DejaVuSans-32" d="M 1228 531 
L 3431 531 
L 3431 0 
L 469 0 
L 469 531 
Q 828 903 1448 1529 
Q 2069 2156 2228 2338 
Q 2531 2678 2651 2914 
Q 2772 3150 2772 3378 
Q 2772 3750 2511 3984 
Q 2250 4219 1831 4219 
Q 1534 4219 1204 4116 
Q 875 4013 500 3803 
L 500 4441 
Q 881 4594 1212 4672 
Q 1544 4750 1819 4750 
Q 2544 4750 2975 4387 
Q 3406 4025 3406 3419 
Q 3406 3131 3298 2873 
Q 3191 2616 2906 2266 
Q 2828 2175 2409 1742 
Q 1991 1309 1228 531 
z
" transform="scale(0.015625)"/>
        <path id="DejaVuSans-35" d="M 691 4666 
L 3169 4666 
L 3169 4134 
L 1269 4134 
L 1269 2991 
Q 1406 3038 1543 3061 
Q 1681 3084 1819 3084 
Q 2600 3084 3056 2656 
Q 3513 2228 3513 1497 
Q 3513 744 3044 326 
Q 2575 -91 1722 -91 
Q 1428 -91 1123 -41 
Q 819 9 494 109 
L 494 744 
Q 775 591 1075 516 
Q 1375 441 1709 441 
Q 2250 441 2565 725 
Q 2881 1009 2881 1497 
Q 2881 1984 2565 2268 
Q 2250 2553 1709 2553 
Q 1456 2553 1204 2497 
Q 953 2441 691 2322 
L 691 4666 
z
" transform="scale(0.015625)"/>
       </defs>
       <use xlink:href="#DejaVuSans-32"/>
       <use xlink:href="#DejaVuSans-35" transform="translate(63.623047 0)"/>
      </g>
     </g>
    </g>
    <g id="xtick_3">
     <g id="line2d_5">
      <path d="M 135.221649 248.2 
L 135.221649 25.8 
" clip-path="url(#pbf6d4c5199)" style="fill: none; stroke: #b0b0b0; stroke-opacity: 0.3; stroke-width: 0.8; stroke-linecap: square"/>
     </g>
     <g id="line2d_6">
      <g>
       <use xlink:href="#ma63e81f603" x="135.221649" y="248.2" style="stroke: #000000; stroke-width: 0.8"/>
      </g>
     </g>
     <g id="text_3">
      <!-- 50 -->
      <g transform="translate(128.859149 262.798438) scale(0.1 -0.1)">
       <use xlink:href="#DejaVuSans-35"/>
       <use xlink:href="#DejaVuSans-30" transform="translate(63.623047 0)"/>
      </g>
     </g>
    </g>
    <g id="xtick_4">
     <g id="line2d_7">
      <path d="M 170.011365 248.2 
L 170.011365 25.8 
" clip-path="url(#pbf6d4c5199)" style="fill: none; stroke: #b0b0b0; stroke-opacity: 0.3; stroke-width: 0.8; stroke-linecap: square"/>
     </g>
     <g id="line2d_8">
      <g>
       <use xlink:href="#ma63e81f603" x="170.011365" y="248.2" style="stroke: #000000; stroke-width: 0.8"/>
      </g>
     </g>
     <g id="text_4">
      <!-- 75 -->
      <g transform="translate(163.648865 262.798438) scale(0.1 -0.1)">
       <defs>
        <path id="DejaVuSans-37" d="M 525 4666 
L 3525 4666 
L 3525 4397 
L 1831 0 
L 1172 0 
L 2766 4134 
L 525 4134 
L 525 4666 
z
" transform="scale(0.015625)"/>
       </defs>
       <use xlink:href="#DejaVuSans-37"/>
       <use xlink:href="#DejaVuSans-35" transform="translate(63.623047 0)"/>
      </g>
     </g>
    </g>
    <g id="xtick_5">
     <g id="line2d_9">
      <path d="M 204.801081 248.2 
L 204.801081 25.8 
" clip-path="url(#pbf6d4c5199)" style="fill: none; stroke: #b0b0b0; stroke-opacity: 0.3; stroke-width: 0.8; stroke-linecap: square"/>
     </g>
     <g id="line2d_10">
      <g>
       <use xlink:href="#ma63e81f603" x="204.801081" y="248.2" style="stroke: #000000; stroke-width: 0.8"/>
      </g>
     </g>
     <g id="text_5">
      <!-- 100 -->
      <g transform="translate(195.257331 262.798438) scale(0.1 -0.1)">
       <defs>
        <path id="DejaVuSans-31" d="M 794 531 
L 1825 531 
L 1825 4091 
L 703 3866 
L 703 4441 
L 1819 4666 
L 2450 4666 
L 2450 531 
L 3481 531 
L 3481 0 
L 794 0 
L 794 531 
z
" transform="scale(0.015625)"/>
       </defs>
       <use xlink:href="#DejaVuSans-31"/>
       <use xlink:href="#DejaVuSans-30" transform="translate(63.623047 0)"/>
       <use xlink:href="#DejaVuSans-30" transform="translate(127.246094 0)"/>
      </g>
     </g>
    </g>
    <g id="xtick_6">
     <g id="line2d_11">
      <path d="M 239.590796 248.2 
L 239.590796 25.8 
" clip-path="url(#pbf6d4c5199)" style="fill: none; stroke: #b0b0b0; stroke-opacity: 0.3; stroke-width: 0.8; stroke-linecap: square"/>
     </g>
     <g id="line2d_12">
      <g>
       <use xlink:href="#ma63e81f603" x="239.590796" y="248.2" style="stroke: #000000; stroke-width: 0.8"/>
      </g>
     </g>
     <g id="text_6">
      <!-- 125 -->
      <g transform="translate(230.047046 262.798438) scale(0.1 -0.1)">
       <use xlink:href="#DejaVuSans-31"/>
       <use xlink:href="#DejaVuSans-32" transform="translate(63.623047 0)"/>
       <use xlink:href="#DejaVuSans-35" transform="translate(127.246094 0)"/>
      </g>
     </g>
    </g>
    <g id="xtick_7">
     <g id="line2d_13">
      <path d="M 274.380512 248.2 
L 274.380512 25.8 
" clip-path="url(#pbf6d4c5199)" style="fill: none; stroke: #b0b0b0; stroke-opacity: 0.3; stroke-width: 0.8; stroke-linecap: square"/>
     </g>
     <g id="line2d_14">
      <g>
       <use xlink:href="#ma63e81f603" x="274.380512" y="248.2" style="stroke: #000000; stroke-width: 0.8"/>
      </g>
     </g>
     <g id="text_7">
      <!-- 150 -->
      <g transform="translate(264.836762 262.798438) scale(0.1 -0.1)">
       <use xlink:href="#DejaVuSans-31"/>
       <use xlink:href="#DejaVuSans-35" transform="translate(63.623047 0)"/>
       <use xlink:href="#DejaVuSans-30" transform="translate(127.246094 0)"/>
      </g>
     </g>
    </g>
    <g id="xtick_8">
     <g id="line2d_15">
      <path d="M 309.170228 248.2 
L 309.170228 25.8 
" clip-path="url(#pbf6d4c5199)" style="fill: none; stroke: #b0b0b0; stroke-opacity: 0.3; stroke-width: 0.8; stroke-linecap: square"/>
     </g>
     <g id="line2d_16">
      <g>
       <use xlink:href="#ma63e81f603" x="309.170228" y="248.2" style="stroke: #000000; stroke-width: 0.8"/>
      </g>
     </g>
     <g id="text_8">
      <!-- 175 -->
      <g transform="translate(299.626478 262.798438) scale(0.1 -0.1)">
       <use xlink:href="#DejaVuSans-31"/>
       <use xlink:href="#DejaVuSans-37" transform="translate(63.623047 0)"/>
       <use xlink:href="#DejaVuSans-35" transform="translate(127.246094 0)"/>
      </g>
     </g>
    </g>
    <g id="xtick_9">
     <g id="line2d_17">
      <path d="M 343.959943 248.2 
L 343.959943 25.8 
" clip-path="url(#pbf6d4c5199)" style="fill: none; stroke: #b0b0b0; stroke-opacity: 0.3; stroke-width: 0.8; stroke-linecap: square"/>
     </g>
     <g id="line2d_18">
      <g>
       <use xlink:href="#ma63e81f603" x="343.959943" y="248.2" style="stroke: #000000; stroke-width: 0.8"/>
      </g>
     </g>
     <g id="text_9">
      <!-- 200 -->
      <g transform="translate(334.416193 262.798438) scale(0.1 -0.1)">
       <use xlink:href="#DejaVuSans-32"/>
       <use xlink:href="#DejaVuSans-30" transform="translate(63.623047 0)"/>
       <use xlink:href="#DejaVuSans-30" transform="translate(127.246094 0)"/>
      </g>
     </g>
    </g>
    <g id="text_10">
     <!-- step -->
     <g transform="translate(194.68125 276.476562) scale(0.1 -0.1)">
      <defs>
       <path id="DejaVuSans-73" d="M 2834 3397 
L 2834 2853 
Q 2591 2978 2328 3040 
Q 2066 3103 1784 3103 
Q 1356 3103 1142 2972 
Q 928 2841 928 2578 
Q 928 2378 1081 2264 
Q 1234 2150 1697 2047 
L 1894 2003 
Q 2506 1872 2764 1633 
Q 3022 1394 3022 966 
Q 3022 478 2636 193 
Q 2250 -91 1575 -91 
Q 1294 -91 989 -36 
Q 684 19 347 128 
L 347 722 
Q 666 556 975 473 
Q 1284 391 1588 391 
Q 1994 391 2212 530 
Q 2431 669 2431 922 
Q 2431 1156 2273 1281 
Q 2116 1406 1581 1522 
L 1381 1569 
Q 847 1681 609 1914 
Q 372 2147 372 2553 
Q 372 3047 722 3315 
Q 1072 3584 1716 3584 
Q 2034 3584 2315 3537 
Q 2597 3491 2834 3397 
z
" transform="scale(0.015625)"/>
       <path id="DejaVuSans-74" d="M 1172 4494 
L 1172 3500 
L 2356 3500 
L 2356 3053 
L 1172 3053 
L 1172 1153 
Q 1172 725 1289 603 
Q 1406 481 1766 481 
L 2356 481 
L 2356 0 
L 1766 0 
Q 1100 0 847 248 
Q 594 497 594 1153 
L 594 3053 
L 172 3053 
L 172 3500 
L 594 3500 
L 594 4494 
L 1172 4494 
z
" transform="scale(0.015625)"/>
       <path id="DejaVuSans-65" d="M 3597 1894 
L 3597 1613 
L 953 1613 
Q 991 1019 1311 708 
Q 1631 397 2203 397 
Q 2534 397 2845 478 
Q 3156 559 3463 722 
L 3463 178 
Q 3153 47 2828 -22 
Q 2503 -91 2169 -91 
Q 1331 -91 842 396 
Q 353 884 353 1716 
Q 353 2575 817 3079 
Q 1281 3584 2069 3584 
Q 2775 3584 3186 3129 
Q 3597 2675 3597 1894 
z
M 3022 2063 
Q 3016 2534 2758 2815 
Q 2500 3097 2075 3097 
Q 1594 3097 1305 2825 
Q 1016 2553 972 2059 
L 3022 2063 
z
" transform="scale(0.015625)"/>
       <path id="DejaVuSans-70" d="M 1159 525 
L 1159 -1331 
L 581 -1331 
L 581 3500 
L 1159 3500 
L 1159 2969 
Q 1341 3281 1617 3432 
Q 1894 3584 2278 3584 
Q 2916 3584 3314 3078 
Q 3713 2572 3713 1747 
Q 3713 922 3314 415 
Q 2916 -91 2278 -91 
Q 1894 -91 1617 61 
Q 1341 213 1159 525 
z
M 3116 1747 
Q 3116 2381 2855 2742 
Q 2594 3103 2138 3103 
Q 1681 3103 1420 2742 
Q 1159 2381 1159 1747 
Q 1159 1113 1420 752 
Q 1681 391 2138 391 
Q 2594 391 2855 752 
Q 3116 1113 3116 1747 
z
" transform="scale(0.015625)"/>
      </defs>
      <use xlink:href="#DejaVuSans-73"/>
      <use xlink:href="#DejaVuSans-74" transform="translate(52.099609 0)"/>
      <use xlink:href="#DejaVuSans-65" transform="translate(91.308594 0)"/>
      <use xlink:href="#DejaVuSans-70" transform="translate(152.832031 0)"/>
     </g>
    </g>
   </g>
   <g id="matplotlib.axis_2">
    <g id="ytick_1">
     <g id="line2d_19">
      <path d="M 53.1875 242.300304 
L 357.80625 242.300304 
" clip-path="url(#pbf6d4c5199)" style="fill: none; stroke: #b0b0b0; stroke-opacity: 0.3; stroke-width: 0.8; stroke-linecap: square"/>
     </g>
     <g id="line2d_20">
      <defs>
       <path id="mf02c74ac71" d="M 0 0 
L -3.5 0 
" style="stroke: #000000; stroke-width: 0.8"/>
      </defs>
      <g>
       <use xlink:href="#mf02c74ac71" x="53.1875" y="242.300304" style="stroke: #000000; stroke-width: 0.8"/>
      </g>
     </g>
     <g id="text_11">
      <!-- 0.50 -->
      <g transform="translate(23.921875 246.099523) scale(0.1 -0.1)">
       <defs>
        <path id="DejaVuSans-2e" d="M 684 794 
L 1344 794 
L 1344 0 
L 684 0 
L 684 794 
z
" transform="scale(0.015625)"/>
       </defs>
       <use xlink:href="#DejaVuSans-30"/>
       <use xlink:href="#DejaVuSans-2e" transform="translate(63.623047 0)"/>
       <use xlink:href="#DejaVuSans-35" transform="translate(95.410156 0)"/>
       <use xlink:href="#DejaVuSans-30" transform="translate(159.033203 0)"/>
      </g>
     </g>
    </g>
    <g id="ytick_2">
     <g id="line2d_21">
      <path d="M 53.1875 213.69776 
L 357.80625 213.69776 
" clip-path="url(#pbf6d4c5199)" style="fill: none; stroke: #b0b0b0; stroke-opacity: 0.3; stroke-width: 0.8; stroke-linecap: square"/>
     </g>
     <g id="line2d_22">
      <g>
       <use xlink:href="#mf02c74ac71" x="53.1875" y="213.69776" style="stroke: #000000; stroke-width: 0.8"/>
      </g>
     </g>
     <g id="text_12">
      <!-- 0.75 -->
      <g transform="translate(23.921875 217.496978) scale(0.1 -0.1)">
       <use xlink:href="#DejaVuSans-30"/>
       <use xlink:href="#DejaVuSans-2e" transform="translate(63.623047 0)"/>
       <use xlink:href="#DejaVuSans-37" transform="translate(95.410156 0)"/>
       <use xlink:href="#DejaVuSans-35" transform="translate(159.033203 0)"/>
      </g>
     </g>
    </g>
    <g id="ytick_3">
     <g id="line2d_23">
      <path d="M 53.1875 185.095215 
L 357.80625 185.095215 
" clip-path="url(#pbf6d4c5199)" style="fill: none; stroke: #b0b0b0; stroke-opacity: 0.3; stroke-width: 0.8; stroke-linecap: square"/>
     </g>
     <g id="line2d_24">
      <g>
       <use xlink:href="#mf02c74ac71" x="53.1875" y="185.095215" style="stroke: #000000; stroke-width: 0.8"/>
      </g>
     </g>
     <g id="text_13">
      <!-- 1.00 -->
      <g transform="translate(23.921875 188.894434) scale(0.1 -0.1)">
       <use xlink:href="#DejaVuSans-31"/>
       <use xlink:href="#DejaVuSans-2e" transform="translate(63.623047 0)"/>
       <use xlink:href="#DejaVuSans-30" transform="translate(95.410156 0)"/>
       <use xlink:href="#DejaVuSans-30" transform="translate(159.033203 0)"/>
      </g>
     </g>
    </g>
    <g id="ytick_4">
     <g id="line2d_25">
      <path d="M 53.1875 156.49267 
L 357.80625 156.49267 
" clip-path="url(#pbf6d4c5199)" style="fill: none; stroke: #b0b0b0; stroke-opacity: 0.3; stroke-width: 0.8; stroke-linecap: square"/>
     </g>
     <g id="line2d_26">
      <g>
       <use xlink:href="#mf02c74ac71" x="53.1875" y="156.49267" style="stroke: #000000; stroke-width: 0.8"/>
      </g>
     </g>
     <g id="text_14">
      <!-- 1.25 -->
      <g transform="translate(23.921875 160.291889) scale(0.1 -0.1)">
       <use xlink:href="#DejaVuSans-31"/>
       <use xlink:href="#DejaVuSans-2e" transform="translate(63.623047 0)"/>
       <use xlink:href="#DejaVuSans-32" transform="translate(95.410156 0)"/>
       <use xlink:href="#DejaVuSans-35" transform="translate(159.033203 0)"/>
      </g>
     </g>
    </g>
    <g id="ytick_5">
     <g id="line2d_27">
      <path d="M 53.1875 127.890126 
L 357.80625 127.890126 
" clip-path="url(#pbf6d4c5199)" style="fill: none; stroke: #b0b0b0; stroke-opacity: 0.3; stroke-width: 0.8; stroke-linecap: square"/>
     </g>
     <g id="line2d_28">
      <g>
       <use xlink:href="#mf02c74ac71" x="53.1875" y="127.890126" style="stroke: #000000; stroke-width: 0.8"/>
      </g>
     </g>
     <g id="text_15">
      <!-- 1.50 -->
      <g transform="translate(23.921875 131.689345) scale(0.1 -0.1)">
       <use xlink:href="#DejaVuSans-31"/>
       <use xlink:href="#DejaVuSans-2e" transform="translate(63.623047 0)"/>
       <use xlink:href="#DejaVuSans-35" transform="translate(95.410156 0)"/>
       <use xlink:href="#DejaVuSans-30" transform="translate(159.033203 0)"/>
      </g>
     </g>
    </g>
    <g id="ytick_6">
     <g id="line2d_29">
      <path d="M 53.1875 99.287581 
L 357.80625 99.287581 
" clip-path="url(#pbf6d4c5199)" style="fill: none; stroke: #b0b0b0; stroke-opacity: 0.3; stroke-width: 0.8; stroke-linecap: square"/>
     </g>
     <g id="line2d_30">
      <g>
       <use xlink:href="#mf02c74ac71" x="53.1875" y="99.287581" style="stroke: #000000; stroke-width: 0.8"/>
      </g>
     </g>
     <g id="text_16">
      <!-- 1.75 -->
      <g transform="translate(23.921875 103.0868) scale(0.1 -0.1)">
       <use xlink:href="#DejaVuSans-31"/>
       <use xlink:href="#DejaVuSans-2e" transform="translate(63.623047 0)"/>
       <use xlink:href="#DejaVuSans-37" transform="translate(95.410156 0)"/>
       <use xlink:href="#DejaVuSans-35" transform="translate(159.033203 0)"/>
      </g>
     </g>
    </g>
    <g id="ytick_7">
     <g id="line2d_31">
      <path d="M 53.1875 70.685037 
L 357.80625 70.685037 
" clip-path="url(#pbf6d4c5199)" style="fill: none; stroke: #b0b0b0; stroke-opacity: 0.3; stroke-width: 0.8; stroke-linecap: square"/>
     </g>
     <g id="line2d_32">
      <g>
       <use xlink:href="#mf02c74ac71" x="53.1875" y="70.685037" style="stroke: #000000; stroke-width: 0.8"/>
      </g>
     </g>
     <g id="text_17">
      <!-- 2.00 -->
      <g transform="translate(23.921875 74.484255) scale(0.1 -0.1)">
       <use xlink:href="#DejaVuSans-32"/>
       <use xlink:href="#DejaVuSans-2e" transform="translate(63.623047 0)"/>
       <use xlink:href="#DejaVuSans-30" transform="translate(95.410156 0)"/>
       <use xlink:href="#DejaVuSans-30" transform="translate(159.033203 0)"/>
      </g>
     </g>
    </g>
    <g id="ytick_8">
     <g id="line2d_33">
      <path d="M 53.1875 42.082492 
L 357.80625 42.082492 
" clip-path="url(#pbf6d4c5199)" style="fill: none; stroke: #b0b0b0; stroke-opacity: 0.3; stroke-width: 0.8; stroke-linecap: square"/>
     </g>
     <g id="line2d_34">
      <g>
       <use xlink:href="#mf02c74ac71" x="53.1875" y="42.082492" style="stroke: #000000; stroke-width: 0.8"/>
      </g>
     </g>
     <g id="text_18">
      <!-- 2.25 -->
      <g transform="translate(23.921875 45.881711) scale(0.1 -0.1)">
       <use xlink:href="#DejaVuSans-32"/>
       <use xlink:href="#DejaVuSans-2e" transform="translate(63.623047 0)"/>
       <use xlink:href="#DejaVuSans-32" transform="translate(95.410156 0)"/>
       <use xlink:href="#DejaVuSans-35" transform="translate(159.033203 0)"/>
      </g>
     </g>
    </g>
    <g id="text_19">
     <!-- loss -->
     <g transform="translate(17.842187 146.657813) rotate(-90) scale(0.1 -0.1)">
      <defs>
       <path id="DejaVuSans-6c" d="M 603 4863 
L 1178 4863 
L 1178 0 
L 603 0 
L 603 4863 
z
" transform="scale(0.015625)"/>
       <path id="DejaVuSans-6f" d="M 1959 3097 
Q 1497 3097 1228 2736 
Q 959 2375 959 1747 
Q 959 1119 1226 758 
Q 1494 397 1959 397 
Q 2419 397 2687 759 
Q 2956 1122 2956 1747 
Q 2956 2369 2687 2733 
Q 2419 3097 1959 3097 
z
M 1959 3584 
Q 2709 3584 3137 3096 
Q 3566 2609 3566 1747 
Q 3566 888 3137 398 
Q 2709 -91 1959 -91 
Q 1206 -91 779 398 
Q 353 888 353 1747 
Q 353 2609 779 3096 
Q 1206 3584 1959 3584 
z
" transform="scale(0.015625)"/>
      </defs>
      <use xlink:href="#DejaVuSans-6c"/>
      <use xlink:href="#DejaVuSans-6f" transform="translate(27.783203 0)"/>
      <use xlink:href="#DejaVuSans-73" transform="translate(88.964844 0)"/>
      <use xlink:href="#DejaVuSans-73" transform="translate(141.064453 0)"/>
     </g>
    </g>
   </g>
   <g id="line2d_35">
    <path d="M 67.033807 35.909091 
L 68.425395 36.453659 
L 69.816984 38.598372 
L 71.208573 38.621212 
L 72.600161 42.153277 
L 73.99175 46.736054 
L 75.383339 43.876525 
L 78.166516 55.976238 
L 79.558104 64.995084 
L 80.949693 70.766337 
L 82.341282 78.239203 
L 83.73287 92.15483 
L 85.124459 98.695941 
L 86.516048 110.550471 
L 87.907636 116.049708 
L 89.299225 129.835981 
L 90.690813 131.678609 
L 96.257168 169.214029 
L 97.648757 186.200432 
L 99.040345 170.713988 
L 100.431934 173.970986 
L 101.823522 193.64531 
L 103.215111 182.272759 
L 104.6067 180.604482 
L 105.998288 194.422388 
L 107.389877 197.858527 
L 108.781466 194.281436 
L 110.173054 194.466111 
L 111.564643 184.103941 
L 112.956231 172.896589 
L 114.34782 208.762014 
L 115.739409 186.71219 
L 117.130997 203.029459 
L 118.522586 186.385596 
L 119.914175 209.790761 
L 121.305763 191.58855 
L 122.697352 211.015671 
L 124.08894 171.201196 
L 125.480529 182.543915 
L 126.872118 188.296377 
L 128.263706 205.7377 
L 129.655295 195.043569 
L 131.046884 198.164937 
L 132.438472 206.44095 
L 133.830061 200.595298 
L 135.221649 195.86555 
L 136.613238 180.283735 
L 138.004827 202.184847 
L 139.396415 207.160432 
L 140.788004 207.325351 
L 142.179593 198.02499 
L 143.571181 204.099037 
L 144.96277 200.274287 
L 146.354358 203.573222 
L 147.745947 193.217322 
L 149.137536 207.973026 
L 150.529124 212.599272 
L 151.920713 203.303225 
L 153.312302 202.102573 
L 154.70389 208.957151 
L 156.095479 194.798076 
L 157.487067 208.28802 
L 158.878656 216.709308 
L 160.270245 208.769191 
L 161.661833 214.623327 
L 163.053422 194.71535 
L 164.445011 194.962128 
L 165.836599 210.978778 
L 167.228188 216.073133 
L 168.619776 199.533427 
L 170.011365 206.584223 
L 171.402954 207.738135 
L 172.794542 188.08982 
L 174.186131 196.909722 
L 175.57772 202.936138 
L 176.969308 214.293451 
L 178.360897 213.433472 
L 179.752485 194.574928 
L 181.144074 196.506815 
L 182.535663 215.368487 
L 183.927251 198.422573 
L 185.31884 210.266471 
L 186.710429 204.097217 
L 188.102017 206.479962 
L 190.885194 206.230673 
L 192.276783 176.63051 
L 193.668372 210.192647 
L 195.05996 200.575015 
L 196.451549 215.500565 
L 197.843138 210.785026 
L 199.234726 211.831628 
L 200.626315 213.092765 
L 202.017903 211.496251 
L 203.409492 189.575962 
L 204.801081 207.89371 
L 206.192669 222.883814 
L 207.584258 203.480863 
L 208.975847 210.498883 
L 210.367435 214.83886 
L 211.759024 195.593748 
L 213.150612 223.044667 
L 214.542201 215.029968 
L 215.93379 208.420232 
L 217.325378 222.402928 
L 218.716967 205.459667 
L 220.108556 212.432404 
L 221.500144 209.836735 
L 222.891733 211.270434 
L 224.283321 222.867939 
L 225.67491 210.762181 
L 227.066499 199.941215 
L 228.458087 205.527722 
L 229.849676 195.528964 
L 231.241265 218.522013 
L 232.632853 228.460545 
L 234.024442 211.816739 
L 235.41603 206.97621 
L 236.807619 221.216497 
L 238.199208 213.390374 
L 239.590796 224.302463 
L 240.982385 214.734639 
L 242.373974 222.911246 
L 243.765562 201.589881 
L 245.157151 216.509423 
L 246.548739 214.303427 
L 247.940328 193.449342 
L 249.331917 210.057603 
L 250.723505 218.529169 
L 252.115094 208.880683 
L 253.506683 206.51688 
L 254.898271 210.046737 
L 256.28986 205.693659 
L 257.681448 213.849393 
L 259.073037 199.403614 
L 260.464626 222.844173 
L 261.856214 211.357906 
L 263.247803 213.386798 
L 264.639392 218.564291 
L 266.03098 213.45582 
L 267.422569 227.176001 
L 268.814157 207.076007 
L 270.205746 211.303469 
L 271.597335 212.920255 
L 272.988923 210.645831 
L 274.380512 220.791845 
L 275.772101 216.25319 
L 277.163689 221.856218 
L 278.555278 219.401099 
L 279.946866 204.784573 
L 281.338455 206.298309 
L 282.730044 217.339008 
L 284.121632 198.59912 
L 285.513221 216.477891 
L 286.90481 218.042229 
L 288.296398 225.691543 
L 289.687987 217.908326 
L 291.079575 223.084445 
L 292.471164 220.727184 
L 293.862753 224.000262 
L 295.254341 194.708204 
L 296.64593 223.010502 
L 298.037519 210.936509 
L 299.429107 212.172024 
L 300.820696 227.273507 
L 302.212284 212.762248 
L 303.603873 228.219816 
L 304.995462 223.541711 
L 306.38705 232.520048 
L 307.778639 207.298671 
L 309.170228 216.957745 
L 310.561816 224.177775 
L 311.953405 205.972245 
L 313.344993 217.586221 
L 314.736582 221.47409 
L 316.128171 218.80431 
L 317.519759 232.583617 
L 318.911348 205.326414 
L 320.302937 214.339909 
L 321.694525 227.530113 
L 323.086114 218.347068 
L 324.477702 219.77458 
L 325.869291 236.401167 
L 327.26088 213.594428 
L 328.652468 214.684208 
L 330.044057 221.00328 
L 331.435646 221.515074 
L 332.827234 216.224855 
L 334.218823 214.475685 
L 335.610411 216.264887 
L 337.002 212.024884 
L 338.393589 210.919243 
L 339.785177 224.654502 
L 341.176766 202.623217 
L 342.568355 215.665437 
L 343.959943 222.291467 
L 343.959943 222.291467 
" clip-path="url(#pbf6d4c5199)" style="fill: none; stroke: #1f77b4; stroke-width: 1.5; stroke-linecap: square"/>
   </g>
   <g id="line2d_36">
    <path d="M 67.033807 35.909091 
L 68.425395 36.45365 
L 69.816984 38.625076 
L 71.208573 38.606273 
L 72.600161 42.106887 
L 73.99175 46.439438 
L 75.383339 43.963513 
L 76.774927 50.016729 
L 78.166516 56.891017 
L 79.558104 65.570303 
L 80.949693 71.902432 
L 82.341282 79.451802 
L 83.73287 93.522002 
L 85.124459 97.234817 
L 86.516048 107.360379 
L 87.907636 113.489991 
L 89.299225 125.668595 
L 90.690813 126.383334 
L 92.082402 134.854879 
L 94.865579 153.323283 
L 96.257168 164.129365 
L 97.648757 180.442401 
L 99.040345 165.69834 
L 100.431934 168.652317 
L 101.823522 186.051112 
L 103.215111 174.293748 
L 104.6067 179.914538 
L 105.998288 193.689752 
L 107.389877 197.419797 
L 108.781466 192.448428 
L 110.173054 194.50738 
L 111.564643 183.951603 
L 112.956231 176.767672 
L 114.34782 209.624072 
L 115.739409 184.127025 
L 117.130997 203.823375 
L 118.522586 188.967087 
L 119.914175 209.007128 
L 121.305763 189.388305 
L 122.697352 210.982322 
L 124.08894 170.841074 
L 125.480529 185.135399 
L 126.872118 188.119389 
L 128.263706 200.274344 
L 129.655295 188.851644 
L 132.438472 208.819065 
L 133.830061 202.415251 
L 135.221649 194.763393 
L 136.613238 172.54618 
L 138.004827 195.653626 
L 139.396415 208.880424 
L 140.788004 209.212562 
L 142.179593 202.159027 
L 143.571181 200.043819 
L 144.96277 190.921589 
L 146.354358 199.574153 
L 147.745947 189.134967 
L 149.137536 206.895635 
L 150.529124 216.257445 
L 151.920713 202.19722 
L 153.312302 191.6945 
L 154.70389 202.305336 
L 156.095479 196.139361 
L 157.487067 209.201982 
L 158.878656 217.645289 
L 160.270245 202.830478 
L 161.661833 210.575251 
L 163.053422 191.555562 
L 164.445011 190.437884 
L 165.836599 205.188487 
L 167.228188 206.026596 
L 168.619776 198.229389 
L 170.011365 205.103966 
L 171.402954 206.82324 
L 172.794542 191.353274 
L 174.186131 197.800394 
L 175.57772 192.44097 
L 176.969308 210.087672 
L 178.360897 212.426087 
L 179.752485 197.382936 
L 181.144074 198.485932 
L 182.535663 213.034061 
L 183.927251 200.723222 
L 185.31884 205.633266 
L 186.710429 202.629289 
L 189.493606 208.002995 
L 190.885194 205.777404 
L 192.276783 181.151437 
L 193.668372 207.991997 
L 195.05996 197.972919 
L 196.451549 210.246679 
L 197.843138 208.45239 
L 199.234726 210.4669 
L 200.626315 211.837995 
L 202.017903 213.664074 
L 203.409492 192.287513 
L 204.801081 208.770761 
L 206.192669 221.101824 
L 207.584258 201.706422 
L 208.975847 205.691112 
L 210.367435 216.725857 
L 211.759024 195.618504 
L 213.150612 218.48612 
L 214.542201 209.820916 
L 215.93379 207.76108 
L 217.325378 220.60949 
L 218.716967 205.081164 
L 220.108556 213.456004 
L 221.500144 208.728513 
L 222.891733 210.63069 
L 224.283321 222.172114 
L 225.67491 212.732681 
L 227.066499 199.772919 
L 228.458087 202.938288 
L 229.849676 194.055062 
L 231.241265 218.48319 
L 232.632853 231.040034 
L 234.024442 210.877297 
L 235.41603 204.830588 
L 236.807619 218.984703 
L 238.199208 214.43307 
L 239.590796 219.583765 
L 240.982385 215.234347 
L 242.373974 222.173076 
L 243.765562 201.951138 
L 245.157151 216.097087 
L 246.548739 218.274083 
L 247.940328 194.214492 
L 249.331917 207.650517 
L 250.723505 211.372888 
L 252.115094 206.370729 
L 253.506683 204.530654 
L 254.898271 207.630427 
L 256.28986 206.667281 
L 257.681448 212.25628 
L 259.073037 200.696236 
L 260.464626 223.942268 
L 261.856214 213.947856 
L 263.247803 214.809266 
L 264.639392 221.043573 
L 266.03098 212.41626 
L 267.422569 226.540908 
L 268.814157 208.021491 
L 270.205746 211.208691 
L 271.597335 213.140667 
L 272.988923 209.687193 
L 274.380512 222.309143 
L 275.772101 217.063884 
L 277.163689 226.454129 
L 278.555278 218.679072 
L 279.946866 209.920368 
L 281.338455 208.857479 
L 282.730044 219.065474 
L 284.121632 201.152207 
L 285.513221 218.464628 
L 286.90481 221.833305 
L 288.296398 224.127962 
L 289.687987 221.746408 
L 291.079575 225.033021 
L 292.471164 226.59329 
L 293.862753 226.944458 
L 295.254341 196.144326 
L 296.64593 227.182536 
L 298.037519 216.559941 
L 299.429107 215.369908 
L 300.820696 226.97142 
L 302.212284 217.089925 
L 303.603873 228.377073 
L 304.995462 224.119311 
L 306.38705 233.222494 
L 307.778639 209.684365 
L 309.170228 218.85892 
L 310.561816 227.09906 
L 311.953405 210.381837 
L 313.344993 220.597272 
L 314.736582 221.399008 
L 316.128171 221.780946 
L 317.519759 237.478521 
L 318.911348 212.282048 
L 320.302937 220.493577 
L 321.694525 232.221432 
L 323.086114 220.189294 
L 324.477702 220.172634 
L 325.869291 238.090909 
L 327.26088 221.835139 
L 328.652468 221.250255 
L 330.044057 224.095904 
L 331.435646 224.993534 
L 332.827234 220.554128 
L 334.218823 217.743424 
L 335.610411 220.903176 
L 337.002 216.424286 
L 338.393589 217.973194 
L 339.785177 224.871554 
L 341.176766 206.238879 
L 342.568355 217.97443 
L 343.959943 225.575175 
L 343.959943 225.575175 
" clip-path="url(#pbf6d4c5199)" style="fill: none; stroke: #ff7f0e; stroke-width: 1.5; stroke-linecap: square"/>
   </g>
   <g id="line2d_37">
    <path d="M 67.033807 35.909091 
L 68.425395 36.45365 
L 69.816984 38.625076 
L 71.208573 38.606273 
L 72.600161 42.106887 
L 73.99175 46.439438 
L 75.383339 43.963513 
L 76.774927 50.016729 
L 78.166516 56.891017 
L 79.558104 65.570303 
L 80.949693 72.435148 
L 82.341282 80.722015 
L 83.73287 96.555675 
L 85.124459 102.098074 
L 86.516048 115.152128 
L 87.907636 123.063084 
L 89.299225 136.171792 
L 90.690813 134.921027 
L 92.082402 150.629942 
L 93.473991 160.845543 
L 94.865579 170.191055 
L 96.257168 169.480894 
L 97.648757 189.92892 
L 99.040345 178.538681 
L 100.431934 175.191857 
L 101.823522 199.266946 
L 103.215111 187.399206 
L 104.6067 174.427521 
L 105.998288 200.434849 
L 107.389877 203.960818 
L 108.781466 197.317214 
L 110.173054 191.973649 
L 111.564643 177.672788 
L 112.956231 177.906399 
L 114.34782 208.305416 
L 115.739409 180.035168 
L 117.130997 204.285845 
L 118.522586 189.373266 
L 119.914175 210.648709 
L 121.305763 189.962948 
L 122.697352 212.112425 
L 124.08894 170.80256 
L 125.480529 181.986565 
L 126.872118 189.954795 
L 128.263706 207.31977 
L 129.655295 191.691904 
L 131.046884 193.79418 
L 132.438472 205.961132 
L 133.830061 199.032492 
L 135.221649 196.974331 
L 136.613238 178.931454 
L 138.004827 206.801098 
L 139.396415 208.732234 
L 140.788004 209.477272 
L 142.179593 200.05824 
L 143.571181 200.201408 
L 144.96277 198.991607 
L 146.354358 202.942596 
L 147.745947 195.264378 
L 149.137536 211.147444 
L 150.529124 207.574261 
L 151.920713 203.08688 
L 153.312302 202.543785 
L 154.70389 209.805161 
L 156.095479 194.948998 
L 157.487067 206.935389 
L 158.878656 215.891747 
L 160.270245 208.422984 
L 161.661833 215.463824 
L 163.053422 197.789192 
L 164.445011 194.435053 
L 165.836599 212.599512 
L 167.228188 215.769609 
L 168.619776 205.569684 
L 170.011365 210.177149 
L 171.402954 204.499821 
L 172.794542 188.568027 
L 174.186131 201.986649 
L 175.57772 200.88027 
L 176.969308 210.655615 
L 178.360897 207.057427 
L 179.752485 196.547092 
L 181.144074 202.79281 
L 182.535663 215.46825 
L 183.927251 203.155995 
L 185.31884 207.482663 
L 186.710429 210.653758 
L 188.102017 209.838926 
L 189.493606 208.77556 
L 190.885194 208.105586 
L 192.276783 172.556456 
L 193.668372 212.289765 
L 195.05996 197.059934 
L 196.451549 215.392691 
L 197.843138 211.801007 
L 199.234726 212.446758 
L 200.626315 214.792938 
L 202.017903 209.008012 
L 203.409492 195.711821 
L 204.801081 208.950452 
L 206.192669 223.596971 
L 207.584258 207.620919 
L 208.975847 210.358744 
L 210.367435 219.47007 
L 211.759024 197.000572 
L 213.150612 224.467499 
L 214.542201 214.435071 
L 215.93379 205.760858 
L 217.325378 220.913023 
L 218.716967 205.356647 
L 220.108556 212.385557 
L 221.500144 208.576668 
L 222.891733 210.711675 
L 224.283321 220.55113 
L 227.066499 198.615448 
L 228.458087 206.475895 
L 229.849676 197.680877 
L 231.241265 216.934102 
L 232.632853 226.963471 
L 234.024442 211.548762 
L 235.41603 206.530352 
L 236.807619 222.444053 
L 238.199208 212.510888 
L 239.590796 220.932495 
L 240.982385 214.109255 
L 242.373974 226.659031 
L 243.765562 205.871769 
L 245.157151 219.362403 
L 246.548739 215.988173 
L 247.940328 193.873516 
L 249.331917 207.778087 
L 250.723505 220.169018 
L 252.115094 210.914924 
L 253.506683 207.416226 
L 254.898271 211.46981 
L 256.28986 207.642275 
L 257.681448 213.612642 
L 259.073037 199.76946 
L 260.464626 223.694568 
L 261.856214 211.00526 
L 263.247803 213.631621 
L 264.639392 215.999743 
L 266.03098 210.832871 
L 267.422569 223.532403 
L 268.814157 211.651505 
L 270.205746 213.445099 
L 271.597335 212.618366 
L 272.988923 212.872976 
L 274.380512 218.596517 
L 275.772101 209.844679 
L 277.163689 217.264422 
L 278.555278 217.508392 
L 279.946866 210.339005 
L 281.338455 208.014522 
L 282.730044 220.403795 
L 284.121632 200.27451 
L 285.513221 215.135873 
L 286.90481 221.21251 
L 288.296398 221.875972 
L 289.687987 218.480146 
L 291.079575 220.901819 
L 292.471164 219.779792 
L 293.862753 224.482158 
L 295.254341 194.609434 
L 296.64593 226.407701 
L 298.037519 218.074921 
L 299.429107 216.555909 
L 300.820696 221.617679 
L 302.212284 213.223983 
L 303.603873 228.219889 
L 304.995462 223.976124 
L 306.38705 233.47613 
L 307.778639 211.338132 
L 309.170228 215.768789 
L 310.561816 221.194632 
L 311.953405 206.593202 
L 313.344993 216.991874 
L 314.736582 220.619453 
L 316.128171 219.937688 
L 317.519759 233.498486 
L 318.911348 208.535984 
L 320.302937 216.229072 
L 321.694525 228.045463 
L 323.086114 216.641165 
L 324.477702 221.929708 
L 325.869291 234.677784 
L 327.26088 218.975167 
L 328.652468 217.897555 
L 330.044057 218.754153 
L 331.435646 222.478361 
L 332.827234 213.645548 
L 334.218823 212.161108 
L 335.610411 212.453832 
L 337.002 211.323132 
L 338.393589 215.063211 
L 339.785177 221.342107 
L 341.176766 200.047208 
L 342.568355 215.907238 
L 343.959943 223.293429 
L 343.959943 223.293429 
" clip-path="url(#pbf6d4c5199)" style="fill: none; stroke: #2ca02c; stroke-width: 1.5; stroke-linecap: square"/>
   </g>
   <g id="line2d_38">
    <path d="M 67.033807 35.909091 
L 68.425395 36.45365 
L 69.816984 38.625076 
L 71.208573 38.606273 
L 72.600161 42.106887 
L 73.99175 46.439438 
L 75.383339 43.963513 
L 76.774927 50.016729 
L 78.166516 56.891017 
L 79.558104 65.570303 
L 80.949693 72.435148 
L 82.341282 80.722015 
L 83.73287 96.555675 
L 85.124459 102.098074 
L 86.516048 115.152128 
L 87.907636 123.063084 
L 89.299225 136.171792 
L 90.690813 134.921027 
L 92.082402 150.629942 
L 93.473991 160.845543 
L 94.865579 170.191055 
L 96.257168 169.480894 
L 97.648757 189.92892 
L 99.040345 178.538681 
L 100.431934 175.191857 
L 101.823522 199.266946 
L 103.215111 187.399206 
L 104.6067 174.427521 
L 105.998288 200.434849 
L 107.389877 203.960818 
L 108.781466 197.317214 
L 110.173054 191.973649 
L 111.564643 177.672788 
L 112.956231 177.906399 
L 114.34782 208.305416 
L 115.739409 180.035168 
L 117.130997 204.285845 
L 118.522586 189.373266 
L 119.914175 210.648709 
L 121.305763 189.962948 
L 122.697352 212.112425 
L 124.08894 170.80256 
L 125.480529 181.986565 
L 126.872118 189.954795 
L 128.263706 207.31977 
L 129.655295 191.691904 
L 131.046884 193.79418 
L 132.438472 205.961132 
L 133.830061 199.032492 
L 135.221649 196.974331 
L 136.613238 178.931454 
L 138.004827 206.801098 
L 139.396415 208.732234 
L 140.788004 209.477272 
L 142.179593 200.05824 
L 143.571181 200.201408 
L 144.96277 198.991607 
L 146.354358 202.942596 
L 147.745947 195.264378 
L 149.137536 211.147444 
L 150.529124 207.574261 
L 151.920713 203.08688 
L 153.312302 202.543785 
L 154.70389 209.805161 
L 156.095479 194.948998 
L 157.487067 206.935389 
L 158.878656 215.891747 
L 160.270245 208.422984 
L 161.661833 215.463824 
L 163.053422 197.789192 
L 164.445011 194.435053 
L 165.836599 212.599512 
L 167.228188 215.769609 
L 168.619776 205.569684 
L 170.011365 210.177149 
L 171.402954 204.499821 
L 172.794542 188.568027 
L 174.186131 201.986649 
L 175.57772 200.88027 
L 176.969308 210.655615 
L 178.360897 207.057427 
L 179.752485 196.547092 
L 181.144074 202.79281 
L 182.535663 215.46825 
L 183.927251 203.155995 
L 185.31884 207.482663 
L 186.710429 210.653758 
L 188.102017 209.838926 
L 189.493606 208.77556 
L 190.885194 208.105586 
L 192.276783 172.556456 
L 193.668372 212.289765 
L 195.05996 197.059934 
L 196.451549 215.392691 
L 197.843138 211.801007 
L 199.234726 212.446758 
L 200.626315 214.792938 
L 202.017903 209.008012 
L 203.409492 195.711821 
L 204.801081 208.950452 
L 206.192669 223.596971 
L 207.584258 207.620919 
L 208.975847 210.358744 
L 210.367435 219.470497 
L 211.759024 196.992777 
L 213.150612 224.48895 
L 214.542201 214.462587 
L 215.93379 205.771853 
L 217.325378 220.917117 
L 218.716967 205.35225 
L 220.108556 212.382122 
L 221.500144 208.586645 
L 222.891733 210.716937 
L 224.283321 220.567328 
L 227.066499 198.624886 
L 228.458087 206.474352 
L 229.849676 197.672499 
L 231.241265 216.932904 
L 232.632853 226.968499 
L 234.024442 211.555873 
L 235.41603 206.543643 
L 236.807619 222.444014 
L 238.199208 212.516309 
L 239.590796 220.925639 
L 240.982385 214.103494 
L 242.373974 226.661588 
L 243.765562 205.873837 
L 245.157151 219.35931 
L 246.548739 215.98888 
L 247.940328 193.882095 
L 249.331917 207.768208 
L 250.723505 220.160991 
L 252.115094 210.907052 
L 253.506683 207.422332 
L 254.898271 211.482898 
L 256.28986 207.663865 
L 257.681448 213.607123 
L 259.073037 199.760447 
L 260.464626 223.687712 
L 261.856214 210.995538 
L 263.247803 213.628909 
L 264.639392 215.995706 
L 266.03098 210.834294 
L 267.422569 223.538172 
L 268.814157 211.647105 
L 270.205746 213.436721 
L 271.597335 212.631279 
L 272.988923 212.862356 
L 274.380512 218.595605 
L 275.772101 209.852976 
L 277.163689 217.264669 
L 278.555278 217.531189 
L 279.946866 210.250957 
L 281.338455 208.019707 
L 282.730044 220.40304 
L 284.121632 200.286464 
L 285.513221 215.121928 
L 286.90481 221.232961 
L 288.296398 221.851681 
L 289.687987 218.486104 
L 291.079575 220.900746 
L 292.471164 219.795088 
L 293.862753 224.497593 
L 295.254341 194.530327 
L 296.64593 226.147444 
L 298.037519 217.909878 
L 299.429107 216.651892 
L 300.820696 222.199681 
L 302.212284 213.635892 
L 303.603873 228.530812 
L 304.995462 223.945757 
L 306.38705 233.505006 
L 307.778639 211.412259 
L 309.170228 216.058067 
L 310.561816 221.346058 
L 311.953405 206.550422 
L 313.344993 217.085322 
L 314.736582 220.640255 
L 316.128171 219.944201 
L 317.519759 233.633387 
L 318.911348 208.548204 
L 320.302937 216.217806 
L 321.694525 228.199435 
L 323.086114 216.729085 
L 324.477702 221.999086 
L 325.869291 234.711283 
L 327.26088 218.833679 
L 328.652468 217.914383 
L 330.044057 218.872061 
L 331.435646 222.531291 
L 332.827234 213.809268 
L 334.218823 212.264547 
L 335.610411 212.348714 
L 337.002 211.374611 
L 338.393589 215.037913 
L 339.785177 221.455941 
L 341.176766 200.019313 
L 342.568355 216.130416 
L 343.959943 223.228063 
L 343.959943 223.228063 
" clip-path="url(#pbf6d4c5199)" style="fill: none; stroke: #d62728; stroke-width: 1.5; stroke-linecap: square"/>
   </g>
   <g id="patch_3">
    <path d="M 53.1875 248.2 
L 53.1875 25.8 
" style="fill: none; stroke: #000000; stroke-width: 0.8; stroke-linejoin: miter; stroke-linecap: square"/>
   </g>
   <g id="patch_4">
    <path d="M 357.80625 248.2 
L 357.80625 25.8 
" style="fill: none; stroke: #000000; stroke-width: 0.8; stroke-linejoin: miter; stroke-linecap: square"/>
   </g>
   <g id="patch_5">
    <path d="M 53.1875 248.2 
L 357.80625 248.2 
" style="fill: none; stroke: #000000; stroke-width: 0.8; stroke-linejoin: miter; stroke-linecap: square"/>
   </g>
   <g id="patch_6">
    <path d="M 53.1875 25.8 
L 357.80625 25.8 
" style="fill: none; stroke: #000000; stroke-width: 0.8; stroke-linejoin: miter; stroke-linecap: square"/>
   </g>
   <g id="text_20">
    <!-- Loss (pt, fashion_mnist) -->
    <g transform="translate(134.123125 19.8) scale(0.12 -0.12)">
     <defs>
      <path id="DejaVuSans-4c" d="M 628 4666 
L 1259 4666 
L 1259 531 
L 3531 531 
L 3531 0 
L 628 0 
L 628 4666 
z
" transform="scale(0.015625)"/>
      <path id="DejaVuSans-20" transform="scale(0.015625)"/>
      <path id="DejaVuSans-28" d="M 1984 4856 
Q 1566 4138 1362 3434 
Q 1159 2731 1159 2009 
Q 1159 1288 1364 580 
Q 1569 -128 1984 -844 
L 1484 -844 
Q 1016 -109 783 600 
Q 550 1309 550 2009 
Q 550 2706 781 3412 
Q 1013 4119 1484 4856 
L 1984 4856 
z
" transform="scale(0.015625)"/>
      <path id="DejaVuSans-2c" d="M 750 794 
L 1409 794 
L 1409 256 
L 897 -744 
L 494 -744 
L 750 256 
L 750 794 
z
" transform="scale(0.015625)"/>
      <path id="DejaVuSans-66" d="M 2375 4863 
L 2375 4384 
L 1825 4384 
Q 1516 4384 1395 4259 
Q 1275 4134 1275 3809 
L 1275 3500 
L 2222 3500 
L 2222 3053 
L 1275 3053 
L 1275 0 
L 697 0 
L 697 3053 
L 147 3053 
L 147 3500 
L 697 3500 
L 697 3744 
Q 697 4328 969 4595 
Q 1241 4863 1831 4863 
L 2375 4863 
z
" transform="scale(0.015625)"/>
      <path id="DejaVuSans-61" d="M 2194 1759 
Q 1497 1759 1228 1600 
Q 959 1441 959 1056 
Q 959 750 1161 570 
Q 1363 391 1709 391 
Q 2188 391 2477 730 
Q 2766 1069 2766 1631 
L 2766 1759 
L 2194 1759 
z
M 3341 1997 
L 3341 0 
L 2766 0 
L 2766 531 
Q 2569 213 2275 61 
Q 1981 -91 1556 -91 
Q 1019 -91 701 211 
Q 384 513 384 1019 
Q 384 1609 779 1909 
Q 1175 2209 1959 2209 
L 2766 2209 
L 2766 2266 
Q 2766 2663 2505 2880 
Q 2244 3097 1772 3097 
Q 1472 3097 1187 3025 
Q 903 2953 641 2809 
L 641 3341 
Q 956 3463 1253 3523 
Q 1550 3584 1831 3584 
Q 2591 3584 2966 3190 
Q 3341 2797 3341 1997 
z
" transform="scale(0.015625)"/>
      <path id="DejaVuSans-68" d="M 3513 2113 
L 3513 0 
L 2938 0 
L 2938 2094 
Q 2938 2591 2744 2837 
Q 2550 3084 2163 3084 
Q 1697 3084 1428 2787 
Q 1159 2491 1159 1978 
L 1159 0 
L 581 0 
L 581 4863 
L 1159 4863 
L 1159 2956 
Q 1366 3272 1645 3428 
Q 1925 3584 2291 3584 
Q 2894 3584 3203 3211 
Q 3513 2838 3513 2113 
z
" transform="scale(0.015625)"/>
      <path id="DejaVuSans-69" d="M 603 3500 
L 1178 3500 
L 1178 0 
L 603 0 
L 603 3500 
z
M 603 4863 
L 1178 4863 
L 1178 4134 
L 603 4134 
L 603 4863 
z
" transform="scale(0.015625)"/>
      <path id="DejaVuSans-6e" d="M 3513 2113 
L 3513 0 
L 2938 0 
L 2938 2094 
Q 2938 2591 2744 2837 
Q 2550 3084 2163 3084 
Q 1697 3084 1428 2787 
Q 1159 2491 1159 1978 
L 1159 0 
L 581 0 
L 581 3500 
L 1159 3500 
L 1159 2956 
Q 1366 3272 1645 3428 
Q 1925 3584 2291 3584 
Q 2894 3584 3203 3211 
Q 3513 2838 3513 2113 
z
" transform="scale(0.015625)"/>
      <path id="DejaVuSans-5f" d="M 3263 -1063 
L 3263 -1509 
L -63 -1509 
L -63 -1063 
L 3263 -1063 
z
" transform="scale(0.015625)"/>
      <path id="DejaVuSans-6d" d="M 3328 2828 
Q 3544 3216 3844 3400 
Q 4144 3584 4550 3584 
Q 5097 3584 5394 3201 
Q 5691 2819 5691 2113 
L 5691 0 
L 5113 0 
L 5113 2094 
Q 5113 2597 4934 2840 
Q 4756 3084 4391 3084 
Q 3944 3084 3684 2787 
Q 3425 2491 3425 1978 
L 3425 0 
L 2847 0 
L 2847 2094 
Q 2847 2600 2669 2842 
Q 2491 3084 2119 3084 
Q 1678 3084 1418 2786 
Q 1159 2488 1159 1978 
L 1159 0 
L 581 0 
L 581 3500 
L 1159 3500 
L 1159 2956 
Q 1356 3278 1631 3431 
Q 1906 3584 2284 3584 
Q 2666 3584 2933 3390 
Q 3200 3197 3328 2828 
z
" transform="scale(0.015625)"/>
      <path id="DejaVuSans-29" d="M 513 4856 
L 1013 4856 
Q 1481 4119 1714 3412 
Q 1947 2706 1947 2009 
Q 1947 1309 1714 600 
Q 1481 -109 1013 -844 
L 513 -844 
Q 928 -128 1133 580 
Q 1338 1288 1338 2009 
Q 1338 2731 1133 3434 
Q 928 4138 513 4856 
z
" transform="scale(0.015625)"/>
     </defs>
     <use xlink:href="#DejaVuSans-4c"/>
     <use xlink:href="#DejaVuSans-6f" transform="translate(53.962891 0)"/>
     <use xlink:href="#DejaVuSans-73" transform="translate(115.144531 0)"/>
     <use xlink:href="#DejaVuSans-73" transform="translate(167.244141 0)"/>
     <use xlink:href="#DejaVuSans-20" transform="translate(219.34375 0)"/>
     <use xlink:href="#DejaVuSans-28" transform="translate(251.130859 0)"/>
     <use xlink:href="#DejaVuSans-70" transform="translate(290.144531 0)"/>
     <use xlink:href="#DejaVuSans-74" transform="translate(353.621094 0)"/>
     <use xlink:href="#DejaVuSans-2c" transform="translate(392.830078 0)"/>
     <use xlink:href="#DejaVuSans-20" transform="translate(424.617188 0)"/>
     <use xlink:href="#DejaVuSans-66" transform="translate(456.404297 0)"/>
     <use xlink:href="#DejaVuSans-61" transform="translate(491.609375 0)"/>
     <use xlink:href="#DejaVuSans-73" transform="translate(552.888672 0)"/>
     <use xlink:href="#DejaVuSans-68" transform="translate(604.988281 0)"/>
     <use xlink:href="#DejaVuSans-69" transform="translate(668.367188 0)"/>
     <use xlink:href="#DejaVuSans-6f" transform="translate(696.150391 0)"/>
     <use xlink:href="#DejaVuSans-6e" transform="translate(757.332031 0)"/>
     <use xlink:href="#DejaVuSans-5f" transform="translate(820.710938 0)"/>
     <use xlink:href="#DejaVuSans-6d" transform="translate(870.710938 0)"/>
     <use xlink:href="#DejaVuSans-6e" transform="translate(968.123047 0)"/>
     <use xlink:href="#DejaVuSans-69" transform="translate(1031.501953 0)"/>
     <use xlink:href="#DejaVuSans-73" transform="translate(1059.285156 0)"/>
     <use xlink:href="#DejaVuSans-74" transform="translate(1111.384766 0)"/>
     <use xlink:href="#DejaVuSans-29" transform="translate(1150.59375 0)"/>
    </g>
   </g>
   <g id="legend_1">
    <g id="patch_7">
     <path d="M 278.898437 92.5125 
L 350.80625 92.5125 
Q 352.80625 92.5125 352.80625 90.5125 
L 352.80625 32.8 
Q 352.80625 30.8 350.80625 30.8 
L 278.898437 30.8 
Q 276.898437 30.8 276.898437 32.8 
L 276.898437 90.5125 
Q 276.898437 92.5125 278.898437 92.5125 
z
" style="fill: #ffffff; opacity: 0.8; stroke: #cccccc; stroke-linejoin: miter"/>
    </g>
    <g id="line2d_39">
     <path d="M 280.898437 38.898438 
L 290.898437 38.898438 
L 300.898437 38.898438 
" style="fill: none; stroke: #1f77b4; stroke-width: 1.5; stroke-linecap: square"/>
    </g>
    <g id="text_21">
     <!-- agc -->
     <g transform="translate(308.898437 42.398438) scale(0.1 -0.1)">
      <defs>
       <path id="DejaVuSans-67" d="M 2906 1791 
Q 2906 2416 2648 2759 
Q 2391 3103 1925 3103 
Q 1463 3103 1205 2759 
Q 947 2416 947 1791 
Q 947 1169 1205 825 
Q 1463 481 1925 481 
Q 2391 481 2648 825 
Q 2906 1169 2906 1791 
z
M 3481 434 
Q 3481 -459 3084 -895 
Q 2688 -1331 1869 -1331 
Q 1566 -1331 1297 -1286 
Q 1028 -1241 775 -1147 
L 775 -588 
Q 1028 -725 1275 -790 
Q 1522 -856 1778 -856 
Q 2344 -856 2625 -561 
Q 2906 -266 2906 331 
L 2906 616 
Q 2728 306 2450 153 
Q 2172 0 1784 0 
Q 1141 0 747 490 
Q 353 981 353 1791 
Q 353 2603 747 3093 
Q 1141 3584 1784 3584 
Q 2172 3584 2450 3431 
Q 2728 3278 2906 2969 
L 2906 3500 
L 3481 3500 
L 3481 434 
z
" transform="scale(0.015625)"/>
       <path id="DejaVuSans-63" d="M 3122 3366 
L 3122 2828 
Q 2878 2963 2633 3030 
Q 2388 3097 2138 3097 
Q 1578 3097 1268 2742 
Q 959 2388 959 1747 
Q 959 1106 1268 751 
Q 1578 397 2138 397 
Q 2388 397 2633 464 
Q 2878 531 3122 666 
L 3122 134 
Q 2881 22 2623 -34 
Q 2366 -91 2075 -91 
Q 1284 -91 818 406 
Q 353 903 353 1747 
Q 353 2603 823 3093 
Q 1294 3584 2113 3584 
Q 2378 3584 2631 3529 
Q 2884 3475 3122 3366 
z
" transform="scale(0.015625)"/>
      </defs>
      <use xlink:href="#DejaVuSans-61"/>
      <use xlink:href="#DejaVuSans-67" transform="translate(61.279297 0)"/>
      <use xlink:href="#DejaVuSans-63" transform="translate(124.755859 0)"/>
     </g>
    </g>
    <g id="line2d_40">
     <path d="M 280.898437 53.576562 
L 290.898437 53.576562 
L 300.898437 53.576562 
" style="fill: none; stroke: #ff7f0e; stroke-width: 1.5; stroke-linecap: square"/>
    </g>
    <g id="text_22">
     <!-- autoclip -->
     <g transform="translate(308.898437 57.076562) scale(0.1 -0.1)">
      <defs>
       <path id="DejaVuSans-75" d="M 544 1381 
L 544 3500 
L 1119 3500 
L 1119 1403 
Q 1119 906 1312 657 
Q 1506 409 1894 409 
Q 2359 409 2629 706 
Q 2900 1003 2900 1516 
L 2900 3500 
L 3475 3500 
L 3475 0 
L 2900 0 
L 2900 538 
Q 2691 219 2414 64 
Q 2138 -91 1772 -91 
Q 1169 -91 856 284 
Q 544 659 544 1381 
z
M 1991 3584 
L 1991 3584 
z
" transform="scale(0.015625)"/>
      </defs>
      <use xlink:href="#DejaVuSans-61"/>
      <use xlink:href="#DejaVuSans-75" transform="translate(61.279297 0)"/>
      <use xlink:href="#DejaVuSans-74" transform="translate(124.658203 0)"/>
      <use xlink:href="#DejaVuSans-6f" transform="translate(163.867188 0)"/>
      <use xlink:href="#DejaVuSans-63" transform="translate(225.048828 0)"/>
      <use xlink:href="#DejaVuSans-6c" transform="translate(280.029297 0)"/>
      <use xlink:href="#DejaVuSans-69" transform="translate(307.8125 0)"/>
      <use xlink:href="#DejaVuSans-70" transform="translate(335.595703 0)"/>
     </g>
    </g>
    <g id="line2d_41">
     <path d="M 280.898437 68.254687 
L 290.898437 68.254687 
L 300.898437 68.254687 
" style="fill: none; stroke: #2ca02c; stroke-width: 1.5; stroke-linecap: square"/>
    </g>
    <g id="text_23">
     <!-- none -->
     <g transform="translate(308.898437 71.754687) scale(0.1 -0.1)">
      <use xlink:href="#DejaVuSans-6e"/>
      <use xlink:href="#DejaVuSans-6f" transform="translate(63.378906 0)"/>
      <use xlink:href="#DejaVuSans-6e" transform="translate(124.560547 0)"/>
      <use xlink:href="#DejaVuSans-65" transform="translate(187.939453 0)"/>
     </g>
    </g>
    <g id="line2d_42">
     <path d="M 280.898437 82.932813 
L 290.898437 82.932813 
L 300.898437 82.932813 
" style="fill: none; stroke: #d62728; stroke-width: 1.5; stroke-linecap: square"/>
    </g>
    <g id="text_24">
     <!-- zscore -->
     <g transform="translate(308.898437 86.432813) scale(0.1 -0.1)">
      <defs>
       <path id="DejaVuSans-7a" d="M 353 3500 
L 3084 3500 
L 3084 2975 
L 922 459 
L 3084 459 
L 3084 0 
L 275 0 
L 275 525 
L 2438 3041 
L 353 3041 
L 353 3500 
z
" transform="scale(0.015625)"/>
       <path id="DejaVuSans-72" d="M 2631 2963 
Q 2534 3019 2420 3045 
Q 2306 3072 2169 3072 
Q 1681 3072 1420 2755 
Q 1159 2438 1159 1844 
L 1159 0 
L 581 0 
L 581 3500 
L 1159 3500 
L 1159 2956 
Q 1341 3275 1631 3429 
Q 1922 3584 2338 3584 
Q 2397 3584 2469 3576 
Q 2541 3569 2628 3553 
L 2631 2963 
z
" transform="scale(0.015625)"/>
      </defs>
      <use xlink:href="#DejaVuSans-7a"/>
      <use xlink:href="#DejaVuSans-73" transform="translate(52.490234 0)"/>
      <use xlink:href="#DejaVuSans-63" transform="translate(104.589844 0)"/>
      <use xlink:href="#DejaVuSans-6f" transform="translate(159.570312 0)"/>
      <use xlink:href="#DejaVuSans-72" transform="translate(220.751953 0)"/>
      <use xlink:href="#DejaVuSans-65" transform="translate(259.615234 0)"/>
     </g>
    </g>
   </g>
  </g>
  <g id="axes_2">
   <g id="patch_8">
    <path d="M 404.58125 248.2 
L 709.2 248.2 
L 709.2 25.8 
L 404.58125 25.8 
z
" style="fill: #ffffff"/>
   </g>
   <g id="matplotlib.axis_3">
    <g id="xtick_10">
     <g id="line2d_43">
      <path d="M 417.035968 248.2 
L 417.035968 25.8 
" clip-path="url(#p2aa5f68240)" style="fill: none; stroke: #b0b0b0; stroke-opacity: 0.3; stroke-width: 0.8; stroke-linecap: square"/>
     </g>
     <g id="line2d_44">
      <g>
       <use xlink:href="#ma63e81f603" x="417.035968" y="248.2" style="stroke: #000000; stroke-width: 0.8"/>
      </g>
     </g>
     <g id="text_25">
      <!-- 0 -->
      <g transform="translate(413.854718 262.798438) scale(0.1 -0.1)">
       <use xlink:href="#DejaVuSans-30"/>
      </g>
     </g>
    </g>
    <g id="xtick_11">
     <g id="line2d_45">
      <path d="M 451.825684 248.2 
L 451.825684 25.8 
" clip-path="url(#p2aa5f68240)" style="fill: none; stroke: #b0b0b0; stroke-opacity: 0.3; stroke-width: 0.8; stroke-linecap: square"/>
     </g>
     <g id="line2d_46">
      <g>
       <use xlink:href="#ma63e81f603" x="451.825684" y="248.2" style="stroke: #000000; stroke-width: 0.8"/>
      </g>
     </g>
     <g id="text_26">
      <!-- 25 -->
      <g transform="translate(445.463184 262.798438) scale(0.1 -0.1)">
       <use xlink:href="#DejaVuSans-32"/>
       <use xlink:href="#DejaVuSans-35" transform="translate(63.623047 0)"/>
      </g>
     </g>
    </g>
    <g id="xtick_12">
     <g id="line2d_47">
      <path d="M 486.615399 248.2 
L 486.615399 25.8 
" clip-path="url(#p2aa5f68240)" style="fill: none; stroke: #b0b0b0; stroke-opacity: 0.3; stroke-width: 0.8; stroke-linecap: square"/>
     </g>
     <g id="line2d_48">
      <g>
       <use xlink:href="#ma63e81f603" x="486.615399" y="248.2" style="stroke: #000000; stroke-width: 0.8"/>
      </g>
     </g>
     <g id="text_27">
      <!-- 50 -->
      <g transform="translate(480.252899 262.798438) scale(0.1 -0.1)">
       <use xlink:href="#DejaVuSans-35"/>
       <use xlink:href="#DejaVuSans-30" transform="translate(63.623047 0)"/>
      </g>
     </g>
    </g>
    <g id="xtick_13">
     <g id="line2d_49">
      <path d="M 521.405115 248.2 
L 521.405115 25.8 
" clip-path="url(#p2aa5f68240)" style="fill: none; stroke: #b0b0b0; stroke-opacity: 0.3; stroke-width: 0.8; stroke-linecap: square"/>
     </g>
     <g id="line2d_50">
      <g>
       <use xlink:href="#ma63e81f603" x="521.405115" y="248.2" style="stroke: #000000; stroke-width: 0.8"/>
      </g>
     </g>
     <g id="text_28">
      <!-- 75 -->
      <g transform="translate(515.042615 262.798438) scale(0.1 -0.1)">
       <use xlink:href="#DejaVuSans-37"/>
       <use xlink:href="#DejaVuSans-35" transform="translate(63.623047 0)"/>
      </g>
     </g>
    </g>
    <g id="xtick_14">
     <g id="line2d_51">
      <path d="M 556.194831 248.2 
L 556.194831 25.8 
" clip-path="url(#p2aa5f68240)" style="fill: none; stroke: #b0b0b0; stroke-opacity: 0.3; stroke-width: 0.8; stroke-linecap: square"/>
     </g>
     <g id="line2d_52">
      <g>
       <use xlink:href="#ma63e81f603" x="556.194831" y="248.2" style="stroke: #000000; stroke-width: 0.8"/>
      </g>
     </g>
     <g id="text_29">
      <!-- 100 -->
      <g transform="translate(546.651081 262.798438) scale(0.1 -0.1)">
       <use xlink:href="#DejaVuSans-31"/>
       <use xlink:href="#DejaVuSans-30" transform="translate(63.623047 0)"/>
       <use xlink:href="#DejaVuSans-30" transform="translate(127.246094 0)"/>
      </g>
     </g>
    </g>
    <g id="xtick_15">
     <g id="line2d_53">
      <path d="M 590.984546 248.2 
L 590.984546 25.8 
" clip-path="url(#p2aa5f68240)" style="fill: none; stroke: #b0b0b0; stroke-opacity: 0.3; stroke-width: 0.8; stroke-linecap: square"/>
     </g>
     <g id="line2d_54">
      <g>
       <use xlink:href="#ma63e81f603" x="590.984546" y="248.2" style="stroke: #000000; stroke-width: 0.8"/>
      </g>
     </g>
     <g id="text_30">
      <!-- 125 -->
      <g transform="translate(581.440796 262.798438) scale(0.1 -0.1)">
       <use xlink:href="#DejaVuSans-31"/>
       <use xlink:href="#DejaVuSans-32" transform="translate(63.623047 0)"/>
       <use xlink:href="#DejaVuSans-35" transform="translate(127.246094 0)"/>
      </g>
     </g>
    </g>
    <g id="xtick_16">
     <g id="line2d_55">
      <path d="M 625.774262 248.2 
L 625.774262 25.8 
" clip-path="url(#p2aa5f68240)" style="fill: none; stroke: #b0b0b0; stroke-opacity: 0.3; stroke-width: 0.8; stroke-linecap: square"/>
     </g>
     <g id="line2d_56">
      <g>
       <use xlink:href="#ma63e81f603" x="625.774262" y="248.2" style="stroke: #000000; stroke-width: 0.8"/>
      </g>
     </g>
     <g id="text_31">
      <!-- 150 -->
      <g transform="translate(616.230512 262.798438) scale(0.1 -0.1)">
       <use xlink:href="#DejaVuSans-31"/>
       <use xlink:href="#DejaVuSans-35" transform="translate(63.623047 0)"/>
       <use xlink:href="#DejaVuSans-30" transform="translate(127.246094 0)"/>
      </g>
     </g>
    </g>
    <g id="xtick_17">
     <g id="line2d_57">
      <path d="M 660.563978 248.2 
L 660.563978 25.8 
" clip-path="url(#p2aa5f68240)" style="fill: none; stroke: #b0b0b0; stroke-opacity: 0.3; stroke-width: 0.8; stroke-linecap: square"/>
     </g>
     <g id="line2d_58">
      <g>
       <use xlink:href="#ma63e81f603" x="660.563978" y="248.2" style="stroke: #000000; stroke-width: 0.8"/>
      </g>
     </g>
     <g id="text_32">
      <!-- 175 -->
      <g transform="translate(651.020228 262.798438) scale(0.1 -0.1)">
       <use xlink:href="#DejaVuSans-31"/>
       <use xlink:href="#DejaVuSans-37" transform="translate(63.623047 0)"/>
       <use xlink:href="#DejaVuSans-35" transform="translate(127.246094 0)"/>
      </g>
     </g>
    </g>
    <g id="xtick_18">
     <g id="line2d_59">
      <path d="M 695.353693 248.2 
L 695.353693 25.8 
" clip-path="url(#p2aa5f68240)" style="fill: none; stroke: #b0b0b0; stroke-opacity: 0.3; stroke-width: 0.8; stroke-linecap: square"/>
     </g>
     <g id="line2d_60">
      <g>
       <use xlink:href="#ma63e81f603" x="695.353693" y="248.2" style="stroke: #000000; stroke-width: 0.8"/>
      </g>
     </g>
     <g id="text_33">
      <!-- 200 -->
      <g transform="translate(685.809943 262.798438) scale(0.1 -0.1)">
       <use xlink:href="#DejaVuSans-32"/>
       <use xlink:href="#DejaVuSans-30" transform="translate(63.623047 0)"/>
       <use xlink:href="#DejaVuSans-30" transform="translate(127.246094 0)"/>
      </g>
     </g>
    </g>
    <g id="text_34">
     <!-- step -->
     <g transform="translate(546.075 276.476562) scale(0.1 -0.1)">
      <use xlink:href="#DejaVuSans-73"/>
      <use xlink:href="#DejaVuSans-74" transform="translate(52.099609 0)"/>
      <use xlink:href="#DejaVuSans-65" transform="translate(91.308594 0)"/>
      <use xlink:href="#DejaVuSans-70" transform="translate(152.832031 0)"/>
     </g>
    </g>
   </g>
   <g id="matplotlib.axis_4">
    <g id="ytick_9">
     <g id="line2d_61">
      <path d="M 404.58125 237.722754 
L 709.2 237.722754 
" clip-path="url(#p2aa5f68240)" style="fill: none; stroke: #b0b0b0; stroke-opacity: 0.3; stroke-width: 0.8; stroke-linecap: square"/>
     </g>
     <g id="line2d_62">
      <g>
       <use xlink:href="#mf02c74ac71" x="404.58125" y="237.722754" style="stroke: #000000; stroke-width: 0.8"/>
      </g>
     </g>
     <g id="text_35">
      <!-- 0.1 -->
      <g transform="translate(381.678125 241.521972) scale(0.1 -0.1)">
       <use xlink:href="#DejaVuSans-30"/>
       <use xlink:href="#DejaVuSans-2e" transform="translate(63.623047 0)"/>
       <use xlink:href="#DejaVuSans-31" transform="translate(95.410156 0)"/>
      </g>
     </g>
    </g>
    <g id="ytick_10">
     <g id="line2d_63">
      <path d="M 404.58125 202.379822 
L 709.2 202.379822 
" clip-path="url(#p2aa5f68240)" style="fill: none; stroke: #b0b0b0; stroke-opacity: 0.3; stroke-width: 0.8; stroke-linecap: square"/>
     </g>
     <g id="line2d_64">
      <g>
       <use xlink:href="#mf02c74ac71" x="404.58125" y="202.379822" style="stroke: #000000; stroke-width: 0.8"/>
      </g>
     </g>
     <g id="text_36">
      <!-- 0.2 -->
      <g transform="translate(381.678125 206.179041) scale(0.1 -0.1)">
       <use xlink:href="#DejaVuSans-30"/>
       <use xlink:href="#DejaVuSans-2e" transform="translate(63.623047 0)"/>
       <use xlink:href="#DejaVuSans-32" transform="translate(95.410156 0)"/>
      </g>
     </g>
    </g>
    <g id="ytick_11">
     <g id="line2d_65">
      <path d="M 404.58125 167.03689 
L 709.2 167.03689 
" clip-path="url(#p2aa5f68240)" style="fill: none; stroke: #b0b0b0; stroke-opacity: 0.3; stroke-width: 0.8; stroke-linecap: square"/>
     </g>
     <g id="line2d_66">
      <g>
       <use xlink:href="#mf02c74ac71" x="404.58125" y="167.03689" style="stroke: #000000; stroke-width: 0.8"/>
      </g>
     </g>
     <g id="text_37">
      <!-- 0.3 -->
      <g transform="translate(381.678125 170.836109) scale(0.1 -0.1)">
       <defs>
        <path id="DejaVuSans-33" d="M 2597 2516 
Q 3050 2419 3304 2112 
Q 3559 1806 3559 1356 
Q 3559 666 3084 287 
Q 2609 -91 1734 -91 
Q 1441 -91 1130 -33 
Q 819 25 488 141 
L 488 750 
Q 750 597 1062 519 
Q 1375 441 1716 441 
Q 2309 441 2620 675 
Q 2931 909 2931 1356 
Q 2931 1769 2642 2001 
Q 2353 2234 1838 2234 
L 1294 2234 
L 1294 2753 
L 1863 2753 
Q 2328 2753 2575 2939 
Q 2822 3125 2822 3475 
Q 2822 3834 2567 4026 
Q 2313 4219 1838 4219 
Q 1578 4219 1281 4162 
Q 984 4106 628 3988 
L 628 4550 
Q 988 4650 1302 4700 
Q 1616 4750 1894 4750 
Q 2613 4750 3031 4423 
Q 3450 4097 3450 3541 
Q 3450 3153 3228 2886 
Q 3006 2619 2597 2516 
z
" transform="scale(0.015625)"/>
       </defs>
       <use xlink:href="#DejaVuSans-30"/>
       <use xlink:href="#DejaVuSans-2e" transform="translate(63.623047 0)"/>
       <use xlink:href="#DejaVuSans-33" transform="translate(95.410156 0)"/>
      </g>
     </g>
    </g>
    <g id="ytick_12">
     <g id="line2d_67">
      <path d="M 404.58125 131.693958 
L 709.2 131.693958 
" clip-path="url(#p2aa5f68240)" style="fill: none; stroke: #b0b0b0; stroke-opacity: 0.3; stroke-width: 0.8; stroke-linecap: square"/>
     </g>
     <g id="line2d_68">
      <g>
       <use xlink:href="#mf02c74ac71" x="404.58125" y="131.693958" style="stroke: #000000; stroke-width: 0.8"/>
      </g>
     </g>
     <g id="text_38">
      <!-- 0.4 -->
      <g transform="translate(381.678125 135.493177) scale(0.1 -0.1)">
       <defs>
        <path id="DejaVuSans-34" d="M 2419 4116 
L 825 1625 
L 2419 1625 
L 2419 4116 
z
M 2253 4666 
L 3047 4666 
L 3047 1625 
L 3713 1625 
L 3713 1100 
L 3047 1100 
L 3047 0 
L 2419 0 
L 2419 1100 
L 313 1100 
L 313 1709 
L 2253 4666 
z
" transform="scale(0.015625)"/>
       </defs>
       <use xlink:href="#DejaVuSans-30"/>
       <use xlink:href="#DejaVuSans-2e" transform="translate(63.623047 0)"/>
       <use xlink:href="#DejaVuSans-34" transform="translate(95.410156 0)"/>
      </g>
     </g>
    </g>
    <g id="ytick_13">
     <g id="line2d_69">
      <path d="M 404.58125 96.351027 
L 709.2 96.351027 
" clip-path="url(#p2aa5f68240)" style="fill: none; stroke: #b0b0b0; stroke-opacity: 0.3; stroke-width: 0.8; stroke-linecap: square"/>
     </g>
     <g id="line2d_70">
      <g>
       <use xlink:href="#mf02c74ac71" x="404.58125" y="96.351027" style="stroke: #000000; stroke-width: 0.8"/>
      </g>
     </g>
     <g id="text_39">
      <!-- 0.5 -->
      <g transform="translate(381.678125 100.150245) scale(0.1 -0.1)">
       <use xlink:href="#DejaVuSans-30"/>
       <use xlink:href="#DejaVuSans-2e" transform="translate(63.623047 0)"/>
       <use xlink:href="#DejaVuSans-35" transform="translate(95.410156 0)"/>
      </g>
     </g>
    </g>
    <g id="ytick_14">
     <g id="line2d_71">
      <path d="M 404.58125 61.008095 
L 709.2 61.008095 
" clip-path="url(#p2aa5f68240)" style="fill: none; stroke: #b0b0b0; stroke-opacity: 0.3; stroke-width: 0.8; stroke-linecap: square"/>
     </g>
     <g id="line2d_72">
      <g>
       <use xlink:href="#mf02c74ac71" x="404.58125" y="61.008095" style="stroke: #000000; stroke-width: 0.8"/>
      </g>
     </g>
     <g id="text_40">
      <!-- 0.6 -->
      <g transform="translate(381.678125 64.807314) scale(0.1 -0.1)">
       <defs>
        <path id="DejaVuSans-36" d="M 2113 2584 
Q 1688 2584 1439 2293 
Q 1191 2003 1191 1497 
Q 1191 994 1439 701 
Q 1688 409 2113 409 
Q 2538 409 2786 701 
Q 3034 994 3034 1497 
Q 3034 2003 2786 2293 
Q 2538 2584 2113 2584 
z
M 3366 4563 
L 3366 3988 
Q 3128 4100 2886 4159 
Q 2644 4219 2406 4219 
Q 1781 4219 1451 3797 
Q 1122 3375 1075 2522 
Q 1259 2794 1537 2939 
Q 1816 3084 2150 3084 
Q 2853 3084 3261 2657 
Q 3669 2231 3669 1497 
Q 3669 778 3244 343 
Q 2819 -91 2113 -91 
Q 1303 -91 875 529 
Q 447 1150 447 2328 
Q 447 3434 972 4092 
Q 1497 4750 2381 4750 
Q 2619 4750 2861 4703 
Q 3103 4656 3366 4563 
z
" transform="scale(0.015625)"/>
       </defs>
       <use xlink:href="#DejaVuSans-30"/>
       <use xlink:href="#DejaVuSans-2e" transform="translate(63.623047 0)"/>
       <use xlink:href="#DejaVuSans-36" transform="translate(95.410156 0)"/>
      </g>
     </g>
    </g>
    <g id="text_41">
     <!-- accuracy -->
     <g transform="translate(375.598438 159.559375) rotate(-90) scale(0.1 -0.1)">
      <defs>
       <path id="DejaVuSans-79" d="M 2059 -325 
Q 1816 -950 1584 -1140 
Q 1353 -1331 966 -1331 
L 506 -1331 
L 506 -850 
L 844 -850 
Q 1081 -850 1212 -737 
Q 1344 -625 1503 -206 
L 1606 56 
L 191 3500 
L 800 3500 
L 1894 763 
L 2988 3500 
L 3597 3500 
L 2059 -325 
z
" transform="scale(0.015625)"/>
      </defs>
      <use xlink:href="#DejaVuSans-61"/>
      <use xlink:href="#DejaVuSans-63" transform="translate(61.279297 0)"/>
      <use xlink:href="#DejaVuSans-63" transform="translate(116.259766 0)"/>
      <use xlink:href="#DejaVuSans-75" transform="translate(171.240234 0)"/>
      <use xlink:href="#DejaVuSans-72" transform="translate(234.619141 0)"/>
      <use xlink:href="#DejaVuSans-61" transform="translate(275.732422 0)"/>
      <use xlink:href="#DejaVuSans-63" transform="translate(337.011719 0)"/>
      <use xlink:href="#DejaVuSans-79" transform="translate(391.992188 0)"/>
     </g>
    </g>
   </g>
   <g id="line2d_73">
    <path d="M 418.427557 238.090909 
L 419.819145 229.807409 
L 421.210734 215.387984 
L 422.602323 214.160799 
L 423.993911 207.165844 
L 425.3855 199.434577 
L 426.777089 200.223482 
L 428.168677 199.894772 
L 429.560266 197.5938 
L 430.951854 194.2804 
L 435.12662 181.451595 
L 436.518209 176.687825 
L 437.909798 172.436505 
L 439.301386 170.212232 
L 444.867741 157.92504 
L 446.259329 154.379352 
L 447.650918 150.068267 
L 449.042507 145.011585 
L 450.434095 141.526779 
L 451.825684 138.836176 
L 453.217272 134.936559 
L 454.608861 132.28028 
L 456.00045 130.27393 
L 457.392038 126.946021 
L 460.175216 121.349975 
L 462.958393 116.04177 
L 464.349981 114.704663 
L 465.74157 112.129121 
L 467.133159 110.617054 
L 468.524747 108.738963 
L 469.916336 107.347251 
L 471.307925 105.224519 
L 472.699513 103.714137 
L 474.091102 101.424389 
L 475.48269 100.427034 
L 481.049045 95.27057 
L 482.440634 94.392752 
L 483.832222 93.052967 
L 485.223811 91.467331 
L 486.615399 90.460538 
L 488.006988 89.709789 
L 490.790165 87.459723 
L 493.573343 85.339829 
L 494.964931 84.64894 
L 499.139697 82.186398 
L 507.489229 77.263578 
L 508.880817 76.576612 
L 510.272406 75.552986 
L 514.447172 73.341305 
L 515.838761 72.991298 
L 518.621938 71.513136 
L 520.013526 70.928394 
L 521.405115 70.555595 
L 531.146235 66.65165 
L 535.321001 65.534242 
L 536.71259 64.865166 
L 538.104179 64.401896 
L 539.495767 63.760894 
L 542.278944 62.807966 
L 543.670533 62.46858 
L 546.45371 61.55439 
L 558.978008 57.568367 
L 560.369597 57.194289 
L 561.761185 56.668107 
L 563.152774 56.485041 
L 565.935951 55.81951 
L 570.110717 54.715982 
L 574.285483 53.996849 
L 575.677071 53.641755 
L 582.635015 52.68283 
L 584.026603 52.233721 
L 586.80978 51.719712 
L 589.592958 51.044143 
L 590.984546 50.58193 
L 592.376135 50.375412 
L 593.767724 49.998215 
L 597.942489 49.255437 
L 599.334078 49.151238 
L 600.725667 48.853384 
L 602.117255 48.421604 
L 603.508844 48.271012 
L 604.900433 47.999932 
L 606.292021 47.854655 
L 609.075198 47.303638 
L 614.641553 46.49447 
L 617.42473 45.959737 
L 618.816319 45.609037 
L 624.382673 44.969856 
L 625.774262 44.711076 
L 627.165851 44.602011 
L 629.949028 44.159565 
L 632.732205 44.01356 
L 635.515382 43.648506 
L 642.473325 42.51396 
L 650.822857 41.609804 
L 657.7808 40.414793 
L 660.563978 40.202047 
L 664.738743 39.700576 
L 678.65463 37.935709 
L 680.046218 37.89416 
L 687.004161 37.066598 
L 695.353693 36.396897 
L 695.353693 36.396897 
" clip-path="url(#p2aa5f68240)" style="fill: none; stroke: #1f77b4; stroke-width: 1.5; stroke-linecap: square"/>
   </g>
   <g id="line2d_74">
    <path d="M 418.427557 238.090909 
L 419.819145 229.807409 
L 421.210734 215.387984 
L 422.602323 213.700605 
L 423.993911 208.27031 
L 425.3855 201.582151 
L 426.777089 202.327228 
L 428.168677 202.886036 
L 429.560266 199.843639 
L 430.951854 195.200789 
L 432.343443 189.059285 
L 433.735032 183.634569 
L 435.12662 176.778852 
L 436.518209 172.08588 
L 437.909798 168.386794 
L 440.692975 163.160429 
L 442.084563 161.085042 
L 444.867741 154.703679 
L 446.259329 151.837326 
L 449.042507 142.290435 
L 450.434095 139.532603 
L 451.825684 137.14266 
L 453.217272 133.449777 
L 456.00045 128.69612 
L 458.783627 122.796866 
L 462.958393 115.09349 
L 464.349981 113.675993 
L 465.74157 111.340216 
L 467.133159 109.952328 
L 468.524747 108.042452 
L 469.916336 106.475304 
L 471.307925 104.422129 
L 472.699513 102.931807 
L 474.091102 100.706037 
L 475.48269 99.681958 
L 478.265868 97.062236 
L 481.049045 94.990452 
L 482.440634 94.314421 
L 483.832222 92.976267 
L 485.223811 91.35463 
L 486.615399 90.350091 
L 488.006988 89.601508 
L 489.398577 88.704719 
L 492.181754 86.397192 
L 493.573343 85.440235 
L 496.35652 84.176058 
L 497.748108 83.24342 
L 500.531286 81.655485 
L 501.922874 80.659151 
L 503.314463 79.962167 
L 504.706052 79.404184 
L 508.880817 76.96708 
L 510.272406 75.855203 
L 511.663995 75.263294 
L 513.055583 74.501796 
L 514.447172 73.972429 
L 515.838761 73.639459 
L 517.230349 72.906677 
L 520.013526 71.97316 
L 522.796704 71.040333 
L 524.188292 70.747482 
L 525.579881 70.226143 
L 526.97147 69.834507 
L 531.146235 68.043457 
L 535.321001 66.833615 
L 554.803242 60.651095 
L 556.194831 60.253376 
L 557.586419 59.735953 
L 560.369597 59.088682 
L 561.761185 58.561984 
L 563.152774 58.325819 
L 570.110717 56.489822 
L 572.893894 55.95253 
L 574.285483 55.691017 
L 575.677071 55.304913 
L 578.460249 54.774841 
L 581.243426 54.543533 
L 582.635015 54.276108 
L 584.026603 53.737023 
L 588.201369 52.920645 
L 589.592958 52.662246 
L 590.984546 52.216541 
L 596.550901 51.087873 
L 603.508844 49.974418 
L 604.900433 49.66345 
L 606.292021 49.560082 
L 609.075198 48.984348 
L 632.732205 45.426802 
L 635.515382 45.078919 
L 638.29856 44.566129 
L 648.03968 42.979562 
L 659.172389 41.318121 
L 663.347155 40.7949 
L 678.65463 38.601522 
L 681.437807 38.259958 
L 687.004161 37.427163 
L 695.353693 36.709829 
L 695.353693 36.709829 
" clip-path="url(#p2aa5f68240)" style="fill: none; stroke: #ff7f0e; stroke-width: 1.5; stroke-linecap: square"/>
   </g>
   <g id="line2d_75">
    <path d="M 418.427557 238.090909 
L 419.819145 229.807409 
L 421.210734 215.387984 
L 422.602323 213.700605 
L 423.993911 208.27031 
L 425.3855 201.582151 
L 426.777089 202.327228 
L 428.168677 202.886036 
L 429.560266 199.843639 
L 430.951854 195.200789 
L 435.12662 177.062049 
L 436.518209 172.874785 
L 437.909798 169.613979 
L 439.301386 166.875822 
L 440.692975 163.26871 
L 442.084563 160.573715 
L 443.476152 156.709158 
L 444.867741 153.231057 
L 446.259329 148.506395 
L 447.650918 144.211247 
L 449.042507 139.169116 
L 450.434095 135.467553 
L 451.825684 133.534736 
L 453.217272 129.272628 
L 454.608861 126.553416 
L 456.00045 124.620113 
L 457.392038 121.296738 
L 460.175216 115.827642 
L 462.958393 110.965686 
L 464.349981 109.398892 
L 465.74157 106.817163 
L 467.133159 105.963977 
L 469.916336 102.503099 
L 471.307925 100.22138 
L 472.699513 99.204232 
L 474.091102 97.338761 
L 475.48269 96.307198 
L 476.874279 95.023954 
L 481.049045 91.829116 
L 482.440634 91.181183 
L 485.223811 88.57468 
L 486.615399 87.588925 
L 488.006988 87.074951 
L 489.398577 85.837354 
L 492.181754 83.806467 
L 493.573343 82.863146 
L 494.964931 82.183612 
L 496.35652 81.204978 
L 497.748108 80.387041 
L 499.139697 79.784027 
L 500.531286 78.894318 
L 503.314463 77.70573 
L 504.706052 77.183564 
L 506.09764 76.21752 
L 507.489229 75.734316 
L 508.880817 75.04263 
L 513.055583 72.580984 
L 514.447172 71.842386 
L 515.838761 71.513491 
L 518.621938 70.075816 
L 522.796704 68.448712 
L 524.188292 68.022175 
L 526.97147 66.805379 
L 529.754647 65.807752 
L 532.537824 64.702957 
L 535.321001 63.88837 
L 540.887356 61.665811 
L 542.278944 61.253532 
L 543.670533 60.971684 
L 545.062122 60.435853 
L 546.45371 60.149065 
L 552.020065 58.226053 
L 553.411653 58.014014 
L 554.803242 57.527352 
L 556.194831 57.252908 
L 557.586419 56.728742 
L 560.369597 56.014762 
L 561.761185 55.429122 
L 563.152774 55.205262 
L 565.935951 54.563652 
L 568.719128 53.827373 
L 570.110717 53.494375 
L 574.285483 52.823965 
L 575.677071 52.463011 
L 581.243426 51.766767 
L 586.80978 50.663528 
L 588.201369 50.226824 
L 590.984546 49.698357 
L 592.376135 49.513461 
L 593.767724 49.099568 
L 597.942489 48.391688 
L 600.725667 48.044557 
L 602.117255 47.64654 
L 613.249964 45.931995 
L 617.42473 45.346145 
L 618.816319 45.037761 
L 624.382673 44.302728 
L 625.774262 44.048396 
L 627.165851 43.968101 
L 631.340616 43.386832 
L 634.123794 43.015673 
L 638.29856 42.354881 
L 639.690148 42.071094 
L 643.864914 41.57942 
L 645.256503 41.329732 
L 646.648091 41.295039 
L 652.214446 40.539518 
L 653.606034 40.413041 
L 654.997623 40.137336 
L 656.389212 40.003965 
L 657.7808 39.744452 
L 660.563978 39.51833 
L 661.955566 39.307836 
L 664.738743 39.069748 
L 671.696687 38.190498 
L 673.088275 37.976364 
L 675.871452 37.762833 
L 677.263041 37.515046 
L 684.220984 36.870897 
L 688.39575 36.436073 
L 693.962105 36.058619 
L 695.353693 35.909091 
L 695.353693 35.909091 
" clip-path="url(#p2aa5f68240)" style="fill: none; stroke: #2ca02c; stroke-width: 1.5; stroke-linecap: square"/>
   </g>
   <g id="line2d_76">
    <path d="M 418.427557 238.090909 
L 419.819145 229.807409 
L 421.210734 215.387984 
L 422.602323 213.700605 
L 423.993911 208.27031 
L 425.3855 201.582151 
L 426.777089 202.327228 
L 428.168677 202.886036 
L 429.560266 199.843639 
L 430.951854 195.200789 
L 435.12662 177.062049 
L 436.518209 172.874785 
L 437.909798 169.613979 
L 439.301386 166.875822 
L 440.692975 163.26871 
L 442.084563 160.573715 
L 443.476152 156.709158 
L 444.867741 153.231057 
L 446.259329 148.506395 
L 447.650918 144.211247 
L 449.042507 139.169116 
L 450.434095 135.467553 
L 451.825684 133.534736 
L 453.217272 129.272628 
L 454.608861 126.553416 
L 456.00045 124.620113 
L 457.392038 121.296738 
L 460.175216 115.827642 
L 462.958393 110.965686 
L 464.349981 109.398892 
L 465.74157 106.817163 
L 467.133159 105.963977 
L 469.916336 102.503099 
L 471.307925 100.22138 
L 472.699513 99.204232 
L 474.091102 97.338761 
L 475.48269 96.307198 
L 476.874279 95.023954 
L 481.049045 91.829116 
L 482.440634 91.181183 
L 485.223811 88.57468 
L 486.615399 87.588925 
L 488.006988 87.074951 
L 489.398577 85.837354 
L 492.181754 83.806467 
L 493.573343 82.863146 
L 494.964931 82.183612 
L 496.35652 81.204978 
L 497.748108 80.387041 
L 499.139697 79.784027 
L 500.531286 78.894318 
L 503.314463 77.70573 
L 504.706052 77.183564 
L 506.09764 76.21752 
L 507.489229 75.734316 
L 508.880817 75.04263 
L 513.055583 72.580984 
L 514.447172 71.842386 
L 515.838761 71.513491 
L 518.621938 70.075816 
L 522.796704 68.448712 
L 524.188292 68.022175 
L 526.97147 66.805379 
L 529.754647 65.807752 
L 532.537824 64.702957 
L 535.321001 63.88837 
L 540.887356 61.665811 
L 542.278944 61.253532 
L 543.670533 60.971684 
L 545.062122 60.435853 
L 546.45371 60.149065 
L 552.020065 58.226053 
L 553.411653 58.014014 
L 554.803242 57.527352 
L 556.194831 57.252908 
L 557.586419 56.728742 
L 560.369597 56.014762 
L 561.761185 55.429122 
L 563.152774 55.205262 
L 565.935951 54.563652 
L 568.719128 53.827373 
L 570.110717 53.494375 
L 574.285483 52.823965 
L 575.677071 52.463011 
L 581.243426 51.766767 
L 586.80978 50.663528 
L 588.201369 50.226824 
L 590.984546 49.698357 
L 592.376135 49.513461 
L 593.767724 49.099568 
L 597.942489 48.391688 
L 600.725667 48.044557 
L 602.117255 47.64654 
L 613.249964 45.931995 
L 617.42473 45.346145 
L 618.816319 45.037761 
L 624.382673 44.290374 
L 625.774262 44.036124 
L 627.165851 43.95591 
L 631.340616 43.374879 
L 634.123794 43.003873 
L 638.29856 42.343304 
L 639.690148 42.059589 
L 643.864914 41.568127 
L 645.256503 41.318508 
L 646.648091 41.283883 
L 657.7808 39.701891 
L 660.563978 39.476255 
L 661.955566 39.245082 
L 664.738743 39.007699 
L 678.65463 37.377601 
L 681.437807 37.174868 
L 684.220984 36.86131 
L 688.39575 36.426633 
L 693.962105 36.06787 
L 695.353693 35.918295 
L 695.353693 35.918295 
" clip-path="url(#p2aa5f68240)" style="fill: none; stroke: #d62728; stroke-width: 1.5; stroke-linecap: square"/>
   </g>
   <g id="patch_9">
    <path d="M 404.58125 248.2 
L 404.58125 25.8 
" style="fill: none; stroke: #000000; stroke-width: 0.8; stroke-linejoin: miter; stroke-linecap: square"/>
   </g>
   <g id="patch_10">
    <path d="M 709.2 248.2 
L 709.2 25.8 
" style="fill: none; stroke: #000000; stroke-width: 0.8; stroke-linejoin: miter; stroke-linecap: square"/>
   </g>
   <g id="patch_11">
    <path d="M 404.58125 248.2 
L 709.2 248.2 
" style="fill: none; stroke: #000000; stroke-width: 0.8; stroke-linejoin: miter; stroke-linecap: square"/>
   </g>
   <g id="patch_12">
    <path d="M 404.58125 25.8 
L 709.2 25.8 
" style="fill: none; stroke: #000000; stroke-width: 0.8; stroke-linejoin: miter; stroke-linecap: square"/>
   </g>
   <g id="text_42">
    <!-- Accuracy (pt, fashion_mnist) -->
    <g transform="translate(471.28375 19.8) scale(0.12 -0.12)">
     <defs>
      <path id="DejaVuSans-41" d="M 2188 4044 
L 1331 1722 
L 3047 1722 
L 2188 4044 
z
M 1831 4666 
L 2547 4666 
L 4325 0 
L 3669 0 
L 3244 1197 
L 1141 1197 
L 716 0 
L 50 0 
L 1831 4666 
z
" transform="scale(0.015625)"/>
     </defs>
     <use xlink:href="#DejaVuSans-41"/>
     <use xlink:href="#DejaVuSans-63" transform="translate(66.658203 0)"/>
     <use xlink:href="#DejaVuSans-63" transform="translate(121.638672 0)"/>
     <use xlink:href="#DejaVuSans-75" transform="translate(176.619141 0)"/>
     <use xlink:href="#DejaVuSans-72" transform="translate(239.998047 0)"/>
     <use xlink:href="#DejaVuSans-61" transform="translate(281.111328 0)"/>
     <use xlink:href="#DejaVuSans-63" transform="translate(342.390625 0)"/>
     <use xlink:href="#DejaVuSans-79" transform="translate(397.371094 0)"/>
     <use xlink:href="#DejaVuSans-20" transform="translate(456.550781 0)"/>
     <use xlink:href="#DejaVuSans-28" transform="translate(488.337891 0)"/>
     <use xlink:href="#DejaVuSans-70" transform="translate(527.351562 0)"/>
     <use xlink:href="#DejaVuSans-74" transform="translate(590.828125 0)"/>
     <use xlink:href="#DejaVuSans-2c" transform="translate(630.037109 0)"/>
     <use xlink:href="#DejaVuSans-20" transform="translate(661.824219 0)"/>
     <use xlink:href="#DejaVuSans-66" transform="translate(693.611328 0)"/>
     <use xlink:href="#DejaVuSans-61" transform="translate(728.816406 0)"/>
     <use xlink:href="#DejaVuSans-73" transform="translate(790.095703 0)"/>
     <use xlink:href="#DejaVuSans-68" transform="translate(842.195312 0)"/>
     <use xlink:href="#DejaVuSans-69" transform="translate(905.574219 0)"/>
     <use xlink:href="#DejaVuSans-6f" transform="translate(933.357422 0)"/>
     <use xlink:href="#DejaVuSans-6e" transform="translate(994.539062 0)"/>
     <use xlink:href="#DejaVuSans-5f" transform="translate(1057.917969 0)"/>
     <use xlink:href="#DejaVuSans-6d" transform="translate(1107.917969 0)"/>
     <use xlink:href="#DejaVuSans-6e" transform="translate(1205.330078 0)"/>
     <use xlink:href="#DejaVuSans-69" transform="translate(1268.708984 0)"/>
     <use xlink:href="#DejaVuSans-73" transform="translate(1296.492188 0)"/>
     <use xlink:href="#DejaVuSans-74" transform="translate(1348.591797 0)"/>
     <use xlink:href="#DejaVuSans-29" transform="translate(1387.800781 0)"/>
    </g>
   </g>
   <g id="legend_2">
    <g id="patch_13">
     <path d="M 630.292188 243.2 
L 702.2 243.2 
Q 704.2 243.2 704.2 241.2 
L 704.2 183.4875 
Q 704.2 181.4875 702.2 181.4875 
L 630.292188 181.4875 
Q 628.292188 181.4875 628.292188 183.4875 
L 628.292188 241.2 
Q 628.292188 243.2 630.292188 243.2 
z
" style="fill: #ffffff; opacity: 0.8; stroke: #cccccc; stroke-linejoin: miter"/>
    </g>
    <g id="line2d_77">
     <path d="M 632.292188 189.585938 
L 642.292188 189.585938 
L 652.292188 189.585938 
" style="fill: none; stroke: #1f77b4; stroke-width: 1.5; stroke-linecap: square"/>
    </g>
    <g id="text_43">
     <!-- agc -->
     <g transform="translate(660.292188 193.085938) scale(0.1 -0.1)">
      <use xlink:href="#DejaVuSans-61"/>
      <use xlink:href="#DejaVuSans-67" transform="translate(61.279297 0)"/>
      <use xlink:href="#DejaVuSans-63" transform="translate(124.755859 0)"/>
     </g>
    </g>
    <g id="line2d_78">
     <path d="M 632.292188 204.264063 
L 642.292188 204.264063 
L 652.292188 204.264063 
" style="fill: none; stroke: #ff7f0e; stroke-width: 1.5; stroke-linecap: square"/>
    </g>
    <g id="text_44">
     <!-- autoclip -->
     <g transform="translate(660.292188 207.764063) scale(0.1 -0.1)">
      <use xlink:href="#DejaVuSans-61"/>
      <use xlink:href="#DejaVuSans-75" transform="translate(61.279297 0)"/>
      <use xlink:href="#DejaVuSans-74" transform="translate(124.658203 0)"/>
      <use xlink:href="#DejaVuSans-6f" transform="translate(163.867188 0)"/>
      <use xlink:href="#DejaVuSans-63" transform="translate(225.048828 0)"/>
      <use xlink:href="#DejaVuSans-6c" transform="translate(280.029297 0)"/>
      <use xlink:href="#DejaVuSans-69" transform="translate(307.8125 0)"/>
      <use xlink:href="#DejaVuSans-70" transform="translate(335.595703 0)"/>
     </g>
    </g>
    <g id="line2d_79">
     <path d="M 632.292188 218.942188 
L 642.292188 218.942188 
L 652.292188 218.942188 
" style="fill: none; stroke: #2ca02c; stroke-width: 1.5; stroke-linecap: square"/>
    </g>
    <g id="text_45">
     <!-- none -->
     <g transform="translate(660.292188 222.442188) scale(0.1 -0.1)">
      <use xlink:href="#DejaVuSans-6e"/>
      <use xlink:href="#DejaVuSans-6f" transform="translate(63.378906 0)"/>
      <use xlink:href="#DejaVuSans-6e" transform="translate(124.560547 0)"/>
      <use xlink:href="#DejaVuSans-65" transform="translate(187.939453 0)"/>
     </g>
    </g>
    <g id="line2d_80">
     <path d="M 632.292188 233.620313 
L 642.292188 233.620313 
L 652.292188 233.620313 
" style="fill: none; stroke: #d62728; stroke-width: 1.5; stroke-linecap: square"/>
    </g>
    <g id="text_46">
     <!-- zscore -->
     <g transform="translate(660.292188 237.120313) scale(0.1 -0.1)">
      <use xlink:href="#DejaVuSans-7a"/>
      <use xlink:href="#DejaVuSans-73" transform="translate(52.490234 0)"/>
      <use xlink:href="#DejaVuSans-63" transform="translate(104.589844 0)"/>
      <use xlink:href="#DejaVuSans-6f" transform="translate(159.570312 0)"/>
      <use xlink:href="#DejaVuSans-72" transform="translate(220.751953 0)"/>
      <use xlink:href="#DejaVuSans-65" transform="translate(259.615234 0)"/>
     </g>
    </g>
   </g>
  </g>
 </g>
 <defs>
  <clipPath id="pbf6d4c5199">
   <rect x="53.1875" y="25.8" width="304.61875" height="222.4"/>
  </clipPath>
  <clipPath id="p2aa5f68240">
   <rect x="404.58125" y="25.8" width="304.61875" height="222.4"/>
  </clipPath>
 </defs>
</svg>
