<?xml version="1.0" encoding="utf-8" standalone="no"?>
<!DOCTYPE svg PUBLIC "-//W3C//DTD SVG 1.1//EN"
  "http://www.w3.org/Graphics/SVG/1.1/DTD/svg11.dtd">
<svg xmlns:xlink="http://www.w3.org/1999/xlink" width="720pt" height="288pt" viewBox="0 0 720 288" xmlns="http://www.w3.org/2000/svg" version="1.1">
 <metadata>
  <rdf:RDF xmlns:dc="http://purl.org/dc/elements/1.1/" xmlns:cc="http://creativecommons.org/ns#" xmlns:rdf="http://www.w3.org/1999/02/22-rdf-syntax-ns#">
   <cc:Work>
    <dc:type rdf:resource="http://purl.org/dc/dcmitype/StillImage"/>
    <dc:date>2025-09-13T12:53:03.677468</dc:date>
    <dc:format>image/svg+xml</dc:format>
    <dc:creator>
     <cc:Agent>
      <dc:title>Matplotlib v3.10.6, https://matplotlib.org/</dc:title>
     </cc:Agent>
    </dc:creator>
   </cc:Work>
  </rdf:RDF>
 </metadata>
 <defs>
  <style type="text/css">*{stroke-linejoin: round; stroke-linecap: butt}</style>
 </defs>
 <g id="figure_1">
  <g id="patch_1">
   <path d="M 0 288 
L 720 288 
L 720 0 
L 0 0 
z
" style="fill: #ffffff"/>
  </g>
  <g id="axes_1">
   <g id="patch_2">
    <path d="M 46.71875 248.2 
L 348.1875 248.2 
L 348.1875 25.8 
L 46.71875 25.8 
z
" style="fill: #ffffff"/>
   </g>
   <g id="matplotlib.axis_1">
    <g id="xtick_1">
     <g id="line2d_1">
      <path d="M 59.044677 248.2 
L 59.044677 25.8 
" clip-path="url(#p6ef35ea463)" style="fill: none; stroke: #b0b0b0; stroke-opacity: 0.3; stroke-width: 0.8; stroke-linecap: square"/>
     </g>
     <g id="line2d_2">
      <defs>
       <path id="md52d13aaaa" d="M 0 0 
L 0 3.5 
" style="stroke: #000000; stroke-width: 0.8"/>
      </defs>
      <g>
       <use xlink:href="#md52d13aaaa" x="59.044677" y="248.2" style="stroke: #000000; stroke-width: 0.8"/>
      </g>
     </g>
     <g id="text_1">
      <!-- 0 -->
      <g transform="translate(55.863427 262.798438) scale(0.1 -0.1)">
       <defs>
        <path id="DejaVuSans-30" d="M 2034 4250 
Q 1547 4250 1301 3770 
Q 1056 3291 1056 2328 
Q 1056 1369 1301 889 
Q 1547 409 2034 409 
Q 2525 409 2770 889 
Q 3016 1369 3016 2328 
Q 3016 3291 2770 3770 
Q 2525 4250 2034 4250 
z
M 2034 4750 
Q 2819 4750 3233 4129 
Q 3647 3509 3647 2328 
Q 3647 1150 3233 529 
Q 2819 -91 2034 -91 
Q 1250 -91 836 529 
Q 422 1150 422 2328 
Q 422 3509 836 4129 
Q 1250 4750 2034 4750 
z
" transform="scale(0.015625)"/>
       </defs>
       <use xlink:href="#DejaVuSans-30"/>
      </g>
     </g>
    </g>
    <g id="xtick_2">
     <g id="line2d_3">
      <path d="M 93.474639 248.2 
L 93.474639 25.8 
" clip-path="url(#p6ef35ea463)" style="fill: none; stroke: #b0b0b0; stroke-opacity: 0.3; stroke-width: 0.8; stroke-linecap: square"/>
     </g>
     <g id="line2d_4">
      <g>
       <use xlink:href="#md52d13aaaa" x="93.474639" y="248.2" style="stroke: #000000; stroke-width: 0.8"/>
      </g>
     </g>
     <g id="text_2">
      <!-- 25 -->
      <g transform="translate(87.112139 262.798438) scale(0.1 -0.1)">
       <defs>
        <path id="DejaVuSans-32" d="M 1228 531 
L 3431 531 
L 3431 0 
L 469 0 
L 469 531 
Q 828 903 1448 1529 
Q 2069 2156 2228 2338 
Q 2531 2678 2651 2914 
Q 2772 3150 2772 3378 
Q 2772 3750 2511 3984 
Q 2250 4219 1831 4219 
Q 1534 4219 1204 4116 
Q 875 4013 500 3803 
L 500 4441 
Q 881 4594 1212 4672 
Q 1544 4750 1819 4750 
Q 2544 4750 2975 4387 
Q 3406 4025 3406 3419 
Q 3406 3131 3298 2873 
Q 3191 2616 2906 2266 
Q 2828 2175 2409 1742 
Q 1991 1309 1228 531 
z
" transform="scale(0.015625)"/>
        <path id="DejaVuSans-35" d="M 691 4666 
L 3169 4666 
L 3169 4134 
L 1269 4134 
L 1269 2991 
Q 1406 3038 1543 3061 
Q 1681 3084 1819 3084 
Q 2600 3084 3056 2656 
Q 3513 2228 3513 1497 
Q 3513 744 3044 326 
Q 2575 -91 1722 -91 
Q 1428 -91 1123 -41 
Q 819 9 494 109 
L 494 744 
Q 775 591 1075 516 
Q 1375 441 1709 441 
Q 2250 441 2565 725 
Q 2881 1009 2881 1497 
Q 2881 1984 2565 2268 
Q 2250 2553 1709 2553 
Q 1456 2553 1204 2497 
Q 953 2441 691 2322 
L 691 4666 
z
" transform="scale(0.015625)"/>
       </defs>
       <use xlink:href="#DejaVuSans-32"/>
       <use xlink:href="#DejaVuSans-35" transform="translate(63.623047 0)"/>
      </g>
     </g>
    </g>
    <g id="xtick_3">
     <g id="line2d_5">
      <path d="M 127.904601 248.2 
L 127.904601 25.8 
" clip-path="url(#p6ef35ea463)" style="fill: none; stroke: #b0b0b0; stroke-opacity: 0.3; stroke-width: 0.8; stroke-linecap: square"/>
     </g>
     <g id="line2d_6">
      <g>
       <use xlink:href="#md52d13aaaa" x="127.904601" y="248.2" style="stroke: #000000; stroke-width: 0.8"/>
      </g>
     </g>
     <g id="text_3">
      <!-- 50 -->
      <g transform="translate(121.542101 262.798438) scale(0.1 -0.1)">
       <use xlink:href="#DejaVuSans-35"/>
       <use xlink:href="#DejaVuSans-30" transform="translate(63.623047 0)"/>
      </g>
     </g>
    </g>
    <g id="xtick_4">
     <g id="line2d_7">
      <path d="M 162.334563 248.2 
L 162.334563 25.8 
" clip-path="url(#p6ef35ea463)" style="fill: none; stroke: #b0b0b0; stroke-opacity: 0.3; stroke-width: 0.8; stroke-linecap: square"/>
     </g>
     <g id="line2d_8">
      <g>
       <use xlink:href="#md52d13aaaa" x="162.334563" y="248.2" style="stroke: #000000; stroke-width: 0.8"/>
      </g>
     </g>
     <g id="text_4">
      <!-- 75 -->
      <g transform="translate(155.972063 262.798438) scale(0.1 -0.1)">
       <defs>
        <path id="DejaVuSans-37" d="M 525 4666 
L 3525 4666 
L 3525 4397 
L 1831 0 
L 1172 0 
L 2766 4134 
L 525 4134 
L 525 4666 
z
" transform="scale(0.015625)"/>
       </defs>
       <use xlink:href="#DejaVuSans-37"/>
       <use xlink:href="#DejaVuSans-35" transform="translate(63.623047 0)"/>
      </g>
     </g>
    </g>
    <g id="xtick_5">
     <g id="line2d_9">
      <path d="M 196.764526 248.2 
L 196.764526 25.8 
" clip-path="url(#p6ef35ea463)" style="fill: none; stroke: #b0b0b0; stroke-opacity: 0.3; stroke-width: 0.8; stroke-linecap: square"/>
     </g>
     <g id="line2d_10">
      <g>
       <use xlink:href="#md52d13aaaa" x="196.764526" y="248.2" style="stroke: #000000; stroke-width: 0.8"/>
      </g>
     </g>
     <g id="text_5">
      <!-- 100 -->
      <g transform="translate(187.220776 262.798438) scale(0.1 -0.1)">
       <defs>
        <path id="DejaVuSans-31" d="M 794 531 
L 1825 531 
L 1825 4091 
L 703 3866 
L 703 4441 
L 1819 4666 
L 2450 4666 
L 2450 531 
L 3481 531 
L 3481 0 
L 794 0 
L 794 531 
z
" transform="scale(0.015625)"/>
       </defs>
       <use xlink:href="#DejaVuSans-31"/>
       <use xlink:href="#DejaVuSans-30" transform="translate(63.623047 0)"/>
       <use xlink:href="#DejaVuSans-30" transform="translate(127.246094 0)"/>
      </g>
     </g>
    </g>
    <g id="xtick_6">
     <g id="line2d_11">
      <path d="M 231.194488 248.2 
L 231.194488 25.8 
" clip-path="url(#p6ef35ea463)" style="fill: none; stroke: #b0b0b0; stroke-opacity: 0.3; stroke-width: 0.8; stroke-linecap: square"/>
     </g>
     <g id="line2d_12">
      <g>
       <use xlink:href="#md52d13aaaa" x="231.194488" y="248.2" style="stroke: #000000; stroke-width: 0.8"/>
      </g>
     </g>
     <g id="text_6">
      <!-- 125 -->
      <g transform="translate(221.650738 262.798438) scale(0.1 -0.1)">
       <use xlink:href="#DejaVuSans-31"/>
       <use xlink:href="#DejaVuSans-32" transform="translate(63.623047 0)"/>
       <use xlink:href="#DejaVuSans-35" transform="translate(127.246094 0)"/>
      </g>
     </g>
    </g>
    <g id="xtick_7">
     <g id="line2d_13">
      <path d="M 265.62445 248.2 
L 265.62445 25.8 
" clip-path="url(#p6ef35ea463)" style="fill: none; stroke: #b0b0b0; stroke-opacity: 0.3; stroke-width: 0.8; stroke-linecap: square"/>
     </g>
     <g id="line2d_14">
      <g>
       <use xlink:href="#md52d13aaaa" x="265.62445" y="248.2" style="stroke: #000000; stroke-width: 0.8"/>
      </g>
     </g>
     <g id="text_7">
      <!-- 150 -->
      <g transform="translate(256.0807 262.798438) scale(0.1 -0.1)">
       <use xlink:href="#DejaVuSans-31"/>
       <use xlink:href="#DejaVuSans-35" transform="translate(63.623047 0)"/>
       <use xlink:href="#DejaVuSans-30" transform="translate(127.246094 0)"/>
      </g>
     </g>
    </g>
    <g id="xtick_8">
     <g id="line2d_15">
      <path d="M 300.054413 248.2 
L 300.054413 25.8 
" clip-path="url(#p6ef35ea463)" style="fill: none; stroke: #b0b0b0; stroke-opacity: 0.3; stroke-width: 0.8; stroke-linecap: square"/>
     </g>
     <g id="line2d_16">
      <g>
       <use xlink:href="#md52d13aaaa" x="300.054413" y="248.2" style="stroke: #000000; stroke-width: 0.8"/>
      </g>
     </g>
     <g id="text_8">
      <!-- 175 -->
      <g transform="translate(290.510663 262.798438) scale(0.1 -0.1)">
       <use xlink:href="#DejaVuSans-31"/>
       <use xlink:href="#DejaVuSans-37" transform="translate(63.623047 0)"/>
       <use xlink:href="#DejaVuSans-35" transform="translate(127.246094 0)"/>
      </g>
     </g>
    </g>
    <g id="xtick_9">
     <g id="line2d_17">
      <path d="M 334.484375 248.2 
L 334.484375 25.8 
" clip-path="url(#p6ef35ea463)" style="fill: none; stroke: #b0b0b0; stroke-opacity: 0.3; stroke-width: 0.8; stroke-linecap: square"/>
     </g>
     <g id="line2d_18">
      <g>
       <use xlink:href="#md52d13aaaa" x="334.484375" y="248.2" style="stroke: #000000; stroke-width: 0.8"/>
      </g>
     </g>
     <g id="text_9">
      <!-- 200 -->
      <g transform="translate(324.940625 262.798438) scale(0.1 -0.1)">
       <use xlink:href="#DejaVuSans-32"/>
       <use xlink:href="#DejaVuSans-30" transform="translate(63.623047 0)"/>
       <use xlink:href="#DejaVuSans-30" transform="translate(127.246094 0)"/>
      </g>
     </g>
    </g>
    <g id="text_10">
     <!-- step -->
     <g transform="translate(186.6375 276.476562) scale(0.1 -0.1)">
      <defs>
       <path id="DejaVuSans-73" d="M 2834 3397 
L 2834 2853 
Q 2591 2978 2328 3040 
Q 2066 3103 1784 3103 
Q 1356 3103 1142 2972 
Q 928 2841 928 2578 
Q 928 2378 1081 2264 
Q 1234 2150 1697 2047 
L 1894 2003 
Q 2506 1872 2764 1633 
Q 3022 1394 3022 966 
Q 3022 478 2636 193 
Q 2250 -91 1575 -91 
Q 1294 -91 989 -36 
Q 684 19 347 128 
L 347 722 
Q 666 556 975 473 
Q 1284 391 1588 391 
Q 1994 391 2212 530 
Q 2431 669 2431 922 
Q 2431 1156 2273 1281 
Q 2116 1406 1581 1522 
L 1381 1569 
Q 847 1681 609 1914 
Q 372 2147 372 2553 
Q 372 3047 722 3315 
Q 1072 3584 1716 3584 
Q 2034 3584 2315 3537 
Q 2597 3491 2834 3397 
z
" transform="scale(0.015625)"/>
       <path id="DejaVuSans-74" d="M 1172 4494 
L 1172 3500 
L 2356 3500 
L 2356 3053 
L 1172 3053 
L 1172 1153 
Q 1172 725 1289 603 
Q 1406 481 1766 481 
L 2356 481 
L 2356 0 
L 1766 0 
Q 1100 0 847 248 
Q 594 497 594 1153 
L 594 3053 
L 172 3053 
L 172 3500 
L 594 3500 
L 594 4494 
L 1172 4494 
z
" transform="scale(0.015625)"/>
       <path id="DejaVuSans-65" d="M 3597 1894 
L 3597 1613 
L 953 1613 
Q 991 1019 1311 708 
Q 1631 397 2203 397 
Q 2534 397 2845 478 
Q 3156 559 3463 722 
L 3463 178 
Q 3153 47 2828 -22 
Q 2503 -91 2169 -91 
Q 1331 -91 842 396 
Q 353 884 353 1716 
Q 353 2575 817 3079 
Q 1281 3584 2069 3584 
Q 2775 3584 3186 3129 
Q 3597 2675 3597 1894 
z
M 3022 2063 
Q 3016 2534 2758 2815 
Q 2500 3097 2075 3097 
Q 1594 3097 1305 2825 
Q 1016 2553 972 2059 
L 3022 2063 
z
" transform="scale(0.015625)"/>
       <path id="DejaVuSans-70" d="M 1159 525 
L 1159 -1331 
L 581 -1331 
L 581 3500 
L 1159 3500 
L 1159 2969 
Q 1341 3281 1617 3432 
Q 1894 3584 2278 3584 
Q 2916 3584 3314 3078 
Q 3713 2572 3713 1747 
Q 3713 922 3314 415 
Q 2916 -91 2278 -91 
Q 1894 -91 1617 61 
Q 1341 213 1159 525 
z
M 3116 1747 
Q 3116 2381 2855 2742 
Q 2594 3103 2138 3103 
Q 1681 3103 1420 2742 
Q 1159 2381 1159 1747 
Q 1159 1113 1420 752 
Q 1681 391 2138 391 
Q 2594 391 2855 752 
Q 3116 1113 3116 1747 
z
" transform="scale(0.015625)"/>
      </defs>
      <use xlink:href="#DejaVuSans-73"/>
      <use xlink:href="#DejaVuSans-74" transform="translate(52.099609 0)"/>
      <use xlink:href="#DejaVuSans-65" transform="translate(91.308594 0)"/>
      <use xlink:href="#DejaVuSans-70" transform="translate(152.832031 0)"/>
     </g>
    </g>
   </g>
   <g id="matplotlib.axis_2">
    <g id="ytick_1">
     <g id="line2d_19">
      <path d="M 46.71875 247.326998 
L 348.1875 247.326998 
" clip-path="url(#p6ef35ea463)" style="fill: none; stroke: #b0b0b0; stroke-opacity: 0.3; stroke-width: 0.8; stroke-linecap: square"/>
     </g>
     <g id="line2d_20">
      <defs>
       <path id="m6e22129521" d="M 0 0 
L -3.5 0 
" style="stroke: #000000; stroke-width: 0.8"/>
      </defs>
      <g>
       <use xlink:href="#m6e22129521" x="46.71875" y="247.326998" style="stroke: #000000; stroke-width: 0.8"/>
      </g>
     </g>
     <g id="text_11">
      <!-- 1.7 -->
      <g transform="translate(23.815625 251.126217) scale(0.1 -0.1)">
       <defs>
        <path id="DejaVuSans-2e" d="M 684 794 
L 1344 794 
L 1344 0 
L 684 0 
L 684 794 
z
" transform="scale(0.015625)"/>
       </defs>
       <use xlink:href="#DejaVuSans-31"/>
       <use xlink:href="#DejaVuSans-2e" transform="translate(63.623047 0)"/>
       <use xlink:href="#DejaVuSans-37" transform="translate(95.410156 0)"/>
      </g>
     </g>
    </g>
    <g id="ytick_2">
     <g id="line2d_21">
      <path d="M 46.71875 218.416719 
L 348.1875 218.416719 
" clip-path="url(#p6ef35ea463)" style="fill: none; stroke: #b0b0b0; stroke-opacity: 0.3; stroke-width: 0.8; stroke-linecap: square"/>
     </g>
     <g id="line2d_22">
      <g>
       <use xlink:href="#m6e22129521" x="46.71875" y="218.416719" style="stroke: #000000; stroke-width: 0.8"/>
      </g>
     </g>
     <g id="text_12">
      <!-- 1.8 -->
      <g transform="translate(23.815625 222.215938) scale(0.1 -0.1)">
       <defs>
        <path id="DejaVuSans-38" d="M 2034 2216 
Q 1584 2216 1326 1975 
Q 1069 1734 1069 1313 
Q 1069 891 1326 650 
Q 1584 409 2034 409 
Q 2484 409 2743 651 
Q 3003 894 3003 1313 
Q 3003 1734 2745 1975 
Q 2488 2216 2034 2216 
z
M 1403 2484 
Q 997 2584 770 2862 
Q 544 3141 544 3541 
Q 544 4100 942 4425 
Q 1341 4750 2034 4750 
Q 2731 4750 3128 4425 
Q 3525 4100 3525 3541 
Q 3525 3141 3298 2862 
Q 3072 2584 2669 2484 
Q 3125 2378 3379 2068 
Q 3634 1759 3634 1313 
Q 3634 634 3220 271 
Q 2806 -91 2034 -91 
Q 1263 -91 848 271 
Q 434 634 434 1313 
Q 434 1759 690 2068 
Q 947 2378 1403 2484 
z
M 1172 3481 
Q 1172 3119 1398 2916 
Q 1625 2713 2034 2713 
Q 2441 2713 2670 2916 
Q 2900 3119 2900 3481 
Q 2900 3844 2670 4047 
Q 2441 4250 2034 4250 
Q 1625 4250 1398 4047 
Q 1172 3844 1172 3481 
z
" transform="scale(0.015625)"/>
       </defs>
       <use xlink:href="#DejaVuSans-31"/>
       <use xlink:href="#DejaVuSans-2e" transform="translate(63.623047 0)"/>
       <use xlink:href="#DejaVuSans-38" transform="translate(95.410156 0)"/>
      </g>
     </g>
    </g>
    <g id="ytick_3">
     <g id="line2d_23">
      <path d="M 46.71875 189.50644 
L 348.1875 189.50644 
" clip-path="url(#p6ef35ea463)" style="fill: none; stroke: #b0b0b0; stroke-opacity: 0.3; stroke-width: 0.8; stroke-linecap: square"/>
     </g>
     <g id="line2d_24">
      <g>
       <use xlink:href="#m6e22129521" x="46.71875" y="189.50644" style="stroke: #000000; stroke-width: 0.8"/>
      </g>
     </g>
     <g id="text_13">
      <!-- 1.9 -->
      <g transform="translate(23.815625 193.305659) scale(0.1 -0.1)">
       <defs>
        <path id="DejaVuSans-39" d="M 703 97 
L 703 672 
Q 941 559 1184 500 
Q 1428 441 1663 441 
Q 2288 441 2617 861 
Q 2947 1281 2994 2138 
Q 2813 1869 2534 1725 
Q 2256 1581 1919 1581 
Q 1219 1581 811 2004 
Q 403 2428 403 3163 
Q 403 3881 828 4315 
Q 1253 4750 1959 4750 
Q 2769 4750 3195 4129 
Q 3622 3509 3622 2328 
Q 3622 1225 3098 567 
Q 2575 -91 1691 -91 
Q 1453 -91 1209 -44 
Q 966 3 703 97 
z
M 1959 2075 
Q 2384 2075 2632 2365 
Q 2881 2656 2881 3163 
Q 2881 3666 2632 3958 
Q 2384 4250 1959 4250 
Q 1534 4250 1286 3958 
Q 1038 3666 1038 3163 
Q 1038 2656 1286 2365 
Q 1534 2075 1959 2075 
z
" transform="scale(0.015625)"/>
       </defs>
       <use xlink:href="#DejaVuSans-31"/>
       <use xlink:href="#DejaVuSans-2e" transform="translate(63.623047 0)"/>
       <use xlink:href="#DejaVuSans-39" transform="translate(95.410156 0)"/>
      </g>
     </g>
    </g>
    <g id="ytick_4">
     <g id="line2d_25">
      <path d="M 46.71875 160.596161 
L 348.1875 160.596161 
" clip-path="url(#p6ef35ea463)" style="fill: none; stroke: #b0b0b0; stroke-opacity: 0.3; stroke-width: 0.8; stroke-linecap: square"/>
     </g>
     <g id="line2d_26">
      <g>
       <use xlink:href="#m6e22129521" x="46.71875" y="160.596161" style="stroke: #000000; stroke-width: 0.8"/>
      </g>
     </g>
     <g id="text_14">
      <!-- 2.0 -->
      <g transform="translate(23.815625 164.39538) scale(0.1 -0.1)">
       <use xlink:href="#DejaVuSans-32"/>
       <use xlink:href="#DejaVuSans-2e" transform="translate(63.623047 0)"/>
       <use xlink:href="#DejaVuSans-30" transform="translate(95.410156 0)"/>
      </g>
     </g>
    </g>
    <g id="ytick_5">
     <g id="line2d_27">
      <path d="M 46.71875 131.685882 
L 348.1875 131.685882 
" clip-path="url(#p6ef35ea463)" style="fill: none; stroke: #b0b0b0; stroke-opacity: 0.3; stroke-width: 0.8; stroke-linecap: square"/>
     </g>
     <g id="line2d_28">
      <g>
       <use xlink:href="#m6e22129521" x="46.71875" y="131.685882" style="stroke: #000000; stroke-width: 0.8"/>
      </g>
     </g>
     <g id="text_15">
      <!-- 2.1 -->
      <g transform="translate(23.815625 135.485101) scale(0.1 -0.1)">
       <use xlink:href="#DejaVuSans-32"/>
       <use xlink:href="#DejaVuSans-2e" transform="translate(63.623047 0)"/>
       <use xlink:href="#DejaVuSans-31" transform="translate(95.410156 0)"/>
      </g>
     </g>
    </g>
    <g id="ytick_6">
     <g id="line2d_29">
      <path d="M 46.71875 102.775603 
L 348.1875 102.775603 
" clip-path="url(#p6ef35ea463)" style="fill: none; stroke: #b0b0b0; stroke-opacity: 0.3; stroke-width: 0.8; stroke-linecap: square"/>
     </g>
     <g id="line2d_30">
      <g>
       <use xlink:href="#m6e22129521" x="46.71875" y="102.775603" style="stroke: #000000; stroke-width: 0.8"/>
      </g>
     </g>
     <g id="text_16">
      <!-- 2.2 -->
      <g transform="translate(23.815625 106.574822) scale(0.1 -0.1)">
       <use xlink:href="#DejaVuSans-32"/>
       <use xlink:href="#DejaVuSans-2e" transform="translate(63.623047 0)"/>
       <use xlink:href="#DejaVuSans-32" transform="translate(95.410156 0)"/>
      </g>
     </g>
    </g>
    <g id="ytick_7">
     <g id="line2d_31">
      <path d="M 46.71875 73.865324 
L 348.1875 73.865324 
" clip-path="url(#p6ef35ea463)" style="fill: none; stroke: #b0b0b0; stroke-opacity: 0.3; stroke-width: 0.8; stroke-linecap: square"/>
     </g>
     <g id="line2d_32">
      <g>
       <use xlink:href="#m6e22129521" x="46.71875" y="73.865324" style="stroke: #000000; stroke-width: 0.8"/>
      </g>
     </g>
     <g id="text_17">
      <!-- 2.3 -->
      <g transform="translate(23.815625 77.664543) scale(0.1 -0.1)">
       <defs>
        <path id="DejaVuSans-33" d="M 2597 2516 
Q 3050 2419 3304 2112 
Q 3559 1806 3559 1356 
Q 3559 666 3084 287 
Q 2609 -91 1734 -91 
Q 1441 -91 1130 -33 
Q 819 25 488 141 
L 488 750 
Q 750 597 1062 519 
Q 1375 441 1716 441 
Q 2309 441 2620 675 
Q 2931 909 2931 1356 
Q 2931 1769 2642 2001 
Q 2353 2234 1838 2234 
L 1294 2234 
L 1294 2753 
L 1863 2753 
Q 2328 2753 2575 2939 
Q 2822 3125 2822 3475 
Q 2822 3834 2567 4026 
Q 2313 4219 1838 4219 
Q 1578 4219 1281 4162 
Q 984 4106 628 3988 
L 628 4550 
Q 988 4650 1302 4700 
Q 1616 4750 1894 4750 
Q 2613 4750 3031 4423 
Q 3450 4097 3450 3541 
Q 3450 3153 3228 2886 
Q 3006 2619 2597 2516 
z
" transform="scale(0.015625)"/>
       </defs>
       <use xlink:href="#DejaVuSans-32"/>
       <use xlink:href="#DejaVuSans-2e" transform="translate(63.623047 0)"/>
       <use xlink:href="#DejaVuSans-33" transform="translate(95.410156 0)"/>
      </g>
     </g>
    </g>
    <g id="ytick_8">
     <g id="line2d_33">
      <path d="M 46.71875 44.955046 
L 348.1875 44.955046 
" clip-path="url(#p6ef35ea463)" style="fill: none; stroke: #b0b0b0; stroke-opacity: 0.3; stroke-width: 0.8; stroke-linecap: square"/>
     </g>
     <g id="line2d_34">
      <g>
       <use xlink:href="#m6e22129521" x="46.71875" y="44.955046" style="stroke: #000000; stroke-width: 0.8"/>
      </g>
     </g>
     <g id="text_18">
      <!-- 2.4 -->
      <g transform="translate(23.815625 48.754264) scale(0.1 -0.1)">
       <defs>
        <path id="DejaVuSans-34" d="M 2419 4116 
L 825 1625 
L 2419 1625 
L 2419 4116 
z
M 2253 4666 
L 3047 4666 
L 3047 1625 
L 3713 1625 
L 3713 1100 
L 3047 1100 
L 3047 0 
L 2419 0 
L 2419 1100 
L 313 1100 
L 313 1709 
L 2253 4666 
z
" transform="scale(0.015625)"/>
       </defs>
       <use xlink:href="#DejaVuSans-32"/>
       <use xlink:href="#DejaVuSans-2e" transform="translate(63.623047 0)"/>
       <use xlink:href="#DejaVuSans-34" transform="translate(95.410156 0)"/>
      </g>
     </g>
    </g>
    <g id="text_19">
     <!-- loss -->
     <g transform="translate(17.735937 146.657813) rotate(-90) scale(0.1 -0.1)">
      <defs>
       <path id="DejaVuSans-6c" d="M 603 4863 
L 1178 4863 
L 1178 0 
L 603 0 
L 603 4863 
z
" transform="scale(0.015625)"/>
       <path id="DejaVuSans-6f" d="M 1959 3097 
Q 1497 3097 1228 2736 
Q 959 2375 959 1747 
Q 959 1119 1226 758 
Q 1494 397 1959 397 
Q 2419 397 2687 759 
Q 2956 1122 2956 1747 
Q 2956 2369 2687 2733 
Q 2419 3097 1959 3097 
z
M 1959 3584 
Q 2709 3584 3137 3096 
Q 3566 2609 3566 1747 
Q 3566 888 3137 398 
Q 2709 -91 1959 -91 
Q 1206 -91 779 398 
Q 353 888 353 1747 
Q 353 2609 779 3096 
Q 1206 3584 1959 3584 
z
" transform="scale(0.015625)"/>
      </defs>
      <use xlink:href="#DejaVuSans-6c"/>
      <use xlink:href="#DejaVuSans-6f" transform="translate(27.783203 0)"/>
      <use xlink:href="#DejaVuSans-73" transform="translate(88.964844 0)"/>
      <use xlink:href="#DejaVuSans-73" transform="translate(141.064453 0)"/>
     </g>
    </g>
   </g>
   <g id="line2d_35">
    <path d="M 60.421875 72.759282 
L 61.799073 35.909091 
L 63.176272 66.795493 
L 64.55347 68.809807 
L 65.930669 75.435506 
L 67.307867 76.820925 
L 68.685066 72.846889 
L 70.062264 69.480724 
L 71.439463 76.500872 
L 72.816661 87.91648 
L 74.19386 80.78715 
L 76.948257 81.104975 
L 78.325455 81.095762 
L 79.702654 93.950598 
L 81.079852 99.34461 
L 82.457051 97.79342 
L 83.834249 90.580504 
L 85.211448 117.247396 
L 87.965845 123.660362 
L 89.343043 113.742996 
L 90.720242 62.917059 
L 92.09744 43.861001 
L 93.474639 86.170409 
L 94.851837 116.937613 
L 96.229036 80.024675 
L 97.606234 68.924915 
L 98.983433 91.181241 
L 100.360631 97.634059 
L 101.73783 115.530516 
L 103.115028 122.434487 
L 104.492227 97.523592 
L 105.869425 118.615813 
L 107.246624 121.087254 
L 108.623822 128.593387 
L 110.001021 95.779428 
L 111.378219 133.935197 
L 112.755418 135.306647 
L 114.132616 105.209855 
L 115.509815 115.891385 
L 116.887013 116.688876 
L 118.264212 147.448268 
L 119.64141 124.722558 
L 121.018609 119.932397 
L 122.395807 135.870635 
L 123.773006 115.900874 
L 125.150204 117.938371 
L 126.527403 121.953925 
L 127.904601 154.34599 
L 129.2818 135.307911 
L 130.658998 127.708932 
L 132.036197 127.662337 
L 133.413395 145.089041 
L 134.790594 146.486695 
L 136.167792 146.040367 
L 137.544991 125.075466 
L 138.922189 151.601482 
L 140.299388 143.879088 
L 141.676586 147.909002 
L 143.053785 182.335761 
L 144.430983 176.787811 
L 145.808182 168.67476 
L 147.18538 127.123899 
L 148.562579 153.745379 
L 149.939777 164.899683 
L 151.316976 136.225749 
L 152.694174 160.255074 
L 154.071372 141.655741 
L 155.448571 137.176351 
L 156.825769 164.488967 
L 158.202968 170.010908 
L 159.580166 152.15119 
L 160.957365 142.647332 
L 162.334563 178.769694 
L 163.711762 155.703333 
L 165.08896 143.28043 
L 166.466159 162.424003 
L 167.843357 135.436438 
L 169.220556 112.036892 
L 170.597754 144.204093 
L 173.352151 158.811089 
L 174.72935 143.195707 
L 176.106548 138.017657 
L 177.483747 149.292928 
L 178.860945 153.845657 
L 180.238144 157.216279 
L 181.615342 122.952385 
L 184.369739 159.04218 
L 185.746938 131.82319 
L 187.124136 157.537803 
L 188.501335 177.204799 
L 189.878533 161.136507 
L 191.255732 130.625805 
L 192.63293 152.293973 
L 194.010129 166.185789 
L 195.387327 139.515589 
L 196.764526 157.674739 
L 198.141724 154.683849 
L 199.518923 165.09392 
L 200.896121 188.62985 
L 202.27332 130.525539 
L 203.650518 157.585478 
L 205.027717 132.997634 
L 206.404915 177.652357 
L 207.782114 162.495412 
L 209.159312 155.937319 
L 210.536511 161.394996 
L 211.913709 189.662729 
L 213.290908 187.954786 
L 214.668106 165.57786 
L 216.045305 140.559782 
L 217.422503 195.226968 
L 218.799702 186.149495 
L 220.1769 167.147994 
L 221.554099 162.523086 
L 222.931297 173.709533 
L 224.308496 147.617945 
L 225.685694 172.354155 
L 227.062893 149.518884 
L 228.440091 131.434692 
L 229.81729 173.146338 
L 231.194488 139.501665 
L 232.571687 169.199574 
L 233.948885 176.244192 
L 235.326084 173.20511 
L 236.703282 155.822554 
L 238.080481 160.496228 
L 239.457679 166.734934 
L 240.834878 166.563109 
L 242.212076 146.365774 
L 243.589274 158.67498 
L 244.966473 183.142741 
L 246.343671 140.719763 
L 247.72087 167.477065 
L 249.098068 152.677141 
L 250.475267 186.313542 
L 253.229664 146.478355 
L 254.606862 180.134906 
L 255.984061 199.043655 
L 257.361259 157.324139 
L 258.738458 181.399772 
L 260.115656 202.519369 
L 261.492855 170.128038 
L 262.870053 182.304893 
L 264.247252 163.151555 
L 265.62445 141.094108 
L 267.001649 186.998314 
L 268.378847 141.021367 
L 269.756046 189.888891 
L 271.133244 194.369614 
L 272.510443 149.818753 
L 273.887641 155.135416 
L 275.26484 146.368301 
L 276.642038 192.823053 
L 278.019237 161.92089 
L 279.396435 141.488063 
L 280.773634 158.733545 
L 283.528031 181.933431 
L 284.905229 178.853579 
L 286.282428 186.833164 
L 287.659626 152.742346 
L 289.036825 182.449296 
L 290.414023 168.996881 
L 291.791222 168.303919 
L 293.16842 147.683242 
L 294.545619 185.591366 
L 295.922817 158.558056 
L 297.300016 154.804116 
L 298.677214 190.21524 
L 300.054413 184.048023 
L 301.431611 190.035488 
L 302.80881 165.624926 
L 304.186008 154.83858 
L 305.563207 213.300717 
L 306.940405 193.378253 
L 308.317604 170.954008 
L 309.694802 179.66219 
L 311.072001 174.929595 
L 312.449199 200.722464 
L 313.826398 190.556959 
L 315.203596 196.808842 
L 316.580795 185.092343 
L 317.957993 216.871574 
L 319.335192 168.074942 
L 320.71239 166.232361 
L 322.089589 197.195227 
L 323.466787 185.354394 
L 324.843986 223.251938 
L 326.221184 197.857654 
L 327.598383 178.165786 
L 328.975581 191.735987 
L 330.35278 200.160889 
L 331.729978 177.666568 
L 333.107177 188.93652 
L 334.484375 176.427608 
L 334.484375 176.427608 
" clip-path="url(#p6ef35ea463)" style="fill: none; stroke: #1f77b4; stroke-width: 1.5; stroke-linecap: square"/>
   </g>
   <g id="line2d_36">
    <path d="M 60.421875 72.759282 
L 61.799073 35.909275 
L 63.176272 67.294919 
L 64.55347 70.792023 
L 65.930669 75.422295 
L 67.307867 76.034049 
L 68.685066 69.274033 
L 70.062264 66.981712 
L 71.439463 74.255123 
L 72.816661 70.19302 
L 74.19386 75.179647 
L 76.948257 75.861524 
L 78.325455 69.370692 
L 79.702654 79.957631 
L 81.079852 75.302798 
L 82.457051 75.977782 
L 83.834249 69.755308 
L 85.211448 77.082505 
L 86.588646 78.289885 
L 87.965845 82.257396 
L 89.343043 84.934769 
L 90.720242 84.540987 
L 92.09744 83.313572 
L 93.474639 91.712408 
L 94.851837 97.478651 
L 96.229036 91.024397 
L 97.606234 92.297947 
L 98.983433 88.478285 
L 100.360631 98.593966 
L 101.73783 77.376894 
L 103.115028 102.676219 
L 104.492227 95.539078 
L 105.869425 109.902001 
L 107.246624 110.161031 
L 108.623822 114.313383 
L 110.001021 106.331351 
L 111.378219 115.442162 
L 112.755418 109.944576 
L 114.132616 96.24949 
L 115.509815 111.083097 
L 116.887013 117.909881 
L 118.264212 113.579834 
L 119.64141 96.37588 
L 121.018609 97.087924 
L 122.395807 129.404571 
L 123.773006 116.487332 
L 125.150204 124.554719 
L 126.527403 117.397887 
L 127.904601 148.182196 
L 129.2818 126.189955 
L 132.036197 112.120823 
L 133.413395 130.164474 
L 134.790594 125.770761 
L 136.167792 132.323972 
L 137.544991 119.561843 
L 138.922189 134.153238 
L 140.299388 114.872775 
L 141.676586 110.156045 
L 143.053785 158.652797 
L 144.430983 144.024319 
L 145.808182 127.297918 
L 147.18538 160.576942 
L 148.562579 159.071865 
L 149.939777 141.997139 
L 151.316976 107.244962 
L 152.694174 162.267698 
L 154.071372 123.968284 
L 155.448571 131.395909 
L 156.825769 118.325353 
L 158.202968 137.498748 
L 159.580166 118.95898 
L 160.957365 127.336287 
L 162.334563 151.336685 
L 163.711762 130.729403 
L 165.08896 126.317953 
L 166.466159 140.979149 
L 167.843357 119.649334 
L 169.220556 114.726189 
L 170.597754 129.120131 
L 171.974953 131.030134 
L 173.352151 124.844743 
L 174.72935 147.001675 
L 176.106548 140.587296 
L 177.483747 133.588515 
L 178.860945 155.434975 
L 180.238144 144.25734 
L 181.615342 117.062509 
L 182.992541 157.502076 
L 184.369739 145.764875 
L 185.746938 130.398161 
L 187.124136 127.793552 
L 188.501335 140.914679 
L 189.878533 156.945073 
L 191.255732 155.405371 
L 192.63293 141.015634 
L 194.010129 129.762374 
L 195.387327 131.81307 
L 196.764526 139.371186 
L 198.141724 150.342625 
L 199.518923 136.552178 
L 200.896121 143.985386 
L 202.27332 116.111747 
L 203.650518 165.992884 
L 205.027717 125.922079 
L 206.404915 147.182472 
L 207.782114 127.799641 
L 209.159312 140.268058 
L 210.536511 133.358665 
L 213.290908 165.353938 
L 214.668106 130.853036 
L 216.045305 133.136109 
L 217.422503 173.049576 
L 218.799702 163.597757 
L 220.1769 156.622136 
L 221.554099 153.120884 
L 222.931297 150.602803 
L 224.308496 132.996198 
L 225.685694 162.107752 
L 227.062893 137.421365 
L 228.440091 136.816113 
L 229.81729 161.943142 
L 231.194488 135.0271 
L 232.571687 154.66702 
L 233.948885 135.849451 
L 235.326084 149.772503 
L 236.703282 133.83755 
L 238.080481 142.026375 
L 239.457679 161.147581 
L 240.834878 128.094593 
L 242.212076 117.335221 
L 243.589274 155.74292 
L 244.966473 159.555104 
L 246.343671 124.476854 
L 247.72087 150.989256 
L 249.098068 127.204199 
L 250.475267 171.39187 
L 251.852465 149.173569 
L 253.229664 152.617783 
L 254.606862 150.105618 
L 255.984061 169.154874 
L 257.361259 156.55036 
L 258.738458 145.600437 
L 260.115656 168.992137 
L 261.492855 153.445372 
L 262.870053 147.514404 
L 264.247252 147.103022 
L 265.62445 133.639269 
L 267.001649 176.628175 
L 268.378847 157.039503 
L 269.756046 155.435366 
L 271.133244 181.737516 
L 272.510443 144.587203 
L 273.887641 164.90584 
L 275.26484 130.96803 
L 276.642038 186.59155 
L 278.019237 163.688121 
L 279.396435 131.581519 
L 280.773634 164.567556 
L 282.150832 158.370895 
L 283.528031 180.021176 
L 284.905229 172.504669 
L 286.282428 171.672106 
L 287.659626 160.861934 
L 289.036825 166.552897 
L 290.414023 136.907545 
L 291.791222 143.650226 
L 293.16842 143.713364 
L 294.545619 164.364645 
L 295.922817 128.244648 
L 297.300016 151.502295 
L 298.677214 160.687398 
L 300.054413 172.75259 
L 301.431611 166.95757 
L 302.80881 155.731076 
L 304.186008 147.239475 
L 305.563207 166.096987 
L 306.940405 171.201975 
L 308.317604 157.92382 
L 309.694802 166.882898 
L 311.072001 169.133622 
L 312.449199 182.330649 
L 313.826398 164.737255 
L 315.203596 174.009494 
L 316.580795 163.601813 
L 317.957993 196.098855 
L 319.335192 157.761783 
L 320.71239 173.62234 
L 322.089589 179.250429 
L 324.843986 195.883135 
L 326.221184 179.901162 
L 327.598383 172.147728 
L 328.975581 165.42275 
L 330.35278 180.45195 
L 331.729978 164.26123 
L 333.107177 174.53842 
L 334.484375 133.353036 
L 334.484375 133.353036 
" clip-path="url(#p6ef35ea463)" style="fill: none; stroke: #ff7f0e; stroke-width: 1.5; stroke-linecap: square"/>
   </g>
   <g id="line2d_37">
    <path d="M 60.421875 72.759282 
L 61.799073 35.909275 
L 63.176272 67.294919 
L 64.55347 70.792023 
L 65.930669 75.422295 
L 67.307867 76.034049 
L 68.685066 69.274033 
L 70.062264 66.981712 
L 71.439463 74.255123 
L 72.816661 70.19302 
L 74.19386 75.333631 
L 75.571058 75.27911 
L 76.948257 76.170893 
L 78.325455 70.634524 
L 79.702654 82.507626 
L 81.079852 73.790322 
L 82.457051 76.906051 
L 83.834249 70.985732 
L 85.211448 79.859708 
L 86.588646 77.356262 
L 87.965845 89.30484 
L 89.343043 85.84969 
L 90.720242 76.250505 
L 92.09744 79.98279 
L 93.474639 87.914688 
L 94.851837 92.531243 
L 96.229036 85.236603 
L 97.606234 90.117748 
L 98.983433 91.124939 
L 100.360631 98.625673 
L 101.73783 75.540758 
L 103.115028 103.031931 
L 104.492227 93.900235 
L 105.869425 99.376799 
L 107.246624 103.012287 
L 108.623822 113.271429 
L 110.001021 100.458018 
L 111.378219 112.64605 
L 112.755418 110.416522 
L 114.132616 95.189294 
L 115.509815 110.115171 
L 116.887013 116.923804 
L 118.264212 112.621351 
L 119.64141 109.491906 
L 121.018609 102.951561 
L 122.395807 124.306603 
L 123.773006 108.877257 
L 125.150204 123.854508 
L 126.527403 111.2763 
L 127.904601 135.736042 
L 129.2818 123.292358 
L 130.658998 125.403538 
L 132.036197 133.76837 
L 133.413395 132.865259 
L 134.790594 130.428385 
L 136.167792 131.733217 
L 137.544991 121.886697 
L 138.922189 131.778571 
L 140.299388 124.258147 
L 141.676586 119.195424 
L 143.053785 157.127914 
L 144.430983 146.917297 
L 145.808182 124.205624 
L 147.18538 146.739556 
L 148.562579 150.573268 
L 149.939777 157.87487 
L 151.316976 138.158843 
L 152.694174 140.455691 
L 154.071372 122.163372 
L 155.448571 112.96994 
L 156.825769 134.413542 
L 158.202968 143.574337 
L 159.580166 125.180902 
L 160.957365 122.92162 
L 162.334563 141.231458 
L 163.711762 126.680075 
L 165.08896 138.785348 
L 166.466159 132.638557 
L 167.843357 123.489307 
L 169.220556 108.10991 
L 170.597754 128.089849 
L 171.974953 128.209346 
L 173.352151 123.271037 
L 174.72935 146.302142 
L 176.106548 141.047479 
L 177.483747 126.4891 
L 178.860945 150.476034 
L 180.238144 140.256352 
L 181.615342 110.156826 
L 182.992541 157.868368 
L 184.369739 132.783051 
L 185.746938 119.979026 
L 187.124136 126.040336 
L 188.501335 134.519047 
L 189.878533 146.389416 
L 191.255732 152.176015 
L 194.010129 132.649378 
L 195.387327 128.547826 
L 196.764526 157.59252 
L 198.141724 151.578391 
L 199.518923 147.768241 
L 200.896121 162.774534 
L 202.27332 113.87289 
L 203.650518 169.417224 
L 205.027717 133.616718 
L 206.404915 145.511142 
L 207.782114 127.260536 
L 209.159312 155.431138 
L 210.536511 150.409863 
L 211.913709 135.414898 
L 213.290908 177.277897 
L 214.668106 129.345454 
L 216.045305 140.156166 
L 217.422503 173.484921 
L 218.799702 165.362117 
L 220.1769 154.237958 
L 221.554099 156.253834 
L 222.931297 176.221698 
L 224.308496 135.732573 
L 225.685694 154.377455 
L 227.062893 137.689263 
L 228.440091 143.823947 
L 229.81729 158.03353 
L 231.194488 152.578896 
L 232.571687 160.392159 
L 233.948885 145.263083 
L 235.326084 159.322875 
L 236.703282 142.18963 
L 238.080481 142.73688 
L 239.457679 166.886241 
L 240.834878 137.367567 
L 242.212076 138.226679 
L 243.589274 161.763103 
L 244.966473 175.677424 
L 246.343671 139.254939 
L 247.72087 162.727479 
L 249.098068 148.273973 
L 250.475267 186.115973 
L 251.852465 167.135667 
L 253.229664 165.980822 
L 254.606862 163.881934 
L 255.984061 180.898037 
L 257.361259 157.584214 
L 258.738458 161.405232 
L 260.115656 198.967053 
L 261.492855 178.598582 
L 262.870053 162.251397 
L 264.247252 161.769422 
L 265.62445 152.134222 
L 267.001649 184.23353 
L 268.378847 161.149672 
L 269.756046 173.433341 
L 271.133244 210.723496 
L 272.510443 182.404171 
L 273.887641 187.750026 
L 275.26484 166.478823 
L 276.642038 198.366167 
L 278.019237 176.781711 
L 279.396435 149.894665 
L 280.773634 183.512284 
L 282.150832 165.523695 
L 283.528031 198.263143 
L 284.905229 189.519015 
L 286.282428 188.170644 
L 287.659626 176.240734 
L 289.036825 175.557754 
L 290.414023 162.246779 
L 291.791222 188.603704 
L 293.16842 157.817993 
L 294.545619 191.178731 
L 295.922817 141.259592 
L 297.300016 171.305756 
L 298.677214 186.70528 
L 300.054413 207.477667 
L 301.431611 194.712459 
L 302.80881 169.203537 
L 304.186008 190.910488 
L 305.563207 203.587239 
L 306.940405 191.133319 
L 308.317604 184.714609 
L 309.694802 209.026812 
L 311.072001 189.151873 
L 312.449199 221.36375 
L 313.826398 201.391727 
L 315.203596 206.051454 
L 316.580795 193.75887 
L 317.957993 220.071681 
L 319.335192 191.506791 
L 320.71239 183.052584 
L 322.089589 191.22729 
L 323.466787 208.367279 
L 324.843986 238.090909 
L 326.221184 210.855124 
L 327.598383 188.026126 
L 328.975581 175.702916 
L 330.35278 223.58171 
L 331.729978 187.887478 
L 333.107177 192.358873 
L 334.484375 151.276695 
L 334.484375 151.276695 
" clip-path="url(#p6ef35ea463)" style="fill: none; stroke: #2ca02c; stroke-width: 1.5; stroke-linecap: square"/>
   </g>
   <g id="line2d_38">
    <path d="M 60.421875 72.759282 
L 61.799073 35.909275 
L 63.176272 67.294919 
L 64.55347 70.792023 
L 65.930669 75.422295 
L 67.307867 76.034049 
L 68.685066 69.274033 
L 70.062264 66.981712 
L 71.439463 74.255123 
L 72.816661 70.19302 
L 74.19386 75.333631 
L 75.571058 75.27911 
L 76.948257 76.170893 
L 78.325455 70.634524 
L 79.702654 82.507626 
L 81.079852 73.790322 
L 82.457051 76.906051 
L 83.834249 70.985732 
L 85.211448 79.859708 
L 86.588646 77.356262 
L 87.965845 89.30484 
L 89.343043 85.84969 
L 90.720242 76.250505 
L 92.09744 79.98279 
L 93.474639 87.914688 
L 94.851837 92.531243 
L 96.229036 85.236603 
L 97.606234 90.117748 
L 98.983433 91.124939 
L 100.360631 98.625673 
L 101.73783 75.540758 
L 103.115028 103.031931 
L 104.492227 93.900235 
L 105.869425 99.376799 
L 107.246624 103.012287 
L 108.623822 113.271429 
L 110.001021 100.458018 
L 111.378219 112.64605 
L 112.755418 110.416522 
L 114.132616 95.189294 
L 115.509815 110.115171 
L 116.887013 116.923804 
L 118.264212 112.621351 
L 119.64141 109.491906 
L 121.018609 102.951561 
L 122.395807 124.306603 
L 123.773006 108.877257 
L 125.150204 123.854508 
L 126.527403 111.2763 
L 127.904601 135.736042 
L 129.2818 123.292358 
L 130.658998 125.403538 
L 132.036197 133.76837 
L 133.413395 132.865259 
L 134.790594 130.428385 
L 136.167792 131.733217 
L 137.544991 121.886697 
L 138.922189 131.778571 
L 140.299388 124.258147 
L 141.676586 119.195424 
L 143.053785 157.127914 
L 144.430983 146.917297 
L 145.808182 124.205624 
L 147.18538 146.739556 
L 148.562579 150.573268 
L 149.939777 157.87487 
L 151.316976 138.158843 
L 152.694174 140.455691 
L 154.071372 122.163372 
L 155.448571 112.96994 
L 156.825769 134.413542 
L 158.202968 143.574337 
L 159.580166 125.180902 
L 160.957365 122.92162 
L 162.334563 141.231458 
L 163.711762 126.680075 
L 165.08896 138.785348 
L 166.466159 132.638557 
L 167.843357 123.489307 
L 169.220556 108.10991 
L 170.597754 128.089849 
L 171.974953 128.209346 
L 173.352151 123.271037 
L 174.72935 146.302142 
L 176.106548 141.047479 
L 177.483747 126.4891 
L 178.860945 150.476034 
L 180.238144 140.256352 
L 181.615342 110.156826 
L 182.992541 157.868368 
L 184.369739 132.783051 
L 185.746938 119.979026 
L 187.124136 126.040336 
L 188.501335 134.519047 
L 189.878533 146.389416 
L 191.255732 152.176015 
L 194.010129 132.649378 
L 195.387327 128.547826 
L 196.764526 157.59252 
L 198.141724 151.578391 
L 199.518923 147.768241 
L 200.896121 162.774534 
L 202.27332 113.87289 
L 203.650518 164.570244 
L 205.027717 134.295194 
L 206.404915 146.379754 
L 207.782114 125.228187 
L 209.159312 145.337582 
L 210.536511 145.664092 
L 211.913709 148.535427 
L 213.290908 176.820977 
L 214.668106 125.238411 
L 216.045305 141.28027 
L 217.422503 174.062292 
L 220.1769 157.970702 
L 221.554099 155.605295 
L 222.931297 171.401324 
L 224.308496 138.827463 
L 225.685694 152.710077 
L 227.062893 131.492695 
L 228.440091 142.355745 
L 229.81729 160.620493 
L 232.571687 143.814928 
L 233.948885 149.04966 
L 235.326084 167.068876 
L 236.703282 146.2575 
L 238.080481 144.863419 
L 239.457679 169.978075 
L 240.834878 136.665817 
L 242.212076 144.726609 
L 243.589274 164.674979 
L 244.966473 171.613253 
L 246.343671 145.733215 
L 247.72087 167.283758 
L 249.098068 155.890861 
L 250.475267 189.336862 
L 251.852465 164.840083 
L 253.229664 170.703767 
L 254.606862 163.905898 
L 255.984061 181.546139 
L 257.361259 162.148488 
L 258.738458 166.258013 
L 260.115656 196.696961 
L 261.492855 187.981243 
L 262.870053 169.486795 
L 264.247252 168.679574 
L 265.62445 152.179657 
L 267.001649 196.928902 
L 268.378847 172.234979 
L 269.756046 160.970529 
L 271.133244 210.472462 
L 272.510443 180.079075 
L 273.887641 190.703832 
L 275.26484 159.074495 
L 276.642038 193.200385 
L 278.019237 181.256713 
L 279.396435 158.192017 
L 280.773634 179.270832 
L 282.150832 178.586278 
L 283.528031 198.204934 
L 284.905229 189.409742 
L 286.282428 185.059591 
L 287.659626 174.488103 
L 289.036825 173.82787 
L 290.414023 163.012632 
L 291.791222 185.19709 
L 293.16842 162.506681 
L 294.545619 197.401653 
L 295.922817 138.987306 
L 297.300016 175.388859 
L 298.677214 190.018027 
L 300.054413 208.276892 
L 301.431611 196.357471 
L 302.80881 173.069243 
L 305.563207 206.859399 
L 306.940405 185.602257 
L 308.317604 190.040784 
L 309.694802 197.950074 
L 311.072001 199.804132 
L 312.449199 228.027716 
L 313.826398 189.105301 
L 315.203596 197.92688 
L 316.580795 189.585334 
L 317.957993 217.582618 
L 319.335192 190.324616 
L 320.71239 173.850019 
L 322.089589 186.189588 
L 323.466787 192.746383 
L 324.843986 233.896155 
L 327.598383 192.008216 
L 328.975581 179.866043 
L 330.35278 214.226241 
L 331.729978 183.718457 
L 333.107177 198.169425 
L 334.484375 162.306907 
L 334.484375 162.306907 
" clip-path="url(#p6ef35ea463)" style="fill: none; stroke: #d62728; stroke-width: 1.5; stroke-linecap: square"/>
   </g>
   <g id="patch_3">
    <path d="M 46.71875 248.2 
L 46.71875 25.8 
" style="fill: none; stroke: #000000; stroke-width: 0.8; stroke-linejoin: miter; stroke-linecap: square"/>
   </g>
   <g id="patch_4">
    <path d="M 348.1875 248.2 
L 348.1875 25.8 
" style="fill: none; stroke: #000000; stroke-width: 0.8; stroke-linejoin: miter; stroke-linecap: square"/>
   </g>
   <g id="patch_5">
    <path d="M 46.71875 248.2 
L 348.1875 248.2 
" style="fill: none; stroke: #000000; stroke-width: 0.8; stroke-linejoin: miter; stroke-linecap: square"/>
   </g>
   <g id="patch_6">
    <path d="M 46.71875 25.8 
L 348.1875 25.8 
" style="fill: none; stroke: #000000; stroke-width: 0.8; stroke-linejoin: miter; stroke-linecap: square"/>
   </g>
   <g id="text_20">
    <!-- Loss (pt, cifar10) -->
    <g transform="translate(146.872187 19.8) scale(0.12 -0.12)">
     <defs>
      <path id="DejaVuSans-4c" d="M 628 4666 
L 1259 4666 
L 1259 531 
L 3531 531 
L 3531 0 
L 628 0 
L 628 4666 
z
" transform="scale(0.015625)"/>
      <path id="DejaVuSans-20" transform="scale(0.015625)"/>
      <path id="DejaVuSans-28" d="M 1984 4856 
Q 1566 4138 1362 3434 
Q 1159 2731 1159 2009 
Q 1159 1288 1364 580 
Q 1569 -128 1984 -844 
L 1484 -844 
Q 1016 -109 783 600 
Q 550 1309 550 2009 
Q 550 2706 781 3412 
Q 1013 4119 1484 4856 
L 1984 4856 
z
" transform="scale(0.015625)"/>
      <path id="DejaVuSans-2c" d="M 750 794 
L 1409 794 
L 1409 256 
L 897 -744 
L 494 -744 
L 750 256 
L 750 794 
z
" transform="scale(0.015625)"/>
      <path id="DejaVuSans-63" d="M 3122 3366 
L 3122 2828 
Q 2878 2963 2633 3030 
Q 2388 3097 2138 3097 
Q 1578 3097 1268 2742 
Q 959 2388 959 1747 
Q 959 1106 1268 751 
Q 1578 397 2138 397 
Q 2388 397 2633 464 
Q 2878 531 3122 666 
L 3122 134 
Q 2881 22 2623 -34 
Q 2366 -91 2075 -91 
Q 1284 -91 818 406 
Q 353 903 353 1747 
Q 353 2603 823 3093 
Q 1294 3584 2113 3584 
Q 2378 3584 2631 3529 
Q 2884 3475 3122 3366 
z
" transform="scale(0.015625)"/>
      <path id="DejaVuSans-69" d="M 603 3500 
L 1178 3500 
L 1178 0 
L 603 0 
L 603 3500 
z
M 603 4863 
L 1178 4863 
L 1178 4134 
L 603 4134 
L 603 4863 
z
" transform="scale(0.015625)"/>
      <path id="DejaVuSans-66" d="M 2375 4863 
L 2375 4384 
L 1825 4384 
Q 1516 4384 1395 4259 
Q 1275 4134 1275 3809 
L 1275 3500 
L 2222 3500 
L 2222 3053 
L 1275 3053 
L 1275 0 
L 697 0 
L 697 3053 
L 147 3053 
L 147 3500 
L 697 3500 
L 697 3744 
Q 697 4328 969 4595 
Q 1241 4863 1831 4863 
L 2375 4863 
z
" transform="scale(0.015625)"/>
      <path id="DejaVuSans-61" d="M 2194 1759 
Q 1497 1759 1228 1600 
Q 959 1441 959 1056 
Q 959 750 1161 570 
Q 1363 391 1709 391 
Q 2188 391 2477 730 
Q 2766 1069 2766 1631 
L 2766 1759 
L 2194 1759 
z
M 3341 1997 
L 3341 0 
L 2766 0 
L 2766 531 
Q 2569 213 2275 61 
Q 1981 -91 1556 -91 
Q 1019 -91 701 211 
Q 384 513 384 1019 
Q 384 1609 779 1909 
Q 1175 2209 1959 2209 
L 2766 2209 
L 2766 2266 
Q 2766 2663 2505 2880 
Q 2244 3097 1772 3097 
Q 1472 3097 1187 3025 
Q 903 2953 641 2809 
L 641 3341 
Q 956 3463 1253 3523 
Q 1550 3584 1831 3584 
Q 2591 3584 2966 3190 
Q 3341 2797 3341 1997 
z
" transform="scale(0.015625)"/>
      <path id="DejaVuSans-72" d="M 2631 2963 
Q 2534 3019 2420 3045 
Q 2306 3072 2169 3072 
Q 1681 3072 1420 2755 
Q 1159 2438 1159 1844 
L 1159 0 
L 581 0 
L 581 3500 
L 1159 3500 
L 1159 2956 
Q 1341 3275 1631 3429 
Q 1922 3584 2338 3584 
Q 2397 3584 2469 3576 
Q 2541 3569 2628 3553 
L 2631 2963 
z
" transform="scale(0.015625)"/>
      <path id="DejaVuSans-29" d="M 513 4856 
L 1013 4856 
Q 1481 4119 1714 3412 
Q 1947 2706 1947 2009 
Q 1947 1309 1714 600 
Q 1481 -109 1013 -844 
L 513 -844 
Q 928 -128 1133 580 
Q 1338 1288 1338 2009 
Q 1338 2731 1133 3434 
Q 928 4138 513 4856 
z
" transform="scale(0.015625)"/>
     </defs>
     <use xlink:href="#DejaVuSans-4c"/>
     <use xlink:href="#DejaVuSans-6f" transform="translate(53.962891 0)"/>
     <use xlink:href="#DejaVuSans-73" transform="translate(115.144531 0)"/>
     <use xlink:href="#DejaVuSans-73" transform="translate(167.244141 0)"/>
     <use xlink:href="#DejaVuSans-20" transform="translate(219.34375 0)"/>
     <use xlink:href="#DejaVuSans-28" transform="translate(251.130859 0)"/>
     <use xlink:href="#DejaVuSans-70" transform="translate(290.144531 0)"/>
     <use xlink:href="#DejaVuSans-74" transform="translate(353.621094 0)"/>
     <use xlink:href="#DejaVuSans-2c" transform="translate(392.830078 0)"/>
     <use xlink:href="#DejaVuSans-20" transform="translate(424.617188 0)"/>
     <use xlink:href="#DejaVuSans-63" transform="translate(456.404297 0)"/>
     <use xlink:href="#DejaVuSans-69" transform="translate(511.384766 0)"/>
     <use xlink:href="#DejaVuSans-66" transform="translate(539.167969 0)"/>
     <use xlink:href="#DejaVuSans-61" transform="translate(574.373047 0)"/>
     <use xlink:href="#DejaVuSans-72" transform="translate(635.652344 0)"/>
     <use xlink:href="#DejaVuSans-31" transform="translate(676.765625 0)"/>
     <use xlink:href="#DejaVuSans-30" transform="translate(740.388672 0)"/>
     <use xlink:href="#DejaVuSans-29" transform="translate(804.011719 0)"/>
    </g>
   </g>
   <g id="legend_1">
    <g id="patch_7">
     <path d="M 269.279687 92.5125 
L 341.1875 92.5125 
Q 343.1875 92.5125 343.1875 90.5125 
L 343.1875 32.8 
Q 343.1875 30.8 341.1875 30.8 
L 269.279687 30.8 
Q 267.279687 30.8 267.279687 32.8 
L 267.279687 90.5125 
Q 267.279687 92.5125 269.279687 92.5125 
z
" style="fill: #ffffff; opacity: 0.8; stroke: #cccccc; stroke-linejoin: miter"/>
    </g>
    <g id="line2d_39">
     <path d="M 271.279687 38.898438 
L 281.279687 38.898438 
L 291.279687 38.898438 
" style="fill: none; stroke: #1f77b4; stroke-width: 1.5; stroke-linecap: square"/>
    </g>
    <g id="text_21">
     <!-- agc -->
     <g transform="translate(299.279687 42.398438) scale(0.1 -0.1)">
      <defs>
       <path id="DejaVuSans-67" d="M 2906 1791 
Q 2906 2416 2648 2759 
Q 2391 3103 1925 3103 
Q 1463 3103 1205 2759 
Q 947 2416 947 1791 
Q 947 1169 1205 825 
Q 1463 481 1925 481 
Q 2391 481 2648 825 
Q 2906 1169 2906 1791 
z
M 3481 434 
Q 3481 -459 3084 -895 
Q 2688 -1331 1869 -1331 
Q 1566 -1331 1297 -1286 
Q 1028 -1241 775 -1147 
L 775 -588 
Q 1028 -725 1275 -790 
Q 1522 -856 1778 -856 
Q 2344 -856 2625 -561 
Q 2906 -266 2906 331 
L 2906 616 
Q 2728 306 2450 153 
Q 2172 0 1784 0 
Q 1141 0 747 490 
Q 353 981 353 1791 
Q 353 2603 747 3093 
Q 1141 3584 1784 3584 
Q 2172 3584 2450 3431 
Q 2728 3278 2906 2969 
L 2906 3500 
L 3481 3500 
L 3481 434 
z
" transform="scale(0.015625)"/>
      </defs>
      <use xlink:href="#DejaVuSans-61"/>
      <use xlink:href="#DejaVuSans-67" transform="translate(61.279297 0)"/>
      <use xlink:href="#DejaVuSans-63" transform="translate(124.755859 0)"/>
     </g>
    </g>
    <g id="line2d_40">
     <path d="M 271.279687 53.576562 
L 281.279687 53.576562 
L 291.279687 53.576562 
" style="fill: none; stroke: #ff7f0e; stroke-width: 1.5; stroke-linecap: square"/>
    </g>
    <g id="text_22">
     <!-- autoclip -->
     <g transform="translate(299.279687 57.076562) scale(0.1 -0.1)">
      <defs>
       <path id="DejaVuSans-75" d="M 544 1381 
L 544 3500 
L 1119 3500 
L 1119 1403 
Q 1119 906 1312 657 
Q 1506 409 1894 409 
Q 2359 409 2629 706 
Q 2900 1003 2900 1516 
L 2900 3500 
L 3475 3500 
L 3475 0 
L 2900 0 
L 2900 538 
Q 2691 219 2414 64 
Q 2138 -91 1772 -91 
Q 1169 -91 856 284 
Q 544 659 544 1381 
z
M 1991 3584 
L 1991 3584 
z
" transform="scale(0.015625)"/>
      </defs>
      <use xlink:href="#DejaVuSans-61"/>
      <use xlink:href="#DejaVuSans-75" transform="translate(61.279297 0)"/>
      <use xlink:href="#DejaVuSans-74" transform="translate(124.658203 0)"/>
      <use xlink:href="#DejaVuSans-6f" transform="translate(163.867188 0)"/>
      <use xlink:href="#DejaVuSans-63" transform="translate(225.048828 0)"/>
      <use xlink:href="#DejaVuSans-6c" transform="translate(280.029297 0)"/>
      <use xlink:href="#DejaVuSans-69" transform="translate(307.8125 0)"/>
      <use xlink:href="#DejaVuSans-70" transform="translate(335.595703 0)"/>
     </g>
    </g>
    <g id="line2d_41">
     <path d="M 271.279687 68.254687 
L 281.279687 68.254687 
L 291.279687 68.254687 
" style="fill: none; stroke: #2ca02c; stroke-width: 1.5; stroke-linecap: square"/>
    </g>
    <g id="text_23">
     <!-- none -->
     <g transform="translate(299.279687 71.754687) scale(0.1 -0.1)">
      <defs>
       <path id="DejaVuSans-6e" d="M 3513 2113 
L 3513 0 
L 2938 0 
L 2938 2094 
Q 2938 2591 2744 2837 
Q 2550 3084 2163 3084 
Q 1697 3084 1428 2787 
Q 1159 2491 1159 1978 
L 1159 0 
L 581 0 
L 581 3500 
L 1159 3500 
L 1159 2956 
Q 1366 3272 1645 3428 
Q 1925 3584 2291 3584 
Q 2894 3584 3203 3211 
Q 3513 2838 3513 2113 
z
" transform="scale(0.015625)"/>
      </defs>
      <use xlink:href="#DejaVuSans-6e"/>
      <use xlink:href="#DejaVuSans-6f" transform="translate(63.378906 0)"/>
      <use xlink:href="#DejaVuSans-6e" transform="translate(124.560547 0)"/>
      <use xlink:href="#DejaVuSans-65" transform="translate(187.939453 0)"/>
     </g>
    </g>
    <g id="line2d_42">
     <path d="M 271.279687 82.932813 
L 281.279687 82.932813 
L 291.279687 82.932813 
" style="fill: none; stroke: #d62728; stroke-width: 1.5; stroke-linecap: square"/>
    </g>
    <g id="text_24">
     <!-- zscore -->
     <g transform="translate(299.279687 86.432813) scale(0.1 -0.1)">
      <defs>
       <path id="DejaVuSans-7a" d="M 353 3500 
L 3084 3500 
L 3084 2975 
L 922 459 
L 3084 459 
L 3084 0 
L 275 0 
L 275 525 
L 2438 3041 
L 353 3041 
L 353 3500 
z
" transform="scale(0.015625)"/>
      </defs>
      <use xlink:href="#DejaVuSans-7a"/>
      <use xlink:href="#DejaVuSans-73" transform="translate(52.490234 0)"/>
      <use xlink:href="#DejaVuSans-63" transform="translate(104.589844 0)"/>
      <use xlink:href="#DejaVuSans-6f" transform="translate(159.570312 0)"/>
      <use xlink:href="#DejaVuSans-72" transform="translate(220.751953 0)"/>
      <use xlink:href="#DejaVuSans-65" transform="translate(259.615234 0)"/>
     </g>
    </g>
   </g>
  </g>
  <g id="axes_2">
   <g id="patch_8">
    <path d="M 407.73125 248.2 
L 709.2 248.2 
L 709.2 25.8 
L 407.73125 25.8 
z
" style="fill: #ffffff"/>
   </g>
   <g id="matplotlib.axis_3">
    <g id="xtick_10">
     <g id="line2d_43">
      <path d="M 420.057177 248.2 
L 420.057177 25.8 
" clip-path="url(#p3c4349d119)" style="fill: none; stroke: #b0b0b0; stroke-opacity: 0.3; stroke-width: 0.8; stroke-linecap: square"/>
     </g>
     <g id="line2d_44">
      <g>
       <use xlink:href="#md52d13aaaa" x="420.057177" y="248.2" style="stroke: #000000; stroke-width: 0.8"/>
      </g>
     </g>
     <g id="text_25">
      <!-- 0 -->
      <g transform="translate(416.875927 262.798438) scale(0.1 -0.1)">
       <use xlink:href="#DejaVuSans-30"/>
      </g>
     </g>
    </g>
    <g id="xtick_11">
     <g id="line2d_45">
      <path d="M 454.487139 248.2 
L 454.487139 25.8 
" clip-path="url(#p3c4349d119)" style="fill: none; stroke: #b0b0b0; stroke-opacity: 0.3; stroke-width: 0.8; stroke-linecap: square"/>
     </g>
     <g id="line2d_46">
      <g>
       <use xlink:href="#md52d13aaaa" x="454.487139" y="248.2" style="stroke: #000000; stroke-width: 0.8"/>
      </g>
     </g>
     <g id="text_26">
      <!-- 25 -->
      <g transform="translate(448.124639 262.798438) scale(0.1 -0.1)">
       <use xlink:href="#DejaVuSans-32"/>
       <use xlink:href="#DejaVuSans-35" transform="translate(63.623047 0)"/>
      </g>
     </g>
    </g>
    <g id="xtick_12">
     <g id="line2d_47">
      <path d="M 488.917101 248.2 
L 488.917101 25.8 
" clip-path="url(#p3c4349d119)" style="fill: none; stroke: #b0b0b0; stroke-opacity: 0.3; stroke-width: 0.8; stroke-linecap: square"/>
     </g>
     <g id="line2d_48">
      <g>
       <use xlink:href="#md52d13aaaa" x="488.917101" y="248.2" style="stroke: #000000; stroke-width: 0.8"/>
      </g>
     </g>
     <g id="text_27">
      <!-- 50 -->
      <g transform="translate(482.554601 262.798438) scale(0.1 -0.1)">
       <use xlink:href="#DejaVuSans-35"/>
       <use xlink:href="#DejaVuSans-30" transform="translate(63.623047 0)"/>
      </g>
     </g>
    </g>
    <g id="xtick_13">
     <g id="line2d_49">
      <path d="M 523.347063 248.2 
L 523.347063 25.8 
" clip-path="url(#p3c4349d119)" style="fill: none; stroke: #b0b0b0; stroke-opacity: 0.3; stroke-width: 0.8; stroke-linecap: square"/>
     </g>
     <g id="line2d_50">
      <g>
       <use xlink:href="#md52d13aaaa" x="523.347063" y="248.2" style="stroke: #000000; stroke-width: 0.8"/>
      </g>
     </g>
     <g id="text_28">
      <!-- 75 -->
      <g transform="translate(516.984563 262.798438) scale(0.1 -0.1)">
       <use xlink:href="#DejaVuSans-37"/>
       <use xlink:href="#DejaVuSans-35" transform="translate(63.623047 0)"/>
      </g>
     </g>
    </g>
    <g id="xtick_14">
     <g id="line2d_51">
      <path d="M 557.777026 248.2 
L 557.777026 25.8 
" clip-path="url(#p3c4349d119)" style="fill: none; stroke: #b0b0b0; stroke-opacity: 0.3; stroke-width: 0.8; stroke-linecap: square"/>
     </g>
     <g id="line2d_52">
      <g>
       <use xlink:href="#md52d13aaaa" x="557.777026" y="248.2" style="stroke: #000000; stroke-width: 0.8"/>
      </g>
     </g>
     <g id="text_29">
      <!-- 100 -->
      <g transform="translate(548.233276 262.798438) scale(0.1 -0.1)">
       <use xlink:href="#DejaVuSans-31"/>
       <use xlink:href="#DejaVuSans-30" transform="translate(63.623047 0)"/>
       <use xlink:href="#DejaVuSans-30" transform="translate(127.246094 0)"/>
      </g>
     </g>
    </g>
    <g id="xtick_15">
     <g id="line2d_53">
      <path d="M 592.206988 248.2 
L 592.206988 25.8 
" clip-path="url(#p3c4349d119)" style="fill: none; stroke: #b0b0b0; stroke-opacity: 0.3; stroke-width: 0.8; stroke-linecap: square"/>
     </g>
     <g id="line2d_54">
      <g>
       <use xlink:href="#md52d13aaaa" x="592.206988" y="248.2" style="stroke: #000000; stroke-width: 0.8"/>
      </g>
     </g>
     <g id="text_30">
      <!-- 125 -->
      <g transform="translate(582.663238 262.798438) scale(0.1 -0.1)">
       <use xlink:href="#DejaVuSans-31"/>
       <use xlink:href="#DejaVuSans-32" transform="translate(63.623047 0)"/>
       <use xlink:href="#DejaVuSans-35" transform="translate(127.246094 0)"/>
      </g>
     </g>
    </g>
    <g id="xtick_16">
     <g id="line2d_55">
      <path d="M 626.63695 248.2 
L 626.63695 25.8 
" clip-path="url(#p3c4349d119)" style="fill: none; stroke: #b0b0b0; stroke-opacity: 0.3; stroke-width: 0.8; stroke-linecap: square"/>
     </g>
     <g id="line2d_56">
      <g>
       <use xlink:href="#md52d13aaaa" x="626.63695" y="248.2" style="stroke: #000000; stroke-width: 0.8"/>
      </g>
     </g>
     <g id="text_31">
      <!-- 150 -->
      <g transform="translate(617.0932 262.798438) scale(0.1 -0.1)">
       <use xlink:href="#DejaVuSans-31"/>
       <use xlink:href="#DejaVuSans-35" transform="translate(63.623047 0)"/>
       <use xlink:href="#DejaVuSans-30" transform="translate(127.246094 0)"/>
      </g>
     </g>
    </g>
    <g id="xtick_17">
     <g id="line2d_57">
      <path d="M 661.066913 248.2 
L 661.066913 25.8 
" clip-path="url(#p3c4349d119)" style="fill: none; stroke: #b0b0b0; stroke-opacity: 0.3; stroke-width: 0.8; stroke-linecap: square"/>
     </g>
     <g id="line2d_58">
      <g>
       <use xlink:href="#md52d13aaaa" x="661.066913" y="248.2" style="stroke: #000000; stroke-width: 0.8"/>
      </g>
     </g>
     <g id="text_32">
      <!-- 175 -->
      <g transform="translate(651.523163 262.798438) scale(0.1 -0.1)">
       <use xlink:href="#DejaVuSans-31"/>
       <use xlink:href="#DejaVuSans-37" transform="translate(63.623047 0)"/>
       <use xlink:href="#DejaVuSans-35" transform="translate(127.246094 0)"/>
      </g>
     </g>
    </g>
    <g id="xtick_18">
     <g id="line2d_59">
      <path d="M 695.496875 248.2 
L 695.496875 25.8 
" clip-path="url(#p3c4349d119)" style="fill: none; stroke: #b0b0b0; stroke-opacity: 0.3; stroke-width: 0.8; stroke-linecap: square"/>
     </g>
     <g id="line2d_60">
      <g>
       <use xlink:href="#md52d13aaaa" x="695.496875" y="248.2" style="stroke: #000000; stroke-width: 0.8"/>
      </g>
     </g>
     <g id="text_33">
      <!-- 200 -->
      <g transform="translate(685.953125 262.798438) scale(0.1 -0.1)">
       <use xlink:href="#DejaVuSans-32"/>
       <use xlink:href="#DejaVuSans-30" transform="translate(63.623047 0)"/>
       <use xlink:href="#DejaVuSans-30" transform="translate(127.246094 0)"/>
      </g>
     </g>
    </g>
    <g id="text_34">
     <!-- step -->
     <g transform="translate(547.65 276.476562) scale(0.1 -0.1)">
      <use xlink:href="#DejaVuSans-73"/>
      <use xlink:href="#DejaVuSans-74" transform="translate(52.099609 0)"/>
      <use xlink:href="#DejaVuSans-65" transform="translate(91.308594 0)"/>
      <use xlink:href="#DejaVuSans-70" transform="translate(152.832031 0)"/>
     </g>
    </g>
   </g>
   <g id="matplotlib.axis_4">
    <g id="ytick_9">
     <g id="line2d_61">
      <path d="M 407.73125 228.775255 
L 709.2 228.775255 
" clip-path="url(#p3c4349d119)" style="fill: none; stroke: #b0b0b0; stroke-opacity: 0.3; stroke-width: 0.8; stroke-linecap: square"/>
     </g>
     <g id="line2d_62">
      <g>
       <use xlink:href="#m6e22129521" x="407.73125" y="228.775255" style="stroke: #000000; stroke-width: 0.8"/>
      </g>
     </g>
     <g id="text_35">
      <!-- 0.100 -->
      <g transform="translate(372.103125 232.574474) scale(0.1 -0.1)">
       <use xlink:href="#DejaVuSans-30"/>
       <use xlink:href="#DejaVuSans-2e" transform="translate(63.623047 0)"/>
       <use xlink:href="#DejaVuSans-31" transform="translate(95.410156 0)"/>
       <use xlink:href="#DejaVuSans-30" transform="translate(159.033203 0)"/>
       <use xlink:href="#DejaVuSans-30" transform="translate(222.65625 0)"/>
      </g>
     </g>
    </g>
    <g id="ytick_10">
     <g id="line2d_63">
      <path d="M 407.73125 197.937227 
L 709.2 197.937227 
" clip-path="url(#p3c4349d119)" style="fill: none; stroke: #b0b0b0; stroke-opacity: 0.3; stroke-width: 0.8; stroke-linecap: square"/>
     </g>
     <g id="line2d_64">
      <g>
       <use xlink:href="#m6e22129521" x="407.73125" y="197.937227" style="stroke: #000000; stroke-width: 0.8"/>
      </g>
     </g>
     <g id="text_36">
      <!-- 0.125 -->
      <g transform="translate(372.103125 201.736446) scale(0.1 -0.1)">
       <use xlink:href="#DejaVuSans-30"/>
       <use xlink:href="#DejaVuSans-2e" transform="translate(63.623047 0)"/>
       <use xlink:href="#DejaVuSans-31" transform="translate(95.410156 0)"/>
       <use xlink:href="#DejaVuSans-32" transform="translate(159.033203 0)"/>
       <use xlink:href="#DejaVuSans-35" transform="translate(222.65625 0)"/>
      </g>
     </g>
    </g>
    <g id="ytick_11">
     <g id="line2d_65">
      <path d="M 407.73125 167.0992 
L 709.2 167.0992 
" clip-path="url(#p3c4349d119)" style="fill: none; stroke: #b0b0b0; stroke-opacity: 0.3; stroke-width: 0.8; stroke-linecap: square"/>
     </g>
     <g id="line2d_66">
      <g>
       <use xlink:href="#m6e22129521" x="407.73125" y="167.0992" style="stroke: #000000; stroke-width: 0.8"/>
      </g>
     </g>
     <g id="text_37">
      <!-- 0.150 -->
      <g transform="translate(372.103125 170.898419) scale(0.1 -0.1)">
       <use xlink:href="#DejaVuSans-30"/>
       <use xlink:href="#DejaVuSans-2e" transform="translate(63.623047 0)"/>
       <use xlink:href="#DejaVuSans-31" transform="translate(95.410156 0)"/>
       <use xlink:href="#DejaVuSans-35" transform="translate(159.033203 0)"/>
       <use xlink:href="#DejaVuSans-30" transform="translate(222.65625 0)"/>
      </g>
     </g>
    </g>
    <g id="ytick_12">
     <g id="line2d_67">
      <path d="M 407.73125 136.261172 
L 709.2 136.261172 
" clip-path="url(#p3c4349d119)" style="fill: none; stroke: #b0b0b0; stroke-opacity: 0.3; stroke-width: 0.8; stroke-linecap: square"/>
     </g>
     <g id="line2d_68">
      <g>
       <use xlink:href="#m6e22129521" x="407.73125" y="136.261172" style="stroke: #000000; stroke-width: 0.8"/>
      </g>
     </g>
     <g id="text_38">
      <!-- 0.175 -->
      <g transform="translate(372.103125 140.060391) scale(0.1 -0.1)">
       <use xlink:href="#DejaVuSans-30"/>
       <use xlink:href="#DejaVuSans-2e" transform="translate(63.623047 0)"/>
       <use xlink:href="#DejaVuSans-31" transform="translate(95.410156 0)"/>
       <use xlink:href="#DejaVuSans-37" transform="translate(159.033203 0)"/>
       <use xlink:href="#DejaVuSans-35" transform="translate(222.65625 0)"/>
      </g>
     </g>
    </g>
    <g id="ytick_13">
     <g id="line2d_69">
      <path d="M 407.73125 105.423145 
L 709.2 105.423145 
" clip-path="url(#p3c4349d119)" style="fill: none; stroke: #b0b0b0; stroke-opacity: 0.3; stroke-width: 0.8; stroke-linecap: square"/>
     </g>
     <g id="line2d_70">
      <g>
       <use xlink:href="#m6e22129521" x="407.73125" y="105.423145" style="stroke: #000000; stroke-width: 0.8"/>
      </g>
     </g>
     <g id="text_39">
      <!-- 0.200 -->
      <g transform="translate(372.103125 109.222363) scale(0.1 -0.1)">
       <use xlink:href="#DejaVuSans-30"/>
       <use xlink:href="#DejaVuSans-2e" transform="translate(63.623047 0)"/>
       <use xlink:href="#DejaVuSans-32" transform="translate(95.410156 0)"/>
       <use xlink:href="#DejaVuSans-30" transform="translate(159.033203 0)"/>
       <use xlink:href="#DejaVuSans-30" transform="translate(222.65625 0)"/>
      </g>
     </g>
    </g>
    <g id="ytick_14">
     <g id="line2d_71">
      <path d="M 407.73125 74.585117 
L 709.2 74.585117 
" clip-path="url(#p3c4349d119)" style="fill: none; stroke: #b0b0b0; stroke-opacity: 0.3; stroke-width: 0.8; stroke-linecap: square"/>
     </g>
     <g id="line2d_72">
      <g>
       <use xlink:href="#m6e22129521" x="407.73125" y="74.585117" style="stroke: #000000; stroke-width: 0.8"/>
      </g>
     </g>
     <g id="text_40">
      <!-- 0.225 -->
      <g transform="translate(372.103125 78.384336) scale(0.1 -0.1)">
       <use xlink:href="#DejaVuSans-30"/>
       <use xlink:href="#DejaVuSans-2e" transform="translate(63.623047 0)"/>
       <use xlink:href="#DejaVuSans-32" transform="translate(95.410156 0)"/>
       <use xlink:href="#DejaVuSans-32" transform="translate(159.033203 0)"/>
       <use xlink:href="#DejaVuSans-35" transform="translate(222.65625 0)"/>
      </g>
     </g>
    </g>
    <g id="ytick_15">
     <g id="line2d_73">
      <path d="M 407.73125 43.74709 
L 709.2 43.74709 
" clip-path="url(#p3c4349d119)" style="fill: none; stroke: #b0b0b0; stroke-opacity: 0.3; stroke-width: 0.8; stroke-linecap: square"/>
     </g>
     <g id="line2d_74">
      <g>
       <use xlink:href="#m6e22129521" x="407.73125" y="43.74709" style="stroke: #000000; stroke-width: 0.8"/>
      </g>
     </g>
     <g id="text_41">
      <!-- 0.250 -->
      <g transform="translate(372.103125 47.546308) scale(0.1 -0.1)">
       <use xlink:href="#DejaVuSans-30"/>
       <use xlink:href="#DejaVuSans-2e" transform="translate(63.623047 0)"/>
       <use xlink:href="#DejaVuSans-32" transform="translate(95.410156 0)"/>
       <use xlink:href="#DejaVuSans-35" transform="translate(159.033203 0)"/>
       <use xlink:href="#DejaVuSans-30" transform="translate(222.65625 0)"/>
      </g>
     </g>
    </g>
    <g id="text_42">
     <!-- accuracy -->
     <g transform="translate(366.023438 159.559375) rotate(-90) scale(0.1 -0.1)">
      <defs>
       <path id="DejaVuSans-79" d="M 2059 -325 
Q 1816 -950 1584 -1140 
Q 1353 -1331 966 -1331 
L 506 -1331 
L 506 -850 
L 844 -850 
Q 1081 -850 1212 -737 
Q 1344 -625 1503 -206 
L 1606 56 
L 191 3500 
L 800 3500 
L 1894 763 
L 2988 3500 
L 3597 3500 
L 2059 -325 
z
" transform="scale(0.015625)"/>
      </defs>
      <use xlink:href="#DejaVuSans-61"/>
      <use xlink:href="#DejaVuSans-63" transform="translate(61.279297 0)"/>
      <use xlink:href="#DejaVuSans-63" transform="translate(116.259766 0)"/>
      <use xlink:href="#DejaVuSans-75" transform="translate(171.240234 0)"/>
      <use xlink:href="#DejaVuSans-72" transform="translate(234.619141 0)"/>
      <use xlink:href="#DejaVuSans-61" transform="translate(275.732422 0)"/>
      <use xlink:href="#DejaVuSans-63" transform="translate(337.011719 0)"/>
      <use xlink:href="#DejaVuSans-79" transform="translate(391.992188 0)"/>
     </g>
    </g>
   </g>
   <g id="line2d_75">
    <path d="M 421.434375 223.635584 
L 422.811573 217.210995 
L 424.188772 232.201702 
L 425.56597 236.484762 
L 426.943169 223.635584 
L 428.320367 223.635584 
L 429.697566 220.882188 
L 431.074764 220.423289 
L 432.451963 220.780211 
L 433.829161 213.9987 
L 435.20636 213.706673 
L 436.583558 212.927935 
L 437.960757 214.2458 
L 439.337955 215.375398 
L 440.715154 213.356241 
L 442.092352 212.79409 
L 443.469551 207.763069 
L 444.846749 206.503346 
L 446.223948 199.627909 
L 447.601146 196.33108 
L 448.978345 190.59484 
L 450.355543 188.884397 
L 451.732742 187.602019 
L 453.10994 186.158814 
L 455.864337 176.439564 
L 457.241536 174.618349 
L 458.618734 172.468321 
L 459.995933 169.137345 
L 461.373131 167.313353 
L 462.75033 165.192548 
L 464.127528 162.200451 
L 465.504727 162.69933 
L 466.881925 159.389693 
L 468.259124 157.554096 
L 469.636322 155.463555 
L 471.013521 155.222392 
L 473.767918 151.811972 
L 475.145116 151.840801 
L 476.522315 149.517763 
L 477.899513 147.917212 
L 479.276712 145.345242 
L 480.65391 143.912274 
L 482.031109 142.114687 
L 483.408307 139.836596 
L 484.785506 139.022379 
L 486.162704 138.643624 
L 487.539903 138.149215 
L 488.917101 135.875697 
L 490.2943 134.069254 
L 491.671498 133.320687 
L 493.048697 132.964025 
L 494.425895 131.668781 
L 495.803094 129.018908 
L 497.180292 127.610922 
L 498.557491 125.125218 
L 499.934689 123.168303 
L 501.311888 120.733267 
L 504.066285 116.945277 
L 505.443483 113.58859 
L 506.820682 111.970107 
L 508.19788 111.606812 
L 509.575079 110.463976 
L 510.952277 108.187665 
L 512.329476 106.650529 
L 513.706674 105.347561 
L 515.083872 104.920351 
L 516.461071 104.046447 
L 519.215468 100.319166 
L 520.592666 99.280181 
L 521.969865 98.790191 
L 523.347063 96.771365 
L 524.724262 95.904609 
L 527.478659 94.979069 
L 528.855857 94.005267 
L 530.233056 93.778577 
L 531.610254 92.922957 
L 532.987453 91.853159 
L 534.364651 91.583187 
L 538.496247 89.018031 
L 542.627842 87.925163 
L 544.005041 87.362911 
L 545.382239 86.460017 
L 546.759438 85.925914 
L 548.136636 84.574317 
L 549.513835 83.456518 
L 550.891033 82.497506 
L 552.268232 82.160778 
L 553.64543 81.632295 
L 555.022629 81.573497 
L 556.399827 81.386096 
L 557.777026 80.559985 
L 559.154224 80.704379 
L 560.531423 80.090108 
L 561.908621 78.926393 
L 563.28582 79.082329 
L 564.663018 78.317497 
L 566.040217 78.11258 
L 568.794614 76.16747 
L 570.171812 76.046859 
L 571.549011 75.461197 
L 574.303408 73.575539 
L 577.057805 72.263248 
L 578.435003 71.400756 
L 579.812202 70.996209 
L 581.1894 70.159289 
L 582.566599 69.663229 
L 583.943797 68.905564 
L 585.320996 68.802987 
L 586.698194 68.542818 
L 588.075393 68.023611 
L 589.452591 67.930705 
L 590.82979 67.372998 
L 592.206988 67.235387 
L 593.584187 66.488095 
L 594.961385 66.15727 
L 596.338584 65.48027 
L 597.715782 65.411402 
L 599.092981 64.651714 
L 600.470179 64.050753 
L 601.847378 63.60491 
L 603.224576 63.697129 
L 604.601774 63.404414 
L 605.978973 62.973267 
L 607.356171 62.973617 
L 611.487767 62.373776 
L 612.864965 62.011279 
L 614.242164 61.334972 
L 615.619362 60.939652 
L 616.996561 60.325225 
L 618.373759 59.853177 
L 621.128156 58.444437 
L 622.505355 58.431865 
L 623.882553 57.941959 
L 625.259752 57.674219 
L 626.63695 57.153065 
L 629.391347 56.554001 
L 630.768546 56.302332 
L 633.522943 54.731064 
L 634.900141 54.248822 
L 636.27734 53.977327 
L 639.031737 52.636458 
L 640.408935 52.5809 
L 641.786134 52.246701 
L 643.163332 52.075261 
L 645.917729 51.503606 
L 647.294928 50.833606 
L 648.672126 50.636107 
L 651.426523 49.865746 
L 652.803722 49.487403 
L 658.312516 48.83477 
L 659.689714 47.771688 
L 661.066913 47.381571 
L 662.444111 46.521344 
L 663.82131 46.033808 
L 665.198508 45.876588 
L 667.952905 44.460933 
L 672.084501 43.044949 
L 673.461699 42.594853 
L 674.838898 41.941259 
L 676.216096 41.60556 
L 678.970493 40.603142 
L 683.102089 39.979791 
L 684.479287 39.497492 
L 685.856486 38.68731 
L 687.233684 38.547809 
L 689.988081 37.715843 
L 691.36528 37.15944 
L 692.742478 36.738447 
L 694.119677 36.031126 
L 695.496875 35.909091 
L 695.496875 35.909091 
" clip-path="url(#p3c4349d119)" style="fill: none; stroke: #1f77b4; stroke-width: 1.5; stroke-linecap: square"/>
   </g>
   <g id="line2d_76">
    <path d="M 421.434375 223.635584 
L 422.811573 217.210995 
L 424.188772 232.201702 
L 425.56597 238.090909 
L 426.943169 230.060173 
L 428.320367 228.989408 
L 429.697566 224.553382 
L 431.074764 222.83251 
L 432.451963 226.490957 
L 435.20636 221.883423 
L 436.583558 217.210995 
L 437.960757 218.693592 
L 439.337955 218.587692 
L 440.715154 215.926077 
L 442.092352 216.407921 
L 443.469551 214.187659 
L 444.846749 216.14023 
L 446.223948 213.829632 
L 447.601146 212.392553 
L 448.978345 208.338943 
L 450.355543 206.113977 
L 451.732742 204.920476 
L 453.10994 202.755669 
L 454.487139 199.736112 
L 455.864337 197.195929 
L 458.618734 194.954382 
L 459.995933 194.392627 
L 461.373131 193.011709 
L 462.75033 192.341618 
L 464.127528 190.308028 
L 465.504727 189.760478 
L 466.881925 187.733468 
L 468.259124 185.088049 
L 469.636322 184.374206 
L 471.013521 182.309849 
L 472.390719 179.677869 
L 473.767918 178.828193 
L 475.145116 178.342231 
L 476.522315 176.313001 
L 477.899513 173.921502 
L 479.276712 173.135325 
L 480.65391 171.800831 
L 482.031109 170.097341 
L 483.408307 167.629927 
L 484.785506 165.814282 
L 486.162704 164.34198 
L 487.539903 163.060887 
L 490.2943 159.137748 
L 491.671498 158.030645 
L 493.048697 157.571413 
L 494.425895 156.296372 
L 495.803094 155.418129 
L 497.180292 153.538728 
L 498.557491 151.387135 
L 499.934689 149.642041 
L 501.311888 148.500559 
L 502.689086 147.825433 
L 504.066285 144.539413 
L 505.443483 142.291996 
L 506.820682 141.64559 
L 508.19788 140.21631 
L 509.575079 138.139129 
L 510.952277 136.319578 
L 512.329476 135.417346 
L 513.706674 133.974774 
L 515.083872 134.063777 
L 516.461071 133.140658 
L 517.838269 131.429157 
L 519.215468 130.300581 
L 520.592666 130.435038 
L 521.969865 129.003123 
L 523.347063 127.352409 
L 524.724262 126.675009 
L 526.10146 126.348949 
L 527.478659 124.960485 
L 528.855857 123.851143 
L 530.233056 122.93015 
L 531.610254 122.507793 
L 532.987453 121.625645 
L 534.364651 121.229182 
L 535.74185 120.459742 
L 538.496247 119.497477 
L 539.873445 118.405245 
L 541.250644 117.702871 
L 542.627842 117.449398 
L 544.005041 116.130793 
L 545.382239 115.335368 
L 546.759438 114.906397 
L 548.136636 114.279406 
L 550.891033 112.456379 
L 552.268232 111.205275 
L 553.64543 109.715035 
L 555.022629 109.304121 
L 557.777026 108.057226 
L 559.154224 108.1202 
L 560.531423 107.929994 
L 561.908621 107.431608 
L 563.28582 107.313456 
L 564.663018 106.279757 
L 566.040217 106.356528 
L 567.417415 105.351093 
L 568.794614 105.018634 
L 570.171812 104.51545 
L 571.549011 103.378957 
L 574.303408 102.02729 
L 577.057805 100.666695 
L 579.812202 98.965325 
L 581.1894 97.779531 
L 585.320996 95.732723 
L 586.698194 95.515473 
L 588.075393 95.512426 
L 589.452591 95.352732 
L 590.82979 94.677501 
L 592.206988 94.681232 
L 593.584187 93.869082 
L 594.961385 93.474421 
L 596.338584 92.784773 
L 597.715782 92.504242 
L 599.092981 91.733828 
L 600.470179 91.171346 
L 601.847378 90.958085 
L 603.224576 91.231083 
L 604.601774 90.445222 
L 605.978973 89.861362 
L 607.356171 89.805724 
L 610.110568 89.184763 
L 611.487767 88.441893 
L 612.864965 88.443874 
L 614.242164 87.899053 
L 615.619362 87.54288 
L 616.996561 86.922125 
L 619.750958 86.2823 
L 621.128156 85.682935 
L 622.505355 85.310247 
L 623.882553 85.072825 
L 625.259752 84.493644 
L 626.63695 84.222001 
L 628.014149 84.336878 
L 629.391347 84.069839 
L 630.768546 83.596338 
L 632.145744 82.920396 
L 634.900141 82.088708 
L 636.27734 81.926335 
L 637.654538 80.993441 
L 640.408935 79.845249 
L 644.540531 78.70789 
L 645.917729 78.338017 
L 647.294928 77.777943 
L 650.049325 76.947212 
L 651.426523 76.175968 
L 654.18092 75.794452 
L 658.312516 75.350126 
L 659.689714 74.873116 
L 661.066913 74.731965 
L 662.444111 74.117874 
L 663.82131 74.055179 
L 670.707302 72.410641 
L 673.461699 71.540421 
L 674.838898 70.869274 
L 676.216096 70.550752 
L 678.970493 69.650486 
L 681.72489 69.242564 
L 684.479287 68.34122 
L 685.856486 67.647892 
L 688.610883 67.17213 
L 689.988081 66.593715 
L 692.742478 66.070914 
L 694.119677 65.442184 
L 695.496875 65.462201 
L 695.496875 65.462201 
" clip-path="url(#p3c4349d119)" style="fill: none; stroke: #ff7f0e; stroke-width: 1.5; stroke-linecap: square"/>
   </g>
   <g id="line2d_77">
    <path d="M 421.434375 223.635584 
L 422.811573 217.210995 
L 424.188772 232.201702 
L 425.56597 238.090909 
L 426.943169 230.060173 
L 428.320367 228.989408 
L 429.697566 224.553382 
L 431.074764 222.83251 
L 432.451963 226.490957 
L 433.829161 224.278043 
L 435.20636 221.299369 
L 436.583558 217.210995 
L 439.337955 217.210995 
L 440.715154 214.212853 
L 442.092352 213.9987 
L 443.469551 213.431825 
L 444.846749 214.712543 
L 446.223948 212.815223 
L 447.601146 211.107635 
L 448.978345 204.055884 
L 451.732742 198.216557 
L 453.10994 198.204919 
L 454.487139 196.395326 
L 455.864337 194.972032 
L 457.241536 194.368011 
L 459.995933 192.398789 
L 461.373131 190.22772 
L 462.75033 189.025701 
L 464.127528 186.29266 
L 465.504727 186.061472 
L 466.881925 183.576381 
L 468.259124 181.600415 
L 469.636322 178.66346 
L 471.013521 177.100722 
L 472.390719 173.760484 
L 473.767918 173.062536 
L 475.145116 172.88133 
L 476.522315 170.985293 
L 477.899513 169.332509 
L 479.276712 167.906009 
L 480.65391 167.274416 
L 482.031109 166.099819 
L 483.408307 163.858972 
L 486.162704 160.728149 
L 487.539903 160.307491 
L 491.671498 155.189 
L 495.803094 148.643108 
L 497.180292 147.917212 
L 499.934689 146.762052 
L 501.311888 146.322732 
L 502.689086 144.827291 
L 505.443483 140.73766 
L 506.820682 140.523836 
L 508.19788 139.915157 
L 509.575079 138.732168 
L 510.952277 136.806289 
L 512.329476 135.225567 
L 513.706674 133.974774 
L 515.083872 133.412007 
L 519.215468 129.675968 
L 520.592666 129.466949 
L 521.969865 128.221754 
L 523.347063 126.75278 
L 526.10146 124.34648 
L 527.478659 123.477887 
L 528.855857 122.793932 
L 530.233056 122.689228 
L 531.610254 122.190529 
L 532.987453 122.095737 
L 534.364651 121.538801 
L 535.74185 120.765675 
L 537.119048 119.481657 
L 538.496247 118.750432 
L 539.873445 117.666787 
L 541.250644 116.82679 
L 542.627842 116.79972 
L 545.382239 114.558769 
L 546.759438 114.627067 
L 548.136636 114.210325 
L 549.513835 113.255676 
L 550.891033 112.862143 
L 553.64543 110.377364 
L 555.022629 109.369678 
L 556.399827 109.550456 
L 557.777026 108.571193 
L 560.531423 107.237146 
L 561.908621 106.184115 
L 563.28582 105.892634 
L 564.663018 104.688906 
L 566.040217 104.41703 
L 567.417415 103.489764 
L 568.794614 102.936591 
L 570.171812 102.924038 
L 571.549011 101.860418 
L 574.303408 101.109492 
L 575.680606 100.431296 
L 577.057805 99.934066 
L 578.435003 99.166154 
L 579.812202 98.189944 
L 581.1894 96.791133 
L 583.943797 95.251778 
L 585.320996 94.983187 
L 586.698194 94.134982 
L 588.075393 93.932609 
L 589.452591 93.994689 
L 590.82979 93.123165 
L 592.206988 93.036537 
L 593.584187 92.543373 
L 594.961385 92.3615 
L 596.338584 91.529971 
L 597.715782 91.159561 
L 599.092981 90.59717 
L 600.470179 89.454853 
L 604.601774 88.815102 
L 605.978973 88.052959 
L 607.356171 87.490983 
L 610.110568 86.717348 
L 611.487767 85.899789 
L 612.864965 85.552808 
L 614.242164 84.481718 
L 615.619362 84.01388 
L 616.996561 83.417804 
L 618.373759 82.963852 
L 619.750958 82.737699 
L 621.128156 81.766576 
L 625.259752 79.319479 
L 628.014149 78.507946 
L 629.391347 78.321523 
L 630.768546 77.927583 
L 632.145744 76.620961 
L 633.522943 75.66279 
L 636.27734 74.069513 
L 639.031737 72.637537 
L 640.408935 71.975128 
L 641.786134 71.44066 
L 644.540531 70.036666 
L 645.917729 69.48462 
L 647.294928 68.783519 
L 648.672126 67.936054 
L 650.049325 67.483446 
L 651.426523 66.692051 
L 654.18092 65.590692 
L 659.689714 63.500855 
L 661.066913 63.241128 
L 662.444111 62.801837 
L 663.82131 62.621589 
L 666.575707 61.441628 
L 667.952905 60.700866 
L 669.330104 60.181259 
L 673.461699 57.888169 
L 674.838898 57.290818 
L 676.216096 56.423564 
L 677.593295 55.737365 
L 678.970493 54.853427 
L 680.347692 54.284775 
L 681.72489 54.330755 
L 683.102089 53.871704 
L 685.856486 51.969232 
L 687.233684 51.728151 
L 689.988081 50.728913 
L 691.36528 50.04123 
L 694.119677 48.912588 
L 695.496875 48.854638 
L 695.496875 48.854638 
" clip-path="url(#p3c4349d119)" style="fill: none; stroke: #2ca02c; stroke-width: 1.5; stroke-linecap: square"/>
   </g>
   <g id="line2d_78">
    <path d="M 421.434375 223.635584 
L 422.811573 217.210995 
L 424.188772 232.201702 
L 425.56597 238.090909 
L 426.943169 230.060173 
L 428.320367 228.989408 
L 429.697566 224.553382 
L 431.074764 222.83251 
L 432.451963 226.490957 
L 433.829161 224.278043 
L 435.20636 221.299369 
L 436.583558 217.210995 
L 439.337955 217.210995 
L 440.715154 214.212853 
L 442.092352 213.9987 
L 443.469551 213.431825 
L 444.846749 214.712543 
L 446.223948 212.815223 
L 447.601146 211.107635 
L 448.978345 204.055884 
L 451.732742 198.216557 
L 453.10994 198.204919 
L 454.487139 196.395326 
L 455.864337 194.972032 
L 457.241536 194.368011 
L 459.995933 192.398789 
L 461.373131 190.22772 
L 462.75033 189.025701 
L 464.127528 186.29266 
L 465.504727 186.061472 
L 466.881925 183.576381 
L 468.259124 181.600415 
L 469.636322 178.66346 
L 471.013521 177.100722 
L 472.390719 173.760484 
L 473.767918 173.062536 
L 475.145116 172.88133 
L 476.522315 170.985293 
L 477.899513 169.332509 
L 479.276712 167.906009 
L 480.65391 167.274416 
L 482.031109 166.099819 
L 483.408307 163.858972 
L 486.162704 160.728149 
L 487.539903 160.307491 
L 491.671498 155.189 
L 495.803094 148.643108 
L 497.180292 147.917212 
L 499.934689 146.762052 
L 501.311888 146.322732 
L 502.689086 144.827291 
L 505.443483 140.73766 
L 506.820682 140.523836 
L 508.19788 139.915157 
L 509.575079 138.732168 
L 510.952277 136.806289 
L 512.329476 135.225567 
L 513.706674 133.974774 
L 515.083872 133.412007 
L 519.215468 129.675968 
L 520.592666 129.466949 
L 521.969865 128.221754 
L 523.347063 126.75278 
L 526.10146 124.34648 
L 527.478659 123.477887 
L 528.855857 122.793932 
L 530.233056 122.689228 
L 531.610254 122.190529 
L 532.987453 122.095737 
L 534.364651 121.538801 
L 535.74185 120.765675 
L 537.119048 119.481657 
L 538.496247 118.750432 
L 539.873445 117.666787 
L 541.250644 116.82679 
L 542.627842 116.79972 
L 545.382239 114.558769 
L 546.759438 114.627067 
L 548.136636 114.210325 
L 549.513835 113.255676 
L 550.891033 112.862143 
L 553.64543 110.377364 
L 555.022629 109.369678 
L 556.399827 109.550456 
L 557.777026 108.571193 
L 560.531423 107.237146 
L 561.908621 106.184115 
L 563.28582 105.892634 
L 564.663018 104.872466 
L 566.040217 104.659467 
L 567.417415 103.850021 
L 568.794614 103.293512 
L 570.171812 103.395568 
L 571.549011 102.502877 
L 574.303408 101.511029 
L 577.057805 99.934066 
L 578.435003 99.054422 
L 579.812202 98.02379 
L 581.1894 96.516578 
L 582.566599 95.960487 
L 583.943797 95.19779 
L 585.320996 94.822573 
L 586.698194 93.975695 
L 589.452591 93.890224 
L 590.82979 92.760487 
L 592.206988 92.419776 
L 593.584187 91.727552 
L 594.961385 91.60269 
L 596.338584 90.626513 
L 597.715782 90.163501 
L 599.092981 89.460512 
L 600.470179 88.375914 
L 601.847378 88.086488 
L 603.224576 87.94633 
L 604.601774 86.945259 
L 605.978973 86.196967 
L 607.356171 85.790356 
L 610.110568 84.762039 
L 611.487767 83.958546 
L 612.864965 83.946661 
L 614.242164 83.114784 
L 618.373759 81.446935 
L 619.750958 81.054014 
L 623.882553 78.257551 
L 626.63695 77.026461 
L 628.014149 76.465692 
L 630.768546 75.954017 
L 633.522943 73.921934 
L 639.031737 71.102101 
L 640.408935 70.409134 
L 641.786134 69.964202 
L 644.540531 68.499494 
L 648.672126 66.697579 
L 650.049325 66.213916 
L 651.426523 65.315353 
L 652.803722 64.693531 
L 654.18092 64.305775 
L 655.558119 63.621988 
L 656.935317 63.207618 
L 659.689714 61.876246 
L 661.066913 61.515667 
L 662.444111 60.940166 
L 663.82131 60.806733 
L 670.707302 58.396565 
L 673.461699 56.94543 
L 676.216096 55.560044 
L 677.593295 55.050244 
L 678.970493 54.340827 
L 680.347692 53.80888 
L 681.72489 53.789737 
L 683.102089 53.602611 
L 684.479287 52.848591 
L 685.856486 51.935944 
L 687.233684 51.562569 
L 688.610883 50.896504 
L 689.988081 50.433907 
L 691.36528 49.780333 
L 692.742478 49.360493 
L 694.119677 48.815735 
L 695.496875 48.533408 
L 695.496875 48.533408 
" clip-path="url(#p3c4349d119)" style="fill: none; stroke: #d62728; stroke-width: 1.5; stroke-linecap: square"/>
   </g>
   <g id="patch_9">
    <path d="M 407.73125 248.2 
L 407.73125 25.8 
" style="fill: none; stroke: #000000; stroke-width: 0.8; stroke-linejoin: miter; stroke-linecap: square"/>
   </g>
   <g id="patch_10">
    <path d="M 709.2 248.2 
L 709.2 25.8 
" style="fill: none; stroke: #000000; stroke-width: 0.8; stroke-linejoin: miter; stroke-linecap: square"/>
   </g>
   <g id="patch_11">
    <path d="M 407.73125 248.2 
L 709.2 248.2 
" style="fill: none; stroke: #000000; stroke-width: 0.8; stroke-linejoin: miter; stroke-linecap: square"/>
   </g>
   <g id="patch_12">
    <path d="M 407.73125 25.8 
L 709.2 25.8 
" style="fill: none; stroke: #000000; stroke-width: 0.8; stroke-linejoin: miter; stroke-linecap: square"/>
   </g>
   <g id="text_43">
    <!-- Accuracy (pt, cifar10) -->
    <g transform="translate(493.651562 19.8) scale(0.12 -0.12)">
     <defs>
      <path id="DejaVuSans-41" d="M 2188 4044 
L 1331 1722 
L 3047 1722 
L 2188 4044 
z
M 1831 4666 
L 2547 4666 
L 4325 0 
L 3669 0 
L 3244 1197 
L 1141 1197 
L 716 0 
L 50 0 
L 1831 4666 
z
" transform="scale(0.015625)"/>
     </defs>
     <use xlink:href="#DejaVuSans-41"/>
     <use xlink:href="#DejaVuSans-63" transform="translate(66.658203 0)"/>
     <use xlink:href="#DejaVuSans-63" transform="translate(121.638672 0)"/>
     <use xlink:href="#DejaVuSans-75" transform="translate(176.619141 0)"/>
     <use xlink:href="#DejaVuSans-72" transform="translate(239.998047 0)"/>
     <use xlink:href="#DejaVuSans-61" transform="translate(281.111328 0)"/>
     <use xlink:href="#DejaVuSans-63" transform="translate(342.390625 0)"/>
     <use xlink:href="#DejaVuSans-79" transform="translate(397.371094 0)"/>
     <use xlink:href="#DejaVuSans-20" transform="translate(456.550781 0)"/>
     <use xlink:href="#DejaVuSans-28" transform="translate(488.337891 0)"/>
     <use xlink:href="#DejaVuSans-70" transform="translate(527.351562 0)"/>
     <use xlink:href="#DejaVuSans-74" transform="translate(590.828125 0)"/>
     <use xlink:href="#DejaVuSans-2c" transform="translate(630.037109 0)"/>
     <use xlink:href="#DejaVuSans-20" transform="translate(661.824219 0)"/>
     <use xlink:href="#DejaVuSans-63" transform="translate(693.611328 0)"/>
     <use xlink:href="#DejaVuSans-69" transform="translate(748.591797 0)"/>
     <use xlink:href="#DejaVuSans-66" transform="translate(776.375 0)"/>
     <use xlink:href="#DejaVuSans-61" transform="translate(811.580078 0)"/>
     <use xlink:href="#DejaVuSans-72" transform="translate(872.859375 0)"/>
     <use xlink:href="#DejaVuSans-31" transform="translate(913.972656 0)"/>
     <use xlink:href="#DejaVuSans-30" transform="translate(977.595703 0)"/>
     <use xlink:href="#DejaVuSans-29" transform="translate(1041.21875 0)"/>
    </g>
   </g>
   <g id="legend_2">
    <g id="patch_13">
     <path d="M 414.73125 92.5125 
L 486.639063 92.5125 
Q 488.639063 92.5125 488.639063 90.5125 
L 488.639063 32.8 
Q 488.639063 30.8 486.639063 30.8 
L 414.73125 30.8 
Q 412.73125 30.8 412.73125 32.8 
L 412.73125 90.5125 
Q 412.73125 92.5125 414.73125 92.5125 
z
" style="fill: #ffffff; opacity: 0.8; stroke: #cccccc; stroke-linejoin: miter"/>
    </g>
    <g id="line2d_79">
     <path d="M 416.73125 38.898438 
L 426.73125 38.898438 
L 436.73125 38.898438 
" style="fill: none; stroke: #1f77b4; stroke-width: 1.5; stroke-linecap: square"/>
    </g>
    <g id="text_44">
     <!-- agc -->
     <g transform="translate(444.73125 42.398438) scale(0.1 -0.1)">
      <use xlink:href="#DejaVuSans-61"/>
      <use xlink:href="#DejaVuSans-67" transform="translate(61.279297 0)"/>
      <use xlink:href="#DejaVuSans-63" transform="translate(124.755859 0)"/>
     </g>
    </g>
    <g id="line2d_80">
     <path d="M 416.73125 53.576562 
L 426.73125 53.576562 
L 436.73125 53.576562 
" style="fill: none; stroke: #ff7f0e; stroke-width: 1.5; stroke-linecap: square"/>
    </g>
    <g id="text_45">
     <!-- autoclip -->
     <g transform="translate(444.73125 57.076562) scale(0.1 -0.1)">
      <use xlink:href="#DejaVuSans-61"/>
      <use xlink:href="#DejaVuSans-75" transform="translate(61.279297 0)"/>
      <use xlink:href="#DejaVuSans-74" transform="translate(124.658203 0)"/>
      <use xlink:href="#DejaVuSans-6f" transform="translate(163.867188 0)"/>
      <use xlink:href="#DejaVuSans-63" transform="translate(225.048828 0)"/>
      <use xlink:href="#DejaVuSans-6c" transform="translate(280.029297 0)"/>
      <use xlink:href="#DejaVuSans-69" transform="translate(307.8125 0)"/>
      <use xlink:href="#DejaVuSans-70" transform="translate(335.595703 0)"/>
     </g>
    </g>
    <g id="line2d_81">
     <path d="M 416.73125 68.254687 
L 426.73125 68.254687 
L 436.73125 68.254687 
" style="fill: none; stroke: #2ca02c; stroke-width: 1.5; stroke-linecap: square"/>
    </g>
    <g id="text_46">
     <!-- none -->
     <g transform="translate(444.73125 71.754687) scale(0.1 -0.1)">
      <use xlink:href="#DejaVuSans-6e"/>
      <use xlink:href="#DejaVuSans-6f" transform="translate(63.378906 0)"/>
      <use xlink:href="#DejaVuSans-6e" transform="translate(124.560547 0)"/>
      <use xlink:href="#DejaVuSans-65" transform="translate(187.939453 0)"/>
     </g>
    </g>
    <g id="line2d_82">
     <path d="M 416.73125 82.932813 
L 426.73125 82.932813 
L 436.73125 82.932813 
" style="fill: none; stroke: #d62728; stroke-width: 1.5; stroke-linecap: square"/>
    </g>
    <g id="text_47">
     <!-- zscore -->
     <g transform="translate(444.73125 86.432813) scale(0.1 -0.1)">
      <use xlink:href="#DejaVuSans-7a"/>
      <use xlink:href="#DejaVuSans-73" transform="translate(52.490234 0)"/>
      <use xlink:href="#DejaVuSans-63" transform="translate(104.589844 0)"/>
      <use xlink:href="#DejaVuSans-6f" transform="translate(159.570312 0)"/>
      <use xlink:href="#DejaVuSans-72" transform="translate(220.751953 0)"/>
      <use xlink:href="#DejaVuSans-65" transform="translate(259.615234 0)"/>
     </g>
    </g>
   </g>
  </g>
 </g>
 <defs>
  <clipPath id="p6ef35ea463">
   <rect x="46.71875" y="25.8" width="301.46875" height="222.4"/>
  </clipPath>
  <clipPath id="p3c4349d119">
   <rect x="407.73125" y="25.8" width="301.46875" height="222.4"/>
  </clipPath>
 </defs>
</svg>
